<?xml version="1.0" standalone="no"?>
<!DOCTYPE svg PUBLIC "-//W3C//DTD SVG 1.1//EN" "http://www.w3.org/Graphics/SVG/1.1/DTD/svg11.dtd">
<!--Generator: Xara Xtreme (www.xara.com), SVG filter version: 1.0.0.13-->
<svg stroke-width="0.501" stroke-linejoin="bevel" fill-rule="evenodd" xmlns:xlink="http://www.w3.org/1999/xlink" xmlns="http://www.w3.org/2000/svg" version="1.1" overflow="visible" width="450pt" height="600pt" viewBox="0 0 450 600">
 <defs>
  <marker id="DefaultArrow2" markerUnits="strokeWidth" viewBox="0 0 1 1" markerWidth="1" markerHeight="1" overflow="visible" orient="auto">
   <!-- REF_ARROW_STRAIGHT (-2) -->
   <g transform="scale(0.0092592592)">
    <!-- 1/108 -->
    <path d="M -9 54 L -9 -54 L 117 0 z"/>
   </g>
  </marker>
  <marker id="DefaultArrow3" markerUnits="strokeWidth" viewBox="0 0 1 1" markerWidth="1" markerHeight="1" overflow="visible" orient="auto">
   <!-- REF_ARROW_ANGLED -->
   <g transform="scale(0.0092592592)">
    <path d="M -27 54 L -9 0 L -27 -54 L 135 0 z"/>
   </g>
  </marker>
  <marker id="DefaultArrow4" markerUnits="strokeWidth" viewBox="0 0 1 1" markerWidth="1" markerHeight="1" overflow="visible" orient="auto">
   <!-- REF_ARROW_ROUNDED -->
   <g transform="scale(0.0092592592)">
    <path d="M -9,0 L -9,-45 C -9,-51.708 2.808,-56.580 9,-54 L 117,-9 C 120.916,-7.369 126.000,-4.242 126,0 C 126,4.242 120.916,7.369 117,9 L 9,54 C 2.808,56.580 -9,51.708 -9,45 z"/>
   </g>
  </marker>
  <marker id="DefaultArrow5" markerUnits="strokeWidth" viewBox="0 0 1 1" markerWidth="1" markerHeight="1" overflow="visible" orient="auto">
   <!-- REF_ARROW_SPOT -->
   <g transform="scale(0.0092592592)">
    <path d="M -54, 0 C -54,29.807 -29.807,54 0,54 C 29.807,54 54,29.807 54,0 C 54,-29.807 29.807,-54 0,-54 C -29.807,-54 -54,-29.807 -54,0 z"/>
   </g>
  </marker>
  <marker id="DefaultArrow6" markerUnits="strokeWidth" viewBox="0 0 1 1" markerWidth="1" markerHeight="1" overflow="visible" orient="auto">
   <!-- REF_ARROW_DIAMOND -->
   <g transform="scale(0.0092592592)">
    <path d="M -63,0 L 0,63 L 63,0 L 0,-63 z"/>
   </g>
  </marker>
  <marker id="DefaultArrow7" markerUnits="strokeWidth" viewBox="0 0 1 1" markerWidth="1" markerHeight="1" overflow="visible" orient="auto">
   <!-- REF_ARROW_FEATHER -->
   <g transform="scale(0.0092592592)">
    <path d="M 18,-54 L 108,-54 L 63,0 L 108,54 L 18, 54 L -36,0 z"/>
   </g>
  </marker>
  <marker id="DefaultArrow8" markerUnits="strokeWidth" viewBox="0 0 1 1" markerWidth="1" markerHeight="1" overflow="visible" orient="auto">
   <!-- REF_ARROW_FEATHER2 -->
   <g transform="scale(0.0092592592)">
    <path d="M -36,0 L 18,-54 L 54,-54 L 18,-18 L 27,-18 L 63,-54 L 99,-54 L 63,-18 L 72,-18 L 108,-54 L 144,-54 L 90,0 L 144,54 L 108,54 L 72,18 L 63,18 L 99,54 L 63,54 L 27,18 L 18,18 L 54,54 L 18,54 z"/>
   </g>
  </marker>
  <marker id="DefaultArrow9" markerUnits="strokeWidth" viewBox="0 0 1 1" markerWidth="1" markerHeight="1" overflow="visible" orient="auto">
   <!-- REF_ARROW_HOLLOWDIAMOND -->
   <g transform="scale(0.0092592592)">
    <path d="M 0,45 L -45,0 L 0, -45 L 45, 0 z M 0, 63 L-63, 0 L 0, -63 L 63, 0 z"/>
   </g>
  </marker>
  <filter id="StainedFilter">
   <feBlend mode="multiply" in2="BackgroundImage" in="SourceGraphic" result="blend"/>
   <feComposite in="blend" in2="SourceAlpha" operator="in" result="comp"/>
  </filter>
  <filter id="BleachFilter">
   <feBlend mode="screen" in2="BackgroundImage" in="SourceGraphic" result="blend"/>
   <feComposite in="blend" in2="SourceAlpha" operator="in" result="comp"/>
  </filter>
  <filter id="InvertTransparencyBitmapFilter">
   <feComponentTransfer>
    <feFuncR type="gamma" amplitude="1.055" exponent=".416666666" offset="-0.055"/>
    <feFuncG type="gamma" amplitude="1.055" exponent=".416666666" offset="-0.055"/>
    <feFuncB type="gamma" amplitude="1.055" exponent=".416666666" offset="-0.055"/>
   </feComponentTransfer>
   <feComponentTransfer>
    <feFuncR type="linear" slope="-1" intercept="1"/>
    <feFuncG type="linear" slope="-1" intercept="1"/>
    <feFuncB type="linear" slope="-1" intercept="1"/>
    <feFuncA type="linear" slope="1" intercept="0"/>
   </feComponentTransfer>
   <feComponentTransfer>
    <feFuncR type="gamma" amplitude="1" exponent="2.4" offset="0"/>
    <feFuncG type="gamma" amplitude="1" exponent="2.4" offset="0"/>
    <feFuncB type="gamma" amplitude="1" exponent="2.4" offset="0"/>
   </feComponentTransfer>
  </filter>
 </defs>
 <g id="Document" fill="none" stroke="black" font-family="Times New Roman" font-size="16" transform="scale(1 -1)">
  <g id="Spread" transform="translate(0 -600)">
   <g id="задние ыволосы">
    <g id="Group" stroke="none" stroke-width="0.5" stroke-miterlimit="79.8403193612775">
     <path d="M 244.672,521.093 C 209.249,528.638 192.669,510.012 185.617,478.157 C 177.426,437.865 164.228,405.452 130.041,406.093 C 134.335,399.285 140.413,395.455 149.259,396.254 C 134.793,387.493 103.536,367.298 114.744,334.555 C 120.294,320.131 126.61,306.06 135.532,293.197 C 116.76,338.458 145.283,365.204 173.893,363.41 C 196.23,338.955 154.776,307.107 138.301,306.551 C 148.136,304.211 199.978,303.624 205.675,311.077 C 220.774,328.5 229.039,347.357 234.283,366.848 C 258.136,344.689 283.077,322.827 279.955,293.309 C 281.569,307.977 283.326,322.621 272.86,339.703 C 288.06,321.758 305.657,312.413 325.686,311.789 C 311.539,315.366 295.06,328.156 273.861,359.587 C 268.932,368.67 264.66,378.283 261.945,389.15 C 280.273,377.756 293.561,363.146 295.672,341.407 C 298.083,351.112 297.249,361.582 291.906,373.114 C 309.218,363.813 325.666,364.053 342.002,365.481 C 327.239,368.326 312.293,370.116 300.616,391.038 C 313.629,384.032 327.199,379.213 341.951,379.064 C 321.351,389.724 302.366,402.234 290.016,422.346 L 283.094,435.158 C 288.73,436.166 292.029,442.529 293.674,452.667 C 296.415,447.57 297.965,441.852 296.694,434.663 C 302.653,454.158 302.725,475.36 284.279,499.168 C 293.303,496.545 301.865,491.555 308.008,474.231 C 305.091,484.906 302.213,495.585 289.482,505.917 C 276.326,514.256 265.194,526.324 244.672,521.093 Z" fill="#cccccc" marker-start="none" marker-end="none"/>
     <path d="M 277.517,476.521 C 283.431,465.521 287.049,454.521 276.767,443.521 C 278.956,448.554 279.851,453.732 277.517,459.271 C 275.982,452.127 274.114,445.195 266.642,441.833 C 269.248,445.717 270.764,450.148 270.392,455.521 C 265.991,448.172 257.651,433.746 250.446,429.203 C 258.249,439.347 259.032,450.573 258.414,462.015 C 256.55,474.538 252.094,486.591 243.414,497.875 C 251.255,491.462 258.55,484.684 264.508,477.015 C 261.392,487.553 258.507,498.119 249.039,507.953 C 260.55,497.729 271.182,487.393 277.517,476.521 Z" fill="#999999" marker-start="none" marker-end="none"/>
     <path d="M 136.891,381.893 C 121.917,375.773 115.062,348.795 122.265,328.267 C 121.395,336.142 121.292,344.018 125.641,351.893 C 124.122,347.271 125.554,336.543 126.765,337.267 C 129.488,349.069 132.52,360.256 140.641,361.266 C 148.842,364.94 155.529,370.128 159.766,377.767 C 153.229,374.409 145.698,372.861 137.266,369.517 C 139.065,376.661 145.798,381.632 153.391,384.894 C 147.891,384.223 142.391,383.866 136.891,381.893 Z" fill="#999999" marker-start="none" marker-end="none"/>
     <path d="M 258.956,370.753 C 268.153,354.708 279.415,338.892 295.857,323.652 C 283.926,332.788 271.646,341.748 263.457,352.753 C 268.498,343.423 272.896,333.772 276.356,323.653 C 270.356,336.102 255.018,355.732 241.556,364.453 C 208.4,395.709 232.663,407.004 247.405,394.287 L 258.956,370.753 Z" fill="#999999" marker-start="none" marker-end="none"/>
     <path d="M 181.891,438.143 C 177.596,425.038 152.095,404.146 144.015,405.144 C 152.047,405.734 158.957,407.45 165.016,410.017 L 150.765,401.393 C 158.084,401.688 165.319,402.184 171.015,406.267 C 184.671,417.366 194.114,429.954 190.516,447.144 C 188.664,440.477 187.019,432.747 182.855,429.287 L 181.891,438.143 Z" fill="#999999" marker-start="none" marker-end="none"/>
     <path d="M 274.08,401.307 C 282.497,389.557 301.21,380.19 314.924,371.703 C 304.791,375.81 286.11,379.987 279.204,388.393 C 283.871,381.969 288.092,375.241 291.663,368.074 C 285.976,376.719 272.646,389.768 261.79,394.906 C 234.083,414.818 250.972,425.606 263.174,417.629 L 274.08,401.307 Z" fill="#999999" marker-start="none" marker-end="none"/>
    </g>
   </g>
   <g id="палантир">
    <g id="Group_1" stroke="none" stroke-width="0.5" stroke-miterlimit="79.8403193612775">
     <path d="M 213.687,433.006 C 131.77,323.708 141.029,319.362 208.147,245.415 C 254.782,207.601 301.419,204.31 348.054,203.945 L 347.487,216.406 C 290.629,215.692 231.617,225.763 196.887,275.806 C 246.956,225.354 308.014,229.845 372.687,252.406 L 366.687,267.406 C 316.368,248.173 268.335,238.942 224.487,265.006 C 266.301,260.896 308.115,265.701 349.929,286.445 L 345.166,306.995 C 318.312,290.668 277.061,278.218 257.707,283.836 C 239.602,297.605 218.111,331.618 250.887,362.806 C 283.233,392.269 303.466,460.604 213.687,433.006 Z" fill="#3a343a" marker-start="none" marker-end="none"/>
     <path d="M 342.538,204.003 C 342.188,207.879 341.715,212.956 341.303,216.372 C 343.364,216.368 345.427,216.38 347.487,216.406 L 348.054,203.945 C 346.215,203.959 344.376,203.978 342.538,204.003 Z M 359.946,264.886 C 362.189,265.705 364.435,266.545 366.687,267.406 L 372.687,252.406 C 370.273,251.563 367.864,250.747 365.458,249.956 C 363.801,254.437 361.549,260.534 359.946,264.886 Z M 340.256,304.14 C 341.937,305.076 343.576,306.028 345.166,306.995 L 349.929,286.445 C 347.845,285.411 345.761,284.417 343.676,283.46 C 342.742,288.78 341.116,298.761 340.256,304.14 Z" fill="#bfbd00" marker-start="none" marker-end="none"/>
    </g>
   </g>
   <g id="рука дальняя 1">
    <g id="Group_2" stroke="none" stroke-width="0.5" stroke-miterlimit="79.8403193612775">
     <path d="M 302.782,358.056 C 274.804,366.163 254.31,421.83 264.684,428.389 C 270.548,431.48 278.967,431.448 284.943,418.297 C 295.171,406.095 304.18,393.286 312.79,380.276 C 319.782,366.186 316,358.169 303.305,357.737 C 303.129,357.848 302.954,357.955 302.782,358.056 Z" fill="#735f88" marker-start="none" marker-end="none"/>
     <path d="M 302.782,358.056 C 284.167,364.544 256.869,418.136 266.309,417.717 C 275.124,407.097 287.44,383.489 294.603,371.062 C 296.602,368.511 299.197,366.878 302.176,365.896 C 302.018,363.452 302.373,360.743 303.305,357.737 C 303.129,357.848 302.954,357.954 302.782,358.056 Z" fill="#3a343a" marker-start="none" marker-end="none"/>
     <path d="M 305.573,376.217 C 297.551,391.459 287.307,406.48 271.223,420.917 C 268.694,423.501 266.792,425.811 271.073,425.417 C 283.523,419.836 309.023,382.974 308.873,378.017 L 309.218,378.02 C 306.511,376.006 304.488,373.638 303.313,370.833 C 303.944,373.316 305.396,376.335 305.573,376.217 Z" fill="#aa98bd" marker-start="none" marker-end="none"/>
    </g>
   </g>
   <g id="туловище низ">
    <g id="Group_3" stroke="none" stroke-width="0.5" stroke-miterlimit="79.8403193612775">
     <path d="M 201.832,356.279 L 203.482,359.94 C 207.219,365.863 208.587,376.681 208.05,385.671 C 208.048,385.683 208.046,385.696 208.044,385.709 C 205.754,393.082 255.433,417.822 266.141,389.758 C 252.571,380.764 258.243,358.645 255.484,346.979 C 251.471,319.939 192.393,317.771 201.832,356.279 Z" fill="#ccc57c" marker-start="none" marker-end="none"/>
     <path d="M 228.541,346.324 C 228.116,352.969 228.954,360.98 231.73,371.127 L 232.927,375.295 C 239.897,375.17 247.075,375.431 251.268,381.114 C 252.703,380.2 252.447,379.18 251.665,377.172 C 248.676,367.49 249.837,357.266 247.279,347.574 C 242.193,346.142 229.021,345.634 228.541,346.324 Z" fill="#dfdaac" marker-start="none" marker-end="none"/>
     <path d="M 201.696,356.279 L 203.346,359.94 C 203.813,360.68 204.243,361.497 204.637,362.377 C 205.819,365.018 206.676,368.228 207.232,371.655 C 207.974,376.224 208.182,381.176 207.914,385.671 C 207.909,385.7 207.905,385.73 207.901,385.76 C 212.56,399.653 232.754,391.05 223.875,381.171 C 219.228,376.838 209.889,337.34 213.765,330.188 C 204.386,333.692 198.206,342.042 201.696,356.279 Z" fill="#9c9866" marker-start="none" marker-end="none"/>
     <path d="M 239.683,352.841 C 240.048,354.393 240.976,355.654 241.752,355.654 C 242.528,355.654 242.862,354.393 242.497,352.841 C 242.131,351.289 241.203,350.028 240.427,350.028 C 239.651,350.028 239.317,351.289 239.683,352.841 Z" fill="#ccc57c" marker-start="none" marker-end="none"/>
    </g>
   </g>
   <g id="туловище верх">
    <g id="Group_4" stroke="none" stroke-width="0.5" stroke-miterlimit="79.8403193612775">
     <g id="Group_5">
      <g id="Group_6">
       <path d="M 208.044,385.477 C 207.61,388.521 207.392,391.414 207.377,394.148 L 207.398,394.161 L 204.4,402.644 C 188.561,420.13 194.66,431.846 221.462,439.854 C 227.206,445.237 227.801,452.607 225.587,461.061 L 251.032,445.463 L 250.882,439.756 L 256.525,440.239 C 266.738,439.78 268.764,430.817 273.264,417.017 C 278.626,406.607 277.607,396.798 270.957,391.893 L 270.953,391.974 C 265.746,388.734 259.645,387.878 252.953,388.599 C 246.07,378.183 221.379,380.709 208.044,385.477 Z" fill="#ccc57c" marker-start="none" marker-end="none"/>
       <path d="M 232.086,446.882 C 228.994,448.756 227.521,450.926 227.341,452.869 C 227.006,457.246 226.784,458.477 226.496,459.734 L 250.551,444.99 C 241.38,443.921 235.628,444.977 232.086,446.882 Z" fill="#9c9866" marker-start="none" marker-end="none"/>
      </g>
      <path d="M 248.203,399.841 L 240.234,404.06 C 241.408,407.963 242.184,412.265 242.109,417.419 C 246.851,412.238 248.428,406.264 248.203,399.841 Z" fill="#dfdaac" marker-start="none" marker-end="none"/>
      <path d="M 256.172,406.403 L 248.228,407.117 C 247.466,411.023 247.774,416.091 250.781,419.997 C 251.334,414.969 252.354,410.126 256.172,406.403 Z" fill="#9c9866" marker-start="none" marker-end="none"/>
      <path d="M 207.901,385.528 C 207.471,388.553 207.256,391.429 207.241,394.148 L 207.262,394.161 L 204.264,402.644 C 203.137,403.887 202.121,405.101 201.321,406.162 L 201.094,406.465 L 198.955,409.581 L 198.835,409.779 C 201.453,424.177 212.999,420.324 216.597,403.954 L 217.125,403.814 C 211.26,393.603 215.192,387.242 222.218,382.095 C 216.936,382.844 211.897,384.086 207.901,385.528 Z" fill="#9c9866" marker-start="none" marker-end="none"/>
      <g id="Group_7">
       <path d="M 207.703,385.6 C 207.207,393.438 205.969,399.982 205.525,401.02 C 213.599,400.598 218.377,403.844 223.443,409.172 C 220.348,418.417 221.484,427.582 215.58,437.195 C 214.051,436.933 214.161,437.895 214.791,438.715 C 216.283,439.952 218.647,438.819 219.141,438.407 C 222.957,433.595 222.376,423.595 226.57,410.241 C 240.931,406.268 256.791,407.355 267.863,413.891 C 265.374,422.605 265.979,431.424 260.51,440.431 C 260.387,440.633 259.359,440.353 259.23,440.555 C 258.841,440.899 259.637,441.692 259.716,441.799 C 261.166,442.211 262.616,442.021 264.066,441.491 C 267.68,436.934 267.351,427.727 270.865,415.424 C 273.322,414.097 272.361,414.862 274.535,413.41 C 278.581,404.363 277.273,396.19 270.964,391.785 L 270.953,391.974 C 265.746,388.734 259.645,387.878 252.953,388.599 C 246.011,378.093 220.953,380.754 207.703,385.6 Z" fill="#735f88" marker-start="none" marker-end="none"/>
       <path d="M 251.669,391.251 C 255.156,389.676 258.788,388.245 264.981,389.376 C 264.966,389.366 264.952,389.357 264.937,389.347 C 261.234,388.32 257.213,388.139 252.953,388.599 C 250.385,384.713 245.34,382.629 239.332,381.79 C 243.667,383.154 247.821,385.975 251.669,391.251 Z" fill="#3a343a" marker-start="none" marker-end="none"/>
       <path d="M 251.294,392.001 C 246.439,401.678 238.17,405.785 226.919,405.126 C 232.08,405.928 237.016,407.181 243.419,405.501 C 248.254,401.736 250.894,397.241 251.294,392.001 Z" fill="#aa98bd" marker-start="none" marker-end="none"/>
       <path d="M 260.455,408.732 C 265.352,408.995 268.43,414.07 273.018,409.763 C 276.149,404.496 273.991,399.133 272.455,394.107 C 274.119,406.139 272.574,407.051 260.455,408.732 Z" fill="#aa98bd" marker-start="none" marker-end="none"/>
       <path d="M 207.703,385.6 C 207.207,393.438 205.969,399.982 205.525,401.02 C 211.12,400.727 215.133,402.197 218.756,404.9 C 216.789,398.246 217.433,388.099 222.979,381.991 C 217.334,382.736 211.92,384.058 207.703,385.6 Z" fill="#3a343a" marker-start="none" marker-end="none"/>
      </g>
     </g>
     <g id="Group_8">
      <g id="Group_9">
       <path d="M 202.78,398.327 L 201.186,402.838 C 184.632,421.113 191.006,433.358 219.018,441.727 C 219.845,442.502 220.569,443.316 221.198,444.168 C 221.382,444.217 223.547,445.949 224.415,444.802 C 228.275,440.911 237.805,435.539 247.74,435.713 C 243.841,413.14 230.791,402.323 214.323,401.131 C 210.845,400.879 206.936,399.879 202.78,398.327 Z" fill="#735f88" marker-start="none" marker-end="none"/>
       <path d="M 204.547,398.956 C 206.748,427.619 217.581,446.099 221.686,418.112 C 222.551,411.063 217.014,406.107 217.093,401.518 C 216.982,401.494 216.875,401.442 216.769,401.381 C 215.963,401.274 215.15,401.19 214.328,401.131 C 211.345,400.914 208.047,400.149 204.547,398.956 Z" fill="#3a343a" marker-start="none" marker-end="none"/>
       <path d="M 202.78,398.327 L 202.291,399.708 C 202.34,399.866 202.388,400.017 202.433,400.162 C 221.024,403.948 240.975,415.387 244.606,435.835 C 245.642,435.738 246.688,435.694 247.74,435.713 C 243.841,413.14 230.791,402.323 214.323,401.131 C 210.845,400.879 206.936,399.879 202.78,398.327 Z" fill="#bfbd00" marker-start="none" marker-end="none"/>
      </g>
      <path d="M 241.323,431.717 C 237.454,422.959 230.807,414.895 220.623,407.717 C 223.439,413.753 224.891,420.504 218.973,431.117 C 219.518,433.167 221.209,435.217 224.523,437.267 C 229.057,434.706 234.394,432.681 241.323,431.717 Z" fill="#aa98bd" marker-start="none" marker-end="none"/>
     </g>
     <g id="Group_10">
      <path d="M 276.003,408.102 C 264.178,416.217 247.815,422.24 242.324,432.411 C 243.227,435.797 254.167,437.717 250.569,440.12 C 250.668,440.16 250.765,440.199 250.862,440.238 L 250.86,440.139 L 257.395,440.698 C 269.225,440.168 271.569,429.786 276.782,413.805 C 280.043,407.47 281.266,401.331 280.576,396.105 C 279.321,400.142 277.875,404.178 276.003,408.102 Z" fill="#735f88" marker-start="none" marker-end="none"/>
      <path d="M 242.324,432.411 C 242.55,433.26 243.408,434.016 244.509,434.712 C 253.67,424.325 269.939,415.981 276.115,408.426 L 275.847,408.208 C 264.035,416.269 247.791,422.284 242.324,432.411 Z" fill="#bfbd00" marker-start="none" marker-end="none"/>
      <path d="M 248.694,433.324 C 256.059,426.654 263.654,420.443 271.762,415.258 C 272.195,420.472 269.843,426.053 268.023,432.017 C 265.2,434.522 258.897,439.254 255.081,438.854 C 253.317,438.478 254.149,434.44 248.694,433.324 Z" fill="#aa98bd" marker-start="none" marker-end="none"/>
     </g>
    </g>
   </g>
   <g id="голова">
    <g id="Group_11" stroke="none" stroke-width="0.5" stroke-miterlimit="79.8403193612775">
     <path d="M 283.151,487.895 C 279.889,482.077 278.376,473.316 278.721,460.884 C 277.239,453.62 275.958,454.818 258.194,442.079 C 256.436,440.79 251.903,440.643 249.045,443.62 C 245.703,446.921 241.817,448.827 237.804,450.404 C 233.49,452.794 220.103,464.141 218.698,469.521 C 224.413,486.654 235.179,499.369 247.418,510.795 C 249.352,510.115 253.222,508.754 254.749,507.34 C 256.277,505.928 273.223,504.384 273.681,501.243 C 274.14,498.102 280.147,491.296 283.151,487.895 Z" fill="#ccc57c" marker-start="none" marker-end="none"/>
     <path d="M 266.964,468.479 C 268.001,471.954 269.437,475.429 271.464,478.904 L 279.939,480.479 L 278.139,476.354 C 273.444,475.182 269.687,472.606 266.964,468.479 Z" fill="#9c9866" marker-start="none" marker-end="none"/>
     <path d="M 272.698,466.774 C 274.888,468.823 276.278,473.519 275.292,475.889 C 275.056,476.457 274.015,474.542 273.582,475.131 C 270.578,473.503 267.819,471.696 266.852,468.595 C 266.736,468.037 267.65,466.723 267.746,466.734 L 271.5,467.091 L 272.698,466.774 Z" fill="#ffffff" marker-start="none" marker-end="none"/>
     <path d="M 266.625,468.243 C 268.073,472.461 272.951,478.063 278.353,477.344 C 276.643,474.934 274.687,470.257 275.023,470.372 C 275,471.865 275.149,473.435 275.594,475.136 C 272.22,474.495 269.178,472.426 266.625,468.243 Z" fill="#000000" marker-start="none" marker-end="none"/>
     <path d="M 271.502,473.631 C 271.985,472.498 272.852,471.739 274.195,471.451 C 273.868,469.833 273.456,468.23 272.496,466.741 C 271.068,465.772 269.51,465.887 267.854,466.827 C 271.35,466.535 268.098,470.376 266.898,468.985 C 268.285,470.592 269.522,472.255 271.502,473.631 Z" fill="#ff0000" fill-rule="evenodd" marker-start="none" marker-end="none"/>
     <path d="M 271.325,473.34 C 271.79,472.251 272.623,471.521 273.915,471.244 C 273.6,469.688 273.204,468.147 272.281,466.715 C 270.908,465.784 269.41,465.894 267.818,466.798 C 271.179,466.517 268.052,470.21 266.899,468.873 C 268.232,470.418 269.422,472.017 271.325,473.34 Z" fill="#7f0000" marker-start="none" marker-end="none"/>
     <path d="M 266.882,468.171 C 269.453,470.332 271.967,472.893 275.102,471.111 L 276.062,475.371 L 274.802,475.251 C 270.493,473.649 267.716,471.351 266.882,468.171 Z" fill="#000000" stroke-opacity="0.290196" marker-start="none" marker-end="none" fill-opacity="0.290196"/>
     <path d="M 232.526,494.567 C 234.302,486.593 237.053,479.594 243.326,476.117 C 247.254,477.96 251.334,479.5 256.526,478.817 C 259.702,476.983 261.842,471.524 263.426,464.117 L 265.076,464.417 C 264.718,472.083 264.329,479.161 272.4,480.174 C 277.751,480.414 279.46,482.568 278.681,487.112 C 280.749,498.69 257.994,509.224 250.226,505.367 L 232.526,494.567 Z" fill="#dfdaac" marker-start="none" marker-end="none"/>
     <path d="M 269.818,467.503 C 269.997,467.582 270.079,467.794 270,467.974 C 269.92,468.154 269.708,468.235 269.529,468.156 C 269.349,468.076 269.267,467.865 269.346,467.685 C 269.426,467.505 269.638,467.423 269.818,467.503 Z M 270.73,467.838 C 270.909,467.918 270.991,468.13 270.912,468.309 C 270.832,468.49 270.621,468.571 270.441,468.491 C 270.26,468.412 270.178,468.201 270.259,468.02 C 270.338,467.84 270.549,467.758 270.73,467.838 Z M 272.898,467.709 C 273.034,467.89 272.646,468.411 272.032,468.872 C 271.418,469.333 270.81,469.56 270.675,469.379 C 270.538,469.198 270.926,468.677 271.539,468.216 C 272.153,467.754 272.763,467.528 272.898,467.709 Z M 271.15,471.324 C 271.463,471.463 271.604,471.828 271.466,472.141 C 271.327,472.454 270.961,472.596 270.648,472.458 C 270.335,472.319 270.194,471.953 270.332,471.641 C 270.471,471.328 270.837,471.186 271.15,471.324 Z" fill="#ffffff" marker-start="none" marker-end="none"/>
     <path d="M 280.672,480.139 C 278.013,481.316 275.135,481.343 271.972,479.886 L 270.961,478.029 C 274.19,479.335 277.427,480.128 280.672,480.139 Z" fill="#000000" marker-start="none" marker-end="none"/>
     <path d="M 257.664,469.754 C 257.718,472.589 257.584,475.518 256.389,478.979 C 250.032,478.914 244.341,477.424 239.364,474.404 C 242.493,473.184 241.657,471.537 237.489,469.529 L 244.389,468.029 L 255.189,469.754 L 257.664,469.754 Z" fill="#9c9866" marker-start="none" marker-end="none"/>
     <path d="M 257.28,470.112 C 257.712,468.089 253.821,464.009 250.883,464.687 L 246.273,467.328 C 246.119,468.613 245.809,471.184 245.982,471.429 C 246.156,471.675 247.401,473.279 248.023,474.081 C 252.315,474.414 254.882,472.378 257.28,470.112 Z" fill="#ffffff" marker-start="none" marker-end="none"/>
     <path d="M 247.682,473.074 C 247.84,471.013 249.969,470.307 252.511,469.887 C 253.37,467.862 252.978,466.318 252.12,464.956 C 247.393,463.492 243.079,465.365 238.97,468.866 C 242.673,469.525 245.415,471.079 247.682,473.074 Z" fill="#7f0000" marker-start="none" marker-end="none"/>
     <path d="M 246.962,464.344 C 247.527,464.594 247.783,465.256 247.533,465.821 C 247.283,466.387 246.621,466.643 246.055,466.393 C 245.489,466.143 245.233,465.48 245.483,464.915 C 245.734,464.349 246.396,464.093 246.962,464.344 Z M 252.605,465.657 L 252.963,466.887 L 250.371,467.968 C 249.681,467.886 249.791,467.398 250.018,466.853 L 252.605,465.657 Z M 248.978,469.065 C 249.337,469.224 249.5,469.646 249.341,470.005 C 249.182,470.364 248.761,470.527 248.402,470.368 C 248.043,470.21 247.88,469.788 248.039,469.428 C 248.198,469.069 248.618,468.906 248.978,469.065 Z" fill="#ffffff" marker-start="none" marker-end="none"/>
     <path d="M 238.807,468.675 L 238.926,469.112 C 242.578,469.762 245.279,471.292 247.516,473.261 L 247.931,473.093 C 248.072,471.247 249.977,470.558 252.551,470.133 L 252.741,469.984 C 253.637,467.87 253.224,466.24 252.331,464.822 L 252.193,464.717 C 247.347,463.216 242.944,465.151 238.807,468.675 Z M 251.954,465.169 L 252.193,465.586 C 252.761,466.682 252.969,467.906 252.42,469.431 L 252.328,469.666 L 251.543,469.811 C 249.719,470.193 248.114,470.836 247.596,472.269 L 247.502,472.599 L 246.961,472.149 C 244.99,470.603 242.658,469.388 239.705,468.754 L 239.537,468.721 L 239.132,469.056 C 242.957,465.795 246.91,463.999 251.186,464.963 L 251.954,465.169 Z" fill="#ff0000" fill-rule="evenodd" marker-start="none" marker-end="none"/>
     <ellipse rx="2.345" ry="2.211" transform="translate(250.898 468.915) rotate(90)" fill="#400000"/>
     <path d="M 246.337,464.757 C 246.33,464.851 246.327,464.946 246.327,465.042 C 246.327,467.005 247.831,468.6 249.683,468.6 C 251.087,468.6 252.291,467.682 252.791,466.382 C 252.637,465.879 252.404,465.407 252.12,464.956 C 250.124,464.337 248.201,464.314 246.337,464.757 Z" stroke-opacity="0.325490" fill="#ffffff" marker-start="none" marker-end="none" fill-opacity="0.325490"/>
     <path d="M 249.251,463.429 L 248.635,463.453 L 248.016,463.522 L 247.399,463.636 L 246.785,463.796 L 246.237,463.981 L 243.888,463.539 L 246.109,464.888 L 246.361,464.91 L 246.963,464.886 L 247.543,464.878 L 248.11,464.882 L 248.671,464.895 L 249.223,464.915 L 249.771,464.944 L 250.319,464.979 L 250.869,465.02 L 251.421,465.066 L 251.979,465.119 L 252.542,465.182 L 253.113,465.255 L 253.692,465.336 L 254.276,465.433 L 254.868,465.543 L 255.465,465.671 L 254.956,465.327 L 254.438,465.001 L 253.908,464.698 L 253.367,464.419 L 252.812,464.168 L 252.245,463.951 L 251.665,463.766 L 251.075,463.622 L 250.475,463.515 L 249.867,463.45 L 249.251,463.429 Z" fill="#000000" fill-rule="evenodd" marker-start="none" marker-end="none"/>
     <path d="M 256.515,478.696 C 251.439,481.953 240.656,477.267 239.243,474.269 C 245.176,476.549 251.036,478.489 256.515,478.696 Z" fill="#000000" marker-start="none" marker-end="none"/>
     <path d="M 264.609,464.252 C 264.945,463.261 265.589,462.299 267.34,461.444 C 267.18,460.922 266.871,459.931 266.642,459.963 C 265.853,460.074 264.218,462.897 264.609,464.252 Z" fill="#9c9866" marker-start="none" marker-end="none"/>
     <path d="M 255.898,451.241 C 255.101,451.252 254.308,451.322 253.565,451.513 L 253.865,452.981 C 255.018,452.756 256.272,452.814 257.519,452.863 C 258.316,452.893 259.122,452.961 259.933,453.015 C 261.055,453.087 262.199,453.179 263.332,453.357 C 264.089,453.475 264.84,453.631 265.528,453.866 C 265.832,453.969 266.315,454.149 266.449,454.423 L 266.907,454.252 C 266.708,453.739 266.07,453.488 265.566,453.269 C 264.864,452.964 264.133,452.71 263.394,452.472 C 261.031,451.711 258.294,451.206 255.898,451.241 Z" fill="#9c9866" marker-start="none" marker-end="none"/>
     <path d="M 257.969,448.984 C 257.567,448.989 257.168,449.025 256.793,449.121 L 256.944,449.862 C 257.526,449.748 258.158,449.778 258.787,449.802 C 259.189,449.817 259.595,449.851 260.004,449.878 C 260.57,449.915 261.147,449.961 261.719,450.052 C 262.1,450.111 262.478,450.189 262.826,450.308 C 262.98,450.359 263.223,450.451 263.29,450.589 L 263.521,450.502 C 263.421,450.244 263.099,450.117 262.845,450.007 C 262.491,449.853 262.122,449.724 261.75,449.605 C 260.558,449.222 259.177,448.966 257.969,448.984 Z" fill="#9c9866" marker-start="none" marker-end="none"/>
     <g id="Group_12">
      <path d="M 231.291,469.827 C 231.591,477.216 228.705,490.969 217.422,485.29 C 215.271,482.663 220.189,465.498 227.11,464.022 C 229.688,464.521 229.736,466.756 231.501,465.706 L 231.291,469.827 Z" fill="#ccc57c" marker-start="none" marker-end="none"/>
      <path d="M 225.923,466.88 C 226.201,466.946 224.047,471.612 222.423,473.945 C 218.85,487.044 227.697,487.469 227.771,473.351 C 226.468,472.481 225.837,470.352 225.923,466.88 Z" fill="#9c9866" marker-start="none" marker-end="none"/>
     </g>
     <path d="M 263.402,463.911 C 263.778,462.252 264.4,460.699 265.922,459.531 C 264.242,459.471 260.882,459.351 261.122,459.351 C 261.362,459.351 263.462,463.851 263.402,463.911 Z" fill="#9c9866" marker-start="none" marker-end="none"/>
     <path d="M 243.288,469.213 C 243.589,469.378 243.861,469.571 244.118,469.785 C 244.435,470.049 244.718,470.356 244.976,470.683 C 244.966,470.67 244.929,470.639 244.926,470.623 L 244.936,470.632 C 244.946,470.641 244.956,470.651 244.965,470.661 C 244.997,470.693 245.03,470.724 245.062,470.757 C 245.159,470.854 245.261,470.95 245.362,471.046 C 245.646,471.312 245.935,471.576 246.247,471.806 C 246.531,472.015 246.816,472.225 247.122,472.417 C 247.621,472.73 248.193,472.999 248.766,473.163 C 249.597,473.401 250.424,473.442 251.291,473.285 C 252.262,473.109 253.26,472.631 254.074,472.127 C 255.234,471.41 256.232,470.523 257.175,469.601 L 257.615,469.985 C 256.666,471.266 255.627,472.477 254.296,473.408 C 253.837,473.729 253.353,474.011 252.814,474.265 C 252.478,474.423 252.102,474.554 251.753,474.651 C 250.231,475.072 248.754,474.927 247.334,474.299 C 247.049,474.172 246.782,474.034 246.52,473.879 C 246.121,473.643 245.741,473.376 245.385,473.089 C 244.985,472.766 244.597,472.415 244.246,472.039 C 244.094,471.875 243.924,471.719 243.795,471.537 C 243.329,470.878 242.756,470.326 241.983,470.005 C 241.838,469.946 241.699,469.899 241.557,469.856 C 241.264,469.768 240.961,469.719 240.66,469.7 C 240.24,469.674 239.819,469.689 239.391,469.739 C 238.969,469.789 238.539,469.874 238.113,469.989 C 237.916,470.04 237.718,470.087 237.52,470.163 L 237.304,469.609 C 237.462,469.543 237.607,469.466 237.761,469.397 C 237.999,469.289 238.246,469.188 238.497,469.094 C 240.137,468.483 241.807,468.397 243.288,469.213 Z" fill="#000000" fill-rule="evenodd" marker-start="none" marker-end="none"/>
     <path d="M 239.084,468.721 C 247.913,465.164 247.099,474.982 257.422,469.809 L 253.484,473.371 C 252.546,473.596 250.671,474.046 250.484,474.046 C 250.297,474.046 247.871,473.671 246.659,473.484 C 245.946,472.734 244.521,471.234 244.484,471.159 C 244.447,471.084 243.321,469.809 243.134,469.809 C 242.947,469.809 240.371,469.083 239.084,468.721 Z" stroke-opacity="0.290196" fill="#000000" marker-start="none" marker-end="none" fill-opacity="0.290196"/>
     <ellipse rx="0.733" ry="4.075" transform="translate(251.702 461.24) rotate(106.31)" fill="#9c9866"/>
     <ellipse rx="1.749" ry="1.372" transform="translate(272.633 470.935) rotate(90)" fill="#400000"/>
     <path d="M 267.757,466.977 C 267.75,467.071 267.747,467.166 267.747,467.262 C 267.747,469.225 269.251,470.82 271.103,470.82 C 272.507,470.82 273.711,469.902 274.211,468.602 C 274.057,468.099 273.824,467.627 273.54,467.176 C 271.544,466.557 269.621,466.534 267.757,466.977 Z" stroke-opacity="0.325490" fill="#ffffff" marker-start="none" marker-end="none" fill-opacity="0.325490"/>
     <path d="M 267.601,466.562 L 267.785,467.132 C 269.589,466.963 271.498,466.991 273.197,467.321 L 273.526,467.39 L 273.639,467.453 C 273.742,467.506 273.85,467.55 273.97,467.573 C 274.39,467.651 274.838,467.611 275.192,467.441 C 275.354,467.362 275.507,467.257 275.671,467.179 L 275.467,466.603 C 274.965,466.674 274.491,466.643 274.206,466.28 C 274.144,466.201 274.009,466.152 273.92,466.107 C 273.521,465.902 273.101,465.744 272.658,465.631 C 272.38,465.559 272.094,465.513 271.793,465.484 C 270.222,465.33 268.774,465.8 267.601,466.562 Z" fill="#000000" fill-rule="evenodd" marker-start="none" marker-end="none"/>
     <ellipse rx="0.452" ry="2.511" transform="translate(272.911 464.404) rotate(91.5208)" fill="#9c9866"/>
    </g>
   </g>
   <g id="рука ближ 1">
    <g id="Group_13" stroke="none" stroke-width="0.5" stroke-miterlimit="79.8403193612775">
     <path d="M 168.381,377.642 C 155.151,362.849 140.275,364.041 141.967,380.986 C 142.34,381.688 142.75,382.405 143.199,383.139 C 160.4,399.98 176.105,420.84 206.689,433.966 C 217.083,438.394 231.981,412.625 200.019,394.035 C 189.67,388.37 178.085,387.351 168.381,377.642 Z" fill="#735f88" marker-start="none" marker-end="none"/>
     <path d="M 149.196,381.772 C 149.996,383.254 151.18,384.524 152.325,385.168 C 182.27,406.784 193.749,389.384 214.373,426.128 C 220.018,390.885 173.066,395.472 165.13,378.788 C 160.63,369.9 143.563,363.297 149.196,381.772 Z" fill="#aa98bd" marker-start="none" marker-end="none"/>
     <path d="M 204.998,426.362 C 196.033,414.443 188.646,413.266 156.248,393.081 C 172.07,407.384 187.653,423.491 204.998,426.362 Z" fill="#3a343a" marker-start="none" marker-end="none"/>
    </g>
   </g>
   <g id="волосы">
    <g id="Group_14" stroke="none" stroke-width="0.5" stroke-miterlimit="79.8403193612775">
     <path d="M 197.76,443.151 C 196.437,458.362 189.322,466.12 192.77,488.307 L 192.886,488.688 L 195.951,496.57 L 196.561,497.9 L 200.341,504.676 L 201.062,505.716 L 205.78,511.524 L 206.268,511.974 L 211.871,516.518 L 212.358,516.865 L 218.951,520.079 L 220.092,520.511 L 227.513,522.235 L 228.957,522.406 L 237.534,522.639 L 238.824,522.528 C 241.433,522.44 245.133,521.925 249.065,521.088 C 251.158,521.621 253.154,521.975 254.466,522.063 L 255.493,522.181 L 257.792,522.239 L 261.932,522.122 L 264.006,521.844 L 267.656,521.035 L 269.467,520.511 L 271.303,519.77 L 278.366,516.291 L 279.061,515.904 C 281.527,514.424 284.141,512.594 286.753,510.758 L 287.049,510.589 C 287.423,510.314 290.586,507.996 293.875,505.912 C 305.681,496.329 309.013,486.447 311.762,476.548 C 311.619,476.713 311.478,476.879 311.336,477.045 C 306.89,488.116 301.335,493.524 296.646,495.807 L 296.557,495.928 C 294.004,497.391 291.358,498.382 296.195,496.076 C 293.155,497.703 290.928,498.507 288.672,499.163 L 295.274,489.344 L 296.889,486.257 L 299.971,479.753 L 301.223,476.319 L 302.949,470.309 L 303.657,467.026 L 304.38,460.738 L 304.543,458.622 C 304.387,458.161 304.126,457.604 303.826,457.094 C 283.941,470.801 263.254,481.687 254.332,503.169 C 262.736,487.629 270.007,472.12 261.281,457.075 C 260.988,456.324 260.673,455.799 260.35,455.564 C 260.678,456.066 260.988,456.569 261.281,457.075 C 263.177,461.938 264.089,476.244 259.975,482.001 C 259.848,475.213 257.174,468.935 254.35,462.689 C 257.642,471.949 256.307,480.053 255.1,488.189 C 253.846,471.137 246.159,456.117 235.412,442.064 C 246.813,458.268 250.802,474.77 249.832,491.469 C 248.927,481.034 243.999,468.155 233.932,454.269 C 228.377,439.199 223.869,423.82 234.232,404.019 C 222.363,420.145 222.203,434.399 221.632,448.719 C 219.753,440.569 217.81,432.419 218.182,424.269 C 214.597,435.065 216.152,446.432 216.982,457.719 C 213.876,437.689 208.595,418.794 216.982,392.769 C 212.251,397.445 196.772,430.383 197.76,443.151 Z" fill="#cccccc" marker-start="none" marker-end="none"/>
     <path d="M 245.646,498.547 C 243.358,488.332 238.865,477.75 231.846,466.747 C 227.02,459.272 225.022,448.97 224.946,436.747 C 223.559,450.511 224.284,464.468 231.846,479.047 C 226.161,472.011 220.489,464.95 218.346,449.947 C 218.105,457.238 218.212,464.6 222.246,472.747 C 216.416,463.891 211.813,453.195 210.846,437.047 C 209.837,451.11 209.537,465.41 213.546,481.147 C 218.473,495.949 226.263,508.826 243.846,512.647 C 224.905,512.167 208.576,491.982 203.346,477.547 C 206.56,499.743 217.557,508.431 234.026,515.717 C 220.805,514.689 212.822,509.938 202.746,497.647 C 208.919,508.751 218.53,519.101 234.246,519.847 C 238.836,519.901 243.962,519.742 251.795,518.5 C 262.285,519.693 273.47,517.936 286.482,508.422 C 280.701,510.692 274.919,512.874 269.138,513.109 C 284.73,501.488 294.947,486.925 298.201,467.875 C 289.324,489.535 283.263,491.428 273.123,500.922 C 277.988,481.766 283.197,481.924 296.726,467.267 C 278.813,477.699 267.33,491.966 259.976,501.167 L 255.326,500.717 C 259.519,494.129 262.146,487.094 263.576,479.717 C 261.957,485.726 255.757,496.897 254.876,496.367 L 252.626,485.267 C 252.288,489.617 251.858,493.967 250.676,498.317 C 248.863,501.743 246.533,501.292 245.646,498.547 Z" fill="#999999" marker-start="none" marker-end="none"/>
    </g>
   </g>
   <g id="нога дальня 1">
    <g id="Group_15" stroke="none" stroke-width="0.5" stroke-miterlimit="79.8403193612775">
     <path d="M 219.826,311.726 C 227.751,294.913 237.932,277.018 248.744,258.82 C 251.004,252.75 255.945,246.427 254.847,239.179 C 257.05,220.245 286.486,221.52 278.226,250.01 C 275.03,272.834 267.854,298.159 258.732,323.609 L 249.452,331.206 C 243.983,331.029 233.048,330.676 232.721,330.495 C 232.394,330.314 226.41,325.235 226.382,323.682 C 226.356,322.129 222.002,315.194 219.826,311.726 Z" fill="#ccc57c" marker-start="none" marker-end="none"/>
     <path d="M 254.961,240.171 C 255.497,247.006 250.9,253.028 248.744,258.82 C 237.932,277.018 227.751,294.913 219.826,311.726 C 220.906,313.447 222.524,316.024 223.882,318.373 C 227.626,315.322 231.754,310.346 235.195,305.309 C 242.732,279.379 261.027,257.168 256.009,239.083 C 255.681,239.422 255.329,239.788 254.961,240.171 Z" fill="#9c9866" marker-start="none" marker-end="none"/>
     <path d="M 243.968,300.176 C 254.09,280.153 273.035,239.02 271.006,240.268 C 274.83,232.809 280.077,232.803 277.214,244.921 L 262.996,295.918 C 254.678,328.788 233.485,343.39 243.968,300.176 Z" fill="#dfdaac" marker-start="none" marker-end="none"/>
    </g>
   </g>
   <g id="нога дальняя2">
    <g id="Group_16" stroke="none" stroke-width="0.5" stroke-miterlimit="79.8403193612775">
     <path d="M 280.404,160.708 C 281.086,151.094 265.864,148.71 261.246,161.19 C 261.385,167.094 257.46,180.116 254.78,189.631 C 246.969,209.162 246.866,214.077 251.211,230.306 C 257.066,249.899 277.912,253.486 278.939,235.137 C 279.599,236.574 276.233,196.032 278.778,173.012 C 278.58,167.185 279.109,163.444 280.404,160.708 Z" fill="#ccc57c" marker-start="none" marker-end="none"/>
     <path d="M 272.108,163.044 C 267.179,188.74 268.525,213.127 269.552,231.298 C 269.125,233.788 267.914,246.957 269.562,246.873 C 269.786,246.945 270.009,246.998 270.231,247.033 C 274.845,246.411 278.521,242.578 278.939,235.137 C 279.378,236.092 278.034,218.458 277.836,199.768 C 276.843,183.857 276.388,169.826 279.536,161.041 C 280.854,157.961 273.652,147.081 272.108,163.044 Z" fill="#dfdaac" marker-start="none" marker-end="none"/>
     <path d="M 264.847,162.784 L 255.187,203.389 C 251.74,217.298 253.699,225.175 257.673,228.265 C 264.591,209.914 260.938,187.97 265.102,162.848 C 265.016,162.829 264.932,162.805 264.847,162.784 Z" fill="#9c9866" marker-start="none" marker-end="none"/>
     <path d="M 282.597,160.337 C 282.621,160.359 282.646,160.381 282.67,160.404 C 282.752,160.378 282.833,160.35 282.914,160.321 C 282.807,160.327 282.701,160.332 282.597,160.337 Z" fill="#3a343a" marker-start="none" marker-end="none"/>
     <path d="M 274.167,216.966 C 271.689,217.171 268.937,218.426 266.342,220.209 C 261.122,223.794 255.242,227.957 252.892,234.974 C 251.463,237.977 253.027,238.93 255.222,239.452 C 257.264,233.354 263.908,226.595 268.543,223.412 C 270.874,221.81 272.968,220.965 274.488,220.839 C 275.828,220.729 278.185,222.738 278.572,223.666 C 280.765,223.825 280.975,221.016 280.47,220.56 C 279.306,217.774 276.844,216.745 274.167,216.966 Z" fill="#3a343a" marker-start="none" marker-end="none"/>
     <path d="M 248.854,207.704 C 247.088,209.22 247.755,210.44 248.99,211.588 C 250.542,211.533 252.609,212.344 255.215,214.042 C 257.748,215.692 260.458,217.957 263.241,220.345 C 265.981,222.697 268.804,225.183 271.43,227.119 C 273.975,228.994 276.696,230.643 279.257,230.935 C 281.493,229.861 280.862,228.493 279.696,227.073 C 278.293,226.914 276.31,225.887 273.737,223.991 C 271.259,222.165 268.583,219.81 265.773,217.397 C 263.005,215.021 260.114,212.596 257.337,210.786 C 254.628,209.022 251.686,207.605 248.854,207.704 Z" fill="#3a343a" marker-start="none" marker-end="none"/>
     <path d="M 276.595,189.541 C 274.344,188.852 271.408,189.081 268.388,189.877 C 262.309,191.476 255.409,193.398 250.386,199.343 C 247.866,201.736 248.828,203.218 250.527,204.507 C 254.892,199.339 263.557,195.182 268.952,193.763 C 271.667,193.048 273.854,192.978 275.235,193.401 C 276.453,193.773 277.661,196.56 277.605,197.596 C 279.452,198.535 280.827,195.892 280.577,195.271 C 280.743,192.16 279.028,190.285 276.595,189.541 Z" fill="#3a343a" marker-start="none" marker-end="none"/>
     <path d="M 254.748,183.635 C 253.22,185.13 253.659,186.17 254.554,187.101 C 255.797,186.932 257.385,187.497 259.332,188.814 C 261.225,190.095 263.212,191.91 265.247,193.833 C 267.25,195.724 269.31,197.73 271.256,199.258 C 273.139,200.739 275.182,202.002 277.204,202.065 C 279.073,200.93 278.675,199.755 277.856,198.574 C 276.748,198.54 275.246,197.776 273.339,196.278 C 271.504,194.836 269.552,192.938 267.497,190.994 C 265.472,189.085 263.353,187.139 261.279,185.736 C 259.254,184.367 257.016,183.327 254.748,183.635 Z" fill="#3a343a" marker-start="none" marker-end="none"/>
     <path d="M 276.9,166.319 C 275.141,165.957 272.93,166.344 270.695,167.166 C 266.197,168.818 261.099,170.774 257.716,175.647 C 255.976,177.645 256.813,178.701 258.196,179.557 C 261.135,175.32 267.411,171.54 271.404,170.074 C 273.412,169.336 275.066,169.124 276.146,169.346 C 277.097,169.541 278.215,171.568 278.247,172.359 C 279.717,172.939 280.569,170.834 280.334,170.38 C 280.237,168.008 278.8,166.708 276.9,166.319 Z" fill="#3a343a" marker-start="none" marker-end="none"/>
     <path d="M 259.894,163.413 C 258.842,164.657 259.25,165.415 259.997,166.057 C 260.928,165.838 262.173,166.153 263.745,167.012 C 265.275,167.847 266.914,169.082 268.597,170.395 C 270.254,171.685 271.962,173.059 273.549,174.078 C 275.084,175.066 276.726,175.878 278.266,175.78 C 279.602,174.784 279.214,173.921 278.508,173.083 C 277.665,173.137 276.47,172.666 274.915,171.667 C 273.418,170.705 271.799,169.405 270.099,168.078 C 268.425,166.774 266.676,165.45 265.002,164.535 C 263.367,163.643 261.593,163.014 259.894,163.413 Z" fill="#3a343a" marker-start="none" marker-end="none"/>
     <path d="M 274.259,166.894 C 273.718,166.922 273.169,166.999 272.624,167.119 C 271.923,167.272 271.218,167.472 270.542,167.707 C 270.181,167.831 269.825,167.966 269.475,168.11 C 268.664,167.504 267.851,166.904 267.01,166.324 C 264.961,164.906 262.547,163.333 260.222,163.713 L 260.254,164.228 C 261.965,164.17 263.769,165.481 265.17,166.537 C 265.58,166.846 265.98,167.159 266.384,167.481 C 266.926,167.912 267.471,168.341 268.023,168.763 C 267.722,168.911 267.423,169.062 267.131,169.217 C 265.358,170.145 263.734,171.229 262.092,172.344 L 262.357,172.799 C 263.02,172.459 263.702,172.155 264.383,171.838 C 265.568,171.283 266.746,170.75 267.943,170.22 C 268.37,170.031 268.801,169.849 269.236,169.674 C 270.595,170.669 272.012,171.619 273.558,172.487 C 274.647,173.097 275.759,173.661 276.859,174.149 C 277.353,174.367 277.839,174.554 278.331,174.771 L 278.568,174.301 C 276.203,172.909 273.99,171.403 271.851,169.865 C 271.494,169.608 271.142,169.349 270.791,169.09 C 270.981,169.023 271.172,168.958 271.363,168.895 C 272.164,168.627 273.018,168.385 273.832,168.262 C 275.294,168.04 276.716,168.002 278.083,168.918 C 278.284,169.052 278.47,169.216 278.631,169.376 C 279.001,169.741 279.286,170.138 279.552,170.577 L 280.015,170.346 C 279.775,169.785 279.529,169.278 279.167,168.806 C 278.937,168.503 278.664,168.243 278.364,167.992 C 278.034,167.715 277.602,167.478 277.198,167.314 C 276.223,166.917 275.254,166.842 274.259,166.894 Z M 274.278,190.129 C 271.97,189.892 269.503,190.364 267.146,191.121 C 266.993,190.993 266.84,190.867 266.685,190.743 C 264.934,189.33 263.057,187.983 260.977,186.808 C 259.821,186.155 258.672,185.576 257.512,185.046 C 256.916,184.774 256.298,184.534 255.703,184.274 L 255.475,184.75 C 255.934,184.98 256.383,185.253 256.822,185.509 C 257.577,185.949 258.317,186.396 259.052,186.864 C 261.397,188.358 263.554,189.962 265.614,191.656 C 265.152,191.829 264.697,192.011 264.251,192.196 C 261.411,193.378 258.78,194.836 256.168,196.368 L 256.409,196.838 C 257.445,196.358 258.514,195.924 259.571,195.478 C 261.356,194.724 263.163,194.009 265,193.328 C 265.61,193.1 266.221,192.886 266.839,192.686 C 268.285,193.93 269.675,195.22 271.12,196.446 C 272.533,197.642 273.98,198.792 275.752,199.746 C 276.382,200.085 277.019,200.348 277.646,200.599 L 277.866,200.131 C 276.937,199.615 276.097,199.079 275.298,198.485 C 273.594,197.215 272.157,195.729 270.66,194.316 C 269.915,193.61 269.169,192.903 268.399,192.209 C 268.733,192.113 269.067,192.023 269.404,191.935 C 270.04,191.769 270.677,191.636 271.315,191.523 C 271.797,191.436 272.296,191.371 272.776,191.332 C 273.912,191.239 275.061,191.252 276.174,191.6 C 276.606,191.734 277.063,191.917 277.482,192.188 C 277.715,192.34 277.951,192.506 278.15,192.683 C 278.544,193.03 278.871,193.418 279.153,193.841 L 279.597,193.575 C 279.251,192.904 278.852,192.316 278.292,191.797 C 278.114,191.632 277.931,191.484 277.727,191.337 C 276.672,190.575 275.419,190.244 274.278,190.129 Z M 275.78,218.252 C 273.574,218.167 271.177,218.947 269.146,219.899 C 268.943,219.992 268.741,220.09 268.541,220.188 C 267.231,219.151 265.921,218.112 264.598,217.08 C 263.38,216.128 262.173,215.172 260.922,214.259 C 259.813,213.448 258.749,212.634 257.604,211.866 C 257.042,211.487 256.488,211.108 255.895,210.765 L 255.291,210.434 L 254.79,210.154 C 253.6,209.511 252.391,209.026 251.19,208.706 C 250.589,208.543 249.982,208.44 249.387,208.339 L 249.289,208.858 C 249.824,208.943 250.367,209.14 250.901,209.325 C 253.092,210.083 255.238,211.531 257.04,212.893 C 257.482,213.226 257.922,213.57 258.359,213.914 C 259.077,214.477 259.782,215.036 260.489,215.597 C 262.709,217.356 264.941,219.129 267.226,220.866 C 264.402,222.398 261.789,224.297 259.427,226.467 C 258.587,227.238 257.773,228.043 257.026,228.949 C 256.599,229.466 256.094,230.082 255.86,230.757 L 256.33,230.972 C 256.664,230.297 257.224,229.804 257.721,229.321 C 258.533,228.527 259.421,227.821 260.305,227.125 C 261.774,225.966 263.313,224.891 264.899,223.883 C 266.062,223.143 267.232,222.431 268.439,221.781 C 269.297,222.421 270.163,223.057 271.04,223.684 C 272.668,224.846 274.362,225.959 276.13,227.033 C 277.232,227.702 278.386,228.252 279.495,228.581 L 279.648,228.088 C 278.853,227.793 278.04,227.299 277.312,226.828 C 276.208,226.111 275.192,225.36 274.166,224.58 C 272.67,223.44 271.194,222.283 269.722,221.122 C 269.771,221.098 269.82,221.074 269.869,221.051 C 271.347,220.338 273,219.635 274.67,219.362 C 275.305,219.257 275.941,219.194 276.564,219.281 C 276.839,219.319 277.112,219.372 277.39,219.465 C 278.236,219.749 278.927,220.401 279.24,221.134 L 279.719,220.914 C 279.608,220.686 279.525,220.456 279.395,220.236 C 279.135,219.794 278.825,219.457 278.407,219.117 C 278.175,218.928 277.865,218.759 277.584,218.647 C 276.987,218.407 276.387,218.275 275.78,218.252 Z" fill="#735f88" marker-start="none" marker-end="none"/>
    </g>
   </g>
   <g id="нога дальняя 3">
    <g id="Group_17" stroke="none" stroke-width="0.5" stroke-miterlimit="79.8403193612775">
     <path d="M 293.406,131.98 C 275.459,140.866 271.251,133.884 264.681,134.135 C 256.75,134.375 255.52,146.64 261.401,157.22 C 261.507,158.046 261.452,159.238 261.265,160.697 C 268.239,163.556 275.331,163.727 282.64,158.949 C 286.655,151.671 295.359,150.751 312.679,139.41 C 321.467,135.42 321.914,138.884 329.842,136.082 C 331.819,132.434 331.928,129.765 326.334,127.763 C 316.85,126.056 315.518,119.502 293.406,131.98 Z" fill="#ccc57c" marker-start="none" marker-end="none"/>
     <path d="M 307.156,129.739 C 292.311,132.478 278.464,142.215 274.522,150.579 C 272.93,154.625 271.508,158.676 270.233,162.712 C 273.9,162.797 277.61,161.907 281.377,159.726 C 283.194,155.788 285.363,152.764 288.047,150.89 C 302.629,143.16 312.554,137.239 320.497,135.885 C 324.941,136.85 326.482,135.991 325.713,133.677 C 320.908,128.622 313.29,129.202 307.156,129.739 Z" fill="#dfdaac" marker-start="none" marker-end="none"/>
     <path d="M 313.774,123.06 C 311.08,123.158 308.534,123.655 306.113,124.324 C 305.203,124.574 304.264,124.816 303.428,125.214 C 302.014,125.883 300.598,126.563 299.175,127.202 C 297.357,128.017 295.528,128.801 293.673,129.531 C 289.893,131.019 286.001,132.32 281.893,133.108 C 279.87,133.496 277.726,133.776 275.509,133.752 C 274.171,133.736 272.846,133.658 271.576,133.496 C 270.535,133.363 269.504,133.169 268.476,132.979 C 266.761,132.661 264.804,132.279 263.015,132.6 C 261.07,132.948 258.395,134.466 256.972,135.853 C 255.355,138.402 256.248,140.804 257.819,143.076 C 257.912,141.533 257.906,140.006 258.989,138.322 C 260.23,137.296 261.67,136.565 263.342,136.394 C 264.074,136.318 264.829,136.429 265.505,136.547 C 266.364,136.695 267.169,136.912 268.001,137.13 C 270.277,137.723 272.591,138.213 275.092,138.332 C 279.116,138.522 282.9,137.964 286.425,137.038 C 290.627,135.931 294.64,134.417 298.494,132.592 C 300.099,131.831 301.684,131.055 303.252,130.225 L 305.287,129.126 L 307.373,128.345 C 309.605,127.578 311.925,126.994 314.377,126.664 C 315.195,126.553 316.023,126.507 316.88,126.467 C 317.567,126.434 318.265,126.451 318.937,126.493 C 322.435,126.707 325.474,127.651 328.325,129.15 C 329.136,129.576 329.955,130.047 330.696,130.611 C 331.23,131.678 331.175,132.896 330.76,134.203 C 331.571,132.616 331.831,131.029 331.582,129.443 C 331.179,129.134 330.793,128.774 330.402,128.449 C 329.712,127.873 328.981,127.361 328.25,126.878 C 326.148,125.489 323.781,124.411 321.294,123.806 C 318.935,123.231 316.38,122.965 313.774,123.06 Z" fill="#3a343a" marker-start="none" marker-end="none"/>
     <path d="M 315.142,125.368 L 309.936,127.339 C 310.47,132.177 311.899,136.317 314.512,139.534 C 316.387,139.868 317.598,138.903 318.615,137.563 L 315.142,125.368 Z" fill="#3a343a" marker-start="none" marker-end="none"/>
     <path d="M 284.104,158.19 C 284.298,158.172 284.493,158.152 284.692,158.133 C 286.642,157.702 287.916,156.085 288.259,152.84 C 284.262,148.178 281.371,143.2 280.72,137.584 L 272.823,137.584 C 275.178,144.453 278.927,151.322 284.104,158.19 Z" fill="#3a343a" marker-start="none" marker-end="none"/>
     <path d="M 284.367,151.252 L 287.837,154.363 C 299.352,147.879 307.648,139.606 313.834,130.162 L 310.616,128.128 C 304.625,136.386 296.276,144.175 284.367,151.252 Z" fill="#3a343a" marker-start="none" marker-end="none"/>
     <path d="M 313.201,139.213 C 303.328,142.528 292.452,142.426 281.057,140.553 L 281.669,145.155 C 295.15,146.867 313.617,146.967 313.201,139.213 Z" fill="#3a343a" marker-start="none" marker-end="none"/>
     <path d="M 259.901,153.917 C 259.073,156.13 259.101,158.345 261.157,160.558 C 266.282,155.218 272.694,150.906 280.181,147.455 L 278.028,144.046 C 270.968,145.809 265.063,149.308 259.901,153.917 Z" fill="#3a343a" marker-start="none" marker-end="none"/>
     <path d="M 313.106,126.818 L 312.559,126.985 L 313.09,129.962 L 313.854,132.87 L 314.848,135.705 L 316.071,138.474 L 316.63,138.303 L 316.091,135.326 L 315.328,132.418 L 314.333,129.583 L 313.106,126.818 Z M 300.513,140.765 C 299.742,141.493 298.967,142.211 298.19,142.922 C 292.917,143.149 287.501,143.056 282.124,143.056 L 282.087,143.628 C 285.671,144.094 289.32,144.477 293.104,144.535 C 294.222,144.551 295.333,144.547 296.433,144.519 C 296.135,144.789 295.836,145.058 295.537,145.329 C 292.935,147.679 290.225,149.878 287.538,152.084 L 287.873,152.549 C 288.712,152.008 289.555,151.478 290.387,150.918 C 293.303,148.954 296.15,146.8 298.85,144.41 C 300.598,144.298 302.312,144.112 303.975,143.83 C 305.669,143.543 307.318,143.185 308.918,142.711 C 309.617,142.504 310.28,142.252 310.973,142.044 L 310.816,141.481 C 309.628,141.763 308.412,141.968 307.178,142.145 C 305.037,142.449 302.841,142.652 300.616,142.793 C 300.744,142.672 300.871,142.551 300.998,142.429 C 302.965,140.533 304.884,138.571 306.623,136.534 C 307.481,135.528 308.326,134.522 309.125,133.488 C 309.827,132.579 310.499,131.66 311.191,130.75 L 310.741,130.376 C 307.483,133.917 304.034,137.432 300.513,140.765 Z M 276.962,138.372 L 276.39,138.495 C 276.485,139.099 276.548,139.693 276.649,140.289 C 276.831,141.361 277.083,142.411 277.382,143.428 C 278.857,148.459 281.592,152.81 285.149,156.821 L 285.612,156.482 C 282.956,152.083 280.426,147.579 278.526,142.83 C 278.118,141.808 277.739,140.764 277.389,139.724 C 277.24,139.28 277.083,138.83 276.962,138.372 Z M 271.49,149.69 C 267.715,151.505 264.282,153.942 261.069,156.87 L 261.412,157.329 C 265.075,155.087 268.761,152.902 272.482,150.809 C 273.484,150.245 274.501,149.715 275.518,149.182 C 276.438,148.698 277.362,148.214 278.306,147.77 L 278.096,147.225 C 275.797,147.893 273.61,148.669 271.49,149.69 Z" fill="#735f88" marker-start="none" marker-end="none"/>
    </g>
   </g>
   <g id="нога ближ 1">
    <g id="Group_18" stroke="none" stroke-width="0.5" stroke-miterlimit="79.8403193612775">
     <path d="M 193.807,317.517 C 192.388,296.042 192.645,272.203 193.37,247.702 C 192.248,240.288 193.699,231.109 188.515,224.387 C 180.11,203.978 210.632,188.734 218.273,222.221 C 227.857,247.127 234.818,276.801 239.877,307.694 L 234.748,320.6 C 229.111,323.493 217.841,329.279 217.408,329.279 C 216.975,329.279 208.063,327.498 207.163,325.941 C 206.263,324.383 197.959,319.806 193.807,317.517 Z" fill="#ccc57c" marker-start="none" marker-end="none"/>
     <path d="M 189.188,225.328 C 193.571,231.948 192.299,240.628 193.37,247.702 C 192.645,272.203 192.388,296.042 193.807,317.517 C 195.868,318.653 198.954,320.354 201.648,321.969 C 203.725,316.777 205.11,309.42 205.765,302.387 C 198.831,271.897 204.879,239.13 189.639,223.637 C 189.497,224.165 189.346,224.732 189.188,225.328 Z" fill="#9c9866" marker-start="none" marker-end="none"/>
     <path d="M 211.765,292.261 C 210.767,266.301 206.843,214.009 205.489,216.412 C 205.172,206.711 210.481,203.758 214.389,217.637 L 228.639,277.261 C 238.682,315.215 225.425,341.907 211.765,292.261 Z" fill="#dfdaac" marker-start="none" marker-end="none"/>
    </g>
   </g>
   <g id="нога ближ 2">
    <g id="Group_19" stroke="none" stroke-width="0.5" stroke-miterlimit="79.8403193612775">
     <path d="M 170.313,130.574 C 165.604,120.456 148.852,126.593 151.186,141.825 C 154.643,147.724 157.984,163.115 160.615,174.255 C 163.677,198.418 166.334,203.453 179.85,217.445 C 196.785,233.995 219.907,225.917 210.639,206.761 C 212.116,207.845 185.933,168.686 175.579,143.947 C 172.106,138.158 170.539,134.073 170.313,130.574 Z" fill="#ccc57c" marker-start="none" marker-end="none"/>
     <path d="M 163.226,137.6 C 172.669,166.388 187.732,190.325 198.979,208.147 C 199.944,210.908 206.116,224.923 207.739,223.912 C 208.005,223.859 208.26,223.787 208.505,223.698 C 212.828,220.477 214.397,214.53 210.639,206.761 C 211.621,207.482 200.354,190.38 189.655,171.568 C 179.712,156.015 171.369,142.063 169.622,131.399 C 169.226,127.541 155.822,120.569 163.226,137.6 Z" fill="#dfdaac" marker-start="none" marker-end="none"/>
     <path d="M 155.727,141.415 L 168.756,187.957 C 173.078,203.976 179.487,210.852 185.247,211.749 C 181.943,189.281 165.917,169.114 156.022,141.338 C 155.924,141.365 155.825,141.39 155.727,141.415 Z" fill="#9c9866" marker-start="none" marker-end="none"/>
     <path d="M 172.325,128.967 C 172.362,128.975 172.4,128.984 172.437,128.993 C 172.506,128.921 172.572,128.848 172.637,128.773 C 172.532,128.839 172.428,128.903 172.325,128.967 Z" fill="#3a343a" marker-start="none" marker-end="none"/>
     <path d="M 195.601,191.042 C 193.206,192.642 191.125,195.459 189.499,198.721 C 186.227,205.284 182.612,212.802 184.174,221.227 C 184.414,225.071 186.533,225.157 189.049,224.452 C 187.691,217.131 190.622,206.555 193.526,200.729 C 194.988,197.797 196.632,195.765 198.101,194.784 C 199.396,193.919 202.911,194.63 203.824,195.352 C 206.134,194.281 204.769,191.319 204.001,191.14 C 201.258,188.973 198.187,189.315 195.601,191.042 Z" fill="#3a343a" marker-start="none" marker-end="none"/>
     <path d="M 164.767,195.883 C 163.831,198.411 165.191,199.271 167.086,199.74 C 168.628,198.812 171.176,198.472 174.768,198.728 C 178.26,198.976 182.276,199.746 186.436,200.602 C 190.531,201.444 194.786,202.375 198.533,202.86 C 202.163,203.33 205.844,203.471 208.601,202.327 C 210.262,199.984 208.855,198.954 206.876,198.17 C 205.367,198.797 202.782,198.872 199.111,198.397 C 195.576,197.94 191.544,197.059 187.343,196.194 C 183.206,195.343 178.916,194.512 175.088,194.239 C 171.354,193.974 167.579,194.192 164.767,195.883 Z" fill="#3a343a" marker-start="none" marker-end="none"/>
     <path d="M 182.653,161.909 C 179.987,162.475 177.143,164.357 174.532,166.859 C 169.275,171.893 163.368,177.715 161.622,186.557 C 160.414,190.395 162.221,191.355 164.665,191.706 C 166.182,184.022 172.62,174.945 177.286,170.477 C 179.633,168.228 181.808,166.929 183.445,166.581 C 184.887,166.274 187.676,168.417 188.201,169.498 C 190.599,169.411 190.507,165.963 189.904,165.474 C 188.325,162.231 185.534,161.296 182.653,161.909 Z" fill="#3a343a" marker-start="none" marker-end="none"/>
     <path d="M 157.215,168.202 C 156.508,170.573 157.536,171.38 158.965,171.82 C 160.129,170.95 162.053,170.63 164.765,170.87 C 167.402,171.104 170.433,171.826 173.574,172.629 C 176.664,173.419 179.877,174.293 182.706,174.747 C 185.444,175.189 188.223,175.321 190.306,174.248 C 191.56,172.049 190.497,171.083 189.004,170.347 C 187.864,170.935 185.913,171.006 183.141,170.56 C 180.473,170.131 177.43,169.305 174.257,168.492 C 171.134,167.695 167.896,166.915 165.007,166.66 C 162.188,166.411 159.338,166.615 157.215,168.202 Z" fill="#3a343a" marker-start="none" marker-end="none"/>
     <path d="M 169.917,138.225 C 167.934,138.846 165.911,140.48 164.111,142.567 C 160.484,146.767 156.421,151.611 155.733,158.446 C 155.093,161.446 156.534,162.045 158.414,162.135 C 159.011,156.194 163.242,148.841 166.461,145.114 C 168.08,143.238 169.637,142.095 170.854,141.713 C 171.927,141.376 174.198,142.801 174.674,143.584 C 176.488,143.345 176.169,140.735 175.676,140.407 C 174.245,138.06 172.059,137.551 169.917,138.225 Z" fill="#3a343a" marker-start="none" marker-end="none"/>
     <path d="M 151.065,144.835 C 150.699,146.685 151.538,147.224 152.655,147.454 C 153.475,146.71 154.912,146.329 156.987,146.315 C 159.005,146.302 161.358,146.632 163.799,147.015 C 166.202,147.391 168.703,147.823 170.883,147.963 C 172.992,148.101 175.111,148.001 176.615,147.037 C 177.408,145.278 176.531,144.621 175.345,144.17 C 174.522,144.698 173.047,144.893 170.911,144.754 C 168.855,144.621 166.486,144.214 164.019,143.826 C 161.592,143.446 159.078,143.088 156.868,143.102 C 154.711,143.117 152.562,143.477 151.065,144.835 Z" fill="#3a343a" marker-start="none" marker-end="none"/>
     <path d="M 167.566,140.29 C 167.034,140.622 166.521,141.009 166.037,141.436 C 165.413,141.985 164.812,142.584 164.259,143.201 C 163.963,143.53 163.679,143.866 163.405,144.208 C 162.244,144.051 161.083,143.9 159.906,143.785 C 157.035,143.501 153.707,143.263 151.566,144.954 L 151.888,145.458 C 153.588,144.437 156.151,144.751 158.163,145.034 C 158.752,145.116 159.332,145.209 159.921,145.308 C 160.713,145.44 161.506,145.568 162.302,145.686 C 162.08,146.004 161.863,146.325 161.653,146.646 C 160.379,148.582 159.344,150.592 158.308,152.643 L 158.832,152.955 C 159.312,152.239 159.832,151.548 160.343,150.844 C 161.232,149.616 162.126,148.415 163.04,147.206 C 163.365,146.775 163.699,146.348 164.042,145.926 C 165.977,146.171 167.946,146.337 169.999,146.347 C 171.444,146.353 172.886,146.299 174.274,146.175 C 174.897,146.119 175.494,146.035 176.114,145.979 L 176.09,145.369 C 172.913,145.289 169.827,145.007 166.797,144.651 C 166.291,144.591 165.789,144.527 165.288,144.461 C 165.444,144.287 165.6,144.114 165.758,143.943 C 166.418,143.222 167.147,142.497 167.903,141.915 C 169.258,140.869 170.676,140.032 172.575,140.191 C 172.854,140.214 173.134,140.276 173.387,140.347 C 173.967,140.509 174.478,140.751 174.994,141.046 L 175.334,140.552 C 174.776,140.118 174.242,139.743 173.61,139.468 C 173.207,139.292 172.784,139.181 172.34,139.096 C 171.85,139.001 171.279,139.004 170.778,139.065 C 169.568,139.21 168.544,139.678 167.566,140.29 Z M 180.637,163.806 C 178.168,164.863 175.934,166.726 173.973,168.817 C 173.747,168.773 173.521,168.732 173.294,168.693 C 170.728,168.246 168.07,167.936 165.304,167.915 C 163.767,167.903 162.278,167.962 160.806,168.078 C 160.049,168.137 159.29,168.241 158.541,168.312 L 158.577,168.922 C 159.171,168.897 159.779,168.921 160.367,168.934 C 161.379,168.955 162.379,168.993 163.386,169.054 C 166.6,169.248 169.685,169.661 172.722,170.219 C 172.352,170.654 171.993,171.093 171.646,171.532 C 169.434,174.323 167.589,177.278 165.805,180.297 L 166.313,180.637 C 167.093,179.569 167.931,178.528 168.75,177.484 C 170.134,175.718 171.563,173.978 173.04,172.256 C 173.529,171.684 174.029,171.124 174.541,170.574 C 176.705,171.022 178.836,171.547 180.989,171.976 C 183.091,172.394 185.202,172.745 187.532,172.716 C 188.361,172.705 189.153,172.614 189.929,172.516 L 189.889,171.918 C 188.659,171.918 187.507,171.847 186.365,171.694 C 183.926,171.366 181.635,170.668 179.326,170.077 C 178.175,169.782 177.023,169.484 175.854,169.215 C 176.137,168.931 176.425,168.651 176.717,168.373 C 177.267,167.847 177.838,167.354 178.42,166.882 C 178.86,166.523 179.328,166.177 179.792,165.868 C 180.891,165.135 182.061,164.504 183.384,164.231 C 183.897,164.124 184.462,164.052 185.038,164.092 C 185.359,164.114 185.691,164.15 185.993,164.217 C 186.587,164.347 187.136,164.556 187.659,164.826 L 187.959,164.308 C 187.232,163.823 186.498,163.451 185.639,163.24 C 185.366,163.173 185.097,163.126 184.809,163.092 C 183.312,162.913 181.858,163.282 180.637,163.806 Z M 197.956,191.439 C 195.675,192.592 193.686,194.728 192.164,196.832 C 192.011,197.041 191.861,197.253 191.714,197.465 C 189.804,197.151 187.894,196.835 185.975,196.533 C 184.208,196.254 182.449,195.963 180.668,195.741 C 179.09,195.543 177.556,195.317 175.965,195.182 C 175.183,195.115 174.409,195.042 173.615,195.027 L 172.818,195.032 L 172.153,195.03 C 170.588,195.048 169.091,195.235 167.695,195.585 C 166.995,195.759 166.322,195.995 165.663,196.227 L 165.855,196.807 C 166.445,196.593 167.106,196.487 167.75,196.375 C 170.394,195.912 173.381,196.173 175.971,196.539 C 176.604,196.628 177.244,196.73 177.879,196.832 C 178.923,196.999 179.951,197.169 180.981,197.34 C 184.218,197.874 187.474,198.415 190.764,198.89 C 188.765,202.028 187.186,205.419 186.013,208.942 C 185.595,210.195 185.223,211.467 184.976,212.804 C 184.834,213.568 184.668,214.476 184.81,215.29 L 185.408,215.244 C 185.366,214.373 185.657,213.559 185.888,212.791 C 186.265,211.531 186.767,210.317 187.271,209.116 C 188.108,207.116 189.062,205.164 190.102,203.252 C 190.864,201.849 191.648,200.472 192.505,199.135 C 193.734,199.302 194.967,199.459 196.208,199.601 C 198.51,199.864 200.85,200.038 203.243,200.133 C 204.735,200.192 206.212,200.1 207.52,199.81 L 207.398,199.224 C 206.427,199.373 205.326,199.33 204.325,199.261 C 202.804,199.156 201.354,198.966 199.877,198.752 C 197.721,198.438 195.577,198.097 193.434,197.747 C 193.47,197.695 193.506,197.644 193.543,197.593 C 194.639,196.041 195.919,194.401 197.455,193.186 C 198.039,192.723 198.648,192.302 199.328,192.04 C 199.628,191.923 199.934,191.824 200.268,191.763 C 201.284,191.574 202.351,191.847 203.078,192.413 L 203.44,191.921 C 203.199,191.752 202.986,191.566 202.731,191.416 C 202.22,191.115 201.716,190.948 201.102,190.839 C 200.761,190.778 200.352,190.781 200.005,190.825 C 199.266,190.918 198.583,191.121 197.956,191.439 Z" fill="#735f88" marker-start="none" marker-end="none"/>
    </g>
   </g>
   <g id="нога ближ 3">
    <g id="Group_20" stroke="none" stroke-width="0.5" stroke-miterlimit="79.8403193612775">
     <path d="M 156.574,93.953 C 146.686,113.109 145.659,113.047 139.864,117.224 C 132.825,122.207 137.374,132.994 150.388,139.461 C 150.78,139.865 151.171,140.409 151.561,141.075 C 157.602,141.51 163.957,138.014 170.688,129.824 C 170.093,120.631 178.752,115.489 186.382,94.138 C 189.63,88.827 197.961,92.451 197.332,83.485 C 195.966,76.019 167.18,66.365 156.574,93.953 Z" fill="#ccc57c" marker-start="none" marker-end="none"/>
     <path d="M 175.054,89.197 C 164.306,100.738 158.753,117.526 160.654,126.997 C 161.557,130.34 162.544,133.625 163.601,136.85 C 165.695,135.255 167.827,133.197 169.997,130.649 C 169.456,127.341 169.549,124.349 170.427,121.724 C 176.743,105.438 183.241,93.66 190.054,89.797 C 194.382,87.84 195.14,86.159 193.054,84.697 C 185.876,83.448 179.866,84.927 175.054,89.197 Z" fill="#dfdaac" marker-start="none" marker-end="none"/>
     <path d="M 156.574,93.953 C 146.686,113.109 145.659,113.047 139.864,117.224 C 132.825,122.207 137.374,132.994 150.388,139.461 C 150.461,139.537 150.535,139.618 150.609,139.704 L 150.739,139.537 C 142.455,127.698 151.766,121.148 154.864,115.349 C 156.476,106.103 168.527,86.162 169.864,87.037 C 180.128,78.869 188.475,80.282 187.131,76.386 C 179.75,73.622 163.865,74.986 156.574,93.953 Z" fill="#9c9866" marker-start="none" marker-end="none"/>
     <path d="M 154.403,134.595 L 156.102,140.665 C 156.2,140.64 156.299,140.615 156.397,140.588 C 155.7,138.63 155.033,136.633 154.403,134.595 Z" fill="#9c9866" marker-start="none" marker-end="none"/>
     <path d="M 172.022,75.785 C 169.962,76.608 167.956,77.778 166.143,79.261 C 164.268,80.792 162.753,82.556 161.436,84.387 C 160.942,85.074 160.42,85.771 160.071,86.534 C 159.478,87.822 158.892,89.12 158.274,90.389 C 157.484,92.009 156.666,93.611 155.795,95.185 C 154.022,98.391 152.048,101.512 149.594,104.348 C 148.386,105.744 147.022,107.121 145.413,108.299 C 144.441,109.009 141.476,111.834 140.618,112.241 C 139.183,112.918 137.534,114.425 136.451,115.642 C 132.831,117.991 133.65,127.606 135.037,129.235 C 136.348,130.917 138.32,131.493 140.327,131.677 C 137.222,126.852 136.845,125.289 136.982,123.727 C 137.224,122.253 137.998,119.476 139.092,118.439 C 139.57,117.985 140.182,116.914 140.744,116.641 C 141.454,116.294 142.171,116.029 142.908,115.751 C 144.919,114.986 146.144,113.371 148.016,112.114 C 151.03,110.09 153.397,107.61 155.344,104.981 C 157.663,101.845 159.588,98.491 161.203,94.981 C 161.872,93.518 162.52,92.054 163.121,90.557 L 163.887,88.597 L 164.892,86.859 C 166.01,85.052 167.308,83.341 168.861,81.76 C 169.38,81.231 169.946,80.748 170.535,80.253 C 171.009,79.856 171.521,79.493 172.03,79.163 C 174.682,77.442 177.465,76.541 180.465,76.177 C 181.317,76.073 182.205,76 183.095,76.041 C 190.097,76.681 194.47,78.995 197.301,82.992 C 195.96,78.936 192.535,75.719 182.992,74.648 C 182.505,74.623 181.999,74.549 181.512,74.505 C 180.652,74.427 179.801,74.421 178.971,74.437 C 176.578,74.483 174.193,74.916 172.022,75.785 Z" fill="#3a343a" marker-start="none" marker-end="none"/>
     <path d="M 167.879,78.633 L 165.044,83.712 C 168.726,87.218 182.878,96.24 187.13,97.053 C 188.854,96.059 189.172,94.473 189.084,92.717 L 167.879,78.633 Z" fill="#3a343a" marker-start="none" marker-end="none"/>
     <path d="M 148.778,107.994 L 142.467,113.308 C 148.954,117.201 163.909,126.161 172.7,128.217 C 172.803,128.153 172.907,128.089 173.012,128.023 C 174.471,126.337 174.489,124.119 172.489,121.162 C 166.158,120.126 153.077,112.044 148.778,107.994 Z" fill="#3a343a" marker-start="none" marker-end="none"/>
     <path d="M 176.059,85.595 L 172.118,86.135 C 172.888,96.765 171.457,108.607 166.702,122.275 L 171.568,122.426 C 176.407,109.498 177.47,97.304 176.059,85.595 Z" fill="#3a343a" marker-start="none" marker-end="none"/>
     <path d="M 158.732,115.952 L 162.318,119.219 C 174.242,111.516 189.068,99.17 183.518,93.253 C 177.859,102.545 169.099,109.782 158.732,115.952 Z" fill="#3a343a" marker-start="none" marker-end="none"/>
     <path d="M 145.005,135.805 C 145.832,138.13 147.345,139.881 150.477,140.267 C 150.98,132.552 153.202,124.791 156.864,116.995 L 152.849,115.719 C 148.393,121.879 146.029,128.648 145.005,135.805 Z" fill="#3a343a" marker-start="none" marker-end="none"/>
     <path d="M 168.111,83.318 L 167.757,83.816 C 168.514,84.429 169.253,85.069 170.01,85.671 C 171.363,86.747 172.754,87.775 174.162,88.733 C 177.012,90.672 179.996,92.338 183.138,93.71 C 184.494,94.302 185.891,94.782 187.319,95.243 L 187.549,94.691 C 186.073,93.915 184.608,93.122 183.153,92.305 C 180.268,90.684 177.457,88.929 174.616,87.227 C 173.467,86.538 172.329,85.835 171.179,85.147 C 170.158,84.536 169.122,83.939 168.111,83.318 Z M 174.427,90.076 L 174.223,90.648 C 174.209,90.639 174.261,90.779 174.268,90.815 C 174.297,90.969 174.324,91.125 174.337,91.292 C 174.375,91.808 174.383,92.392 174.351,92.922 C 174.242,94.715 174.096,96.517 173.897,98.266 C 173.522,101.536 173.112,104.827 172.621,108.074 C 171.162,109.362 169.685,110.624 168.167,111.802 C 166.167,113.351 164.138,114.825 162.073,116.261 L 162.381,116.775 C 164.48,115.653 166.574,114.523 168.568,113.174 C 169.816,112.329 171.045,111.424 172.243,110.46 C 172.184,110.817 172.124,111.173 172.063,111.528 C 171.564,114.41 171.059,117.248 170.287,119.982 L 170.853,120.18 C 171.221,119.279 171.567,118.383 171.897,117.459 C 172.237,116.503 172.53,115.497 172.794,114.497 C 173.27,112.683 173.678,110.838 174.027,108.962 C 175.654,107.534 177.209,105.992 178.66,104.341 C 180.15,102.642 181.476,100.857 182.673,99.014 C 183.222,98.167 183.7,97.288 184.232,96.436 L 183.722,96.1 C 181.794,98.67 179.686,101.162 177.382,103.54 C 176.431,104.519 175.458,105.499 174.463,106.421 C 174.5,106.187 174.536,105.952 174.572,105.717 C 174.951,103.183 175.204,100.567 175.304,97.925 C 175.372,96.114 175.374,94.204 175.238,92.452 C 175.185,91.784 175.107,91.022 174.835,90.478 C 174.744,90.296 174.62,90.146 174.427,90.076 Z M 149.214,111.374 L 148.824,111.844 C 150.331,113.253 151.819,114.627 153.409,115.843 C 157.354,118.86 161.586,121.198 166.199,122.883 C 168.443,123.702 170.787,124.305 173.198,124.788 L 173.356,124.21 C 164.673,121.216 156.648,116.895 149.214,111.374 Z M 152.796,120.743 C 152.295,121.503 151.907,122.327 151.54,123.174 C 150.753,124.984 150.164,126.948 149.675,128.929 C 149.161,131.007 148.768,133.161 148.621,135.41 C 148.561,136.311 148.508,137.362 148.651,138.235 C 148.739,138.78 148.834,139.387 149.356,139.628 L 149.62,139.092 C 149.437,138.909 149.48,138.455 149.488,138.135 C 149.506,137.31 149.674,136.465 149.825,135.69 C 150.224,133.635 150.695,131.598 151.176,129.574 C 151.625,127.679 152.089,125.762 152.6,123.924 C 152.836,123.073 153.077,122.212 153.417,121.409 C 153.559,121.07 153.716,120.692 153.968,120.441 L 154,120.441 L 154.118,119.841 C 153.519,119.721 153.08,120.31 152.796,120.743 Z" fill="#735f88" marker-start="none" marker-end="none"/>
    </g>
   </g>
   <g id="юбка">
    <g id="Group_21" stroke="none" stroke-width="0.5" stroke-miterlimit="79.8403193612775">
     <g id="Group_22">
      <path d="M 193.807,280.563 L 184.763,265.36 C 184.423,267.3 184.115,269.225 184.751,265.429 C 182.236,259.814 177.54,252.931 171.404,246.959 C 150.437,227.483 139.703,213.439 139.931,191.41 L 129.057,204.16 C 139.302,236.758 169.222,245.433 183.112,276.624 C 180.025,302.905 182.844,325.453 190.782,339.121 C 193.409,345.295 199.708,354.218 203.33,350.25 C 215.205,337.243 242.878,338.364 255.652,346.241 C 259.012,348.313 260.445,342.365 259.376,339.827 C 260.004,290.415 320.724,251.701 326.144,191.419 C 323.311,197.507 320.137,202.598 316.68,206.898 C 300.661,226.824 283.89,230.274 261.546,236.947 C 289.688,220.055 312.006,206.308 320.707,167.946 L 309.087,159.616 C 304.71,188.496 244.895,233.489 231.087,243.016 C 219.108,252.822 209.817,262.927 208.378,266.02 C 205.536,269.576 203.219,272.765 201.163,275.933 C 205.233,217.226 245.594,216.862 247.663,146.116 L 235.063,145.516 C 235.158,201.939 189.229,241.255 193.807,280.563 Z" fill="#735f88" marker-start="none" marker-end="none"/>
      <path d="M 208.435,325.375 C 223.044,266.794 253.747,286.425 307.342,234.437 C 287.53,271.288 261.895,265.14 262.576,314.594 L 251.091,336.859 C 236.73,334.364 221.93,332.962 206.326,333.578 L 208.435,325.375 Z" fill="#aa98bd" marker-start="none" marker-end="none"/>
      <path d="M 193.807,280.563 L 184.763,265.36 C 184.678,265.845 184.595,266.329 184.745,265.461 C 184.492,266.969 184.592,266.378 184.751,265.429 C 182.236,259.814 177.54,252.931 171.404,246.959 C 150.437,227.483 139.703,213.439 139.931,191.41 L 129.057,204.16 C 139.302,236.758 169.222,245.433 183.112,276.624 C 180.569,298.269 182.033,317.382 187.063,331.088 L 203.906,324.137 C 181.682,247.083 292.231,228.503 315.656,165.511 L 315.08,163.912 L 309.087,159.616 C 304.71,188.496 244.895,233.489 231.087,243.016 C 219.108,252.822 209.817,262.927 208.378,266.02 C 205.536,269.576 203.219,272.765 201.163,275.933 C 205.233,217.226 245.594,216.862 247.663,146.116 L 235.063,145.516 C 235.158,201.939 189.229,241.255 193.807,280.563 Z M 184.745,265.461 C 184.326,267.938 184.394,267.51 184.745,265.461 Z" fill="#3a343a" marker-start="none" marker-end="none"/>
      <path d="M 234.898,151.544 L 247.435,151.315 C 247.534,149.625 247.611,147.892 247.663,146.116 L 235.063,145.516 C 235.066,147.547 235.01,149.557 234.898,151.544 Z M 307.286,166.166 L 319.125,173.975 C 319.706,172.037 320.234,170.028 320.707,167.946 L 309.087,159.616 C 308.768,161.72 308.154,163.91 307.286,166.166 Z M 139.931,191.41 L 129.057,204.16 C 129.594,205.869 130.185,207.512 130.826,209.097 L 140.514,200.485 C 140.093,197.599 139.898,194.587 139.931,191.41 Z M 318.975,203.865 C 319.891,208.886 319.981,214.046 319.598,219.284 C 322.914,210.473 325.261,201.231 326.144,191.419 C 323.949,196.133 321.551,200.25 318.975,203.865 Z" fill="#bfbd00" marker-start="none" marker-end="none"/>
      <path d="M 316.68,206.898 C 300.661,226.824 283.89,230.274 261.546,236.947 C 274.45,229.201 286.13,222.116 295.835,213.016 L 261.638,236.547 C 243.872,252.48 228.483,268.414 222.246,284.347 C 265.839,239.981 311.893,240.715 324.777,194.227 C 322.301,199.095 319.59,203.277 316.68,206.898 Z" fill="#3a343a" marker-start="none" marker-end="none"/>
     </g>
     <path d="M 251.197,336.746 C 254.553,337.265 257.125,338.31 259.379,339.567 C 259.964,305.095 289.745,275.808 309.447,240.726 C 260.647,308.842 254.368,288.475 251.197,336.746 Z" fill="#aa98bd" marker-start="none" marker-end="none"/>
    </g>
   </g>
   <g id="пояс">
    <g id="Group_23" stroke="none" stroke-width="0.5" stroke-miterlimit="79.8403193612775">
     <path d="M 257.108,322.632 C 238.752,311.235 198.463,312.361 187.92,332.404 C 185.885,343.81 187.688,361.668 192.065,357.111 C 211.311,337.081 255.868,342.936 255.451,348.766 C 256.806,348.898 258.21,346.576 259.087,345.924 C 262.256,343.567 259.506,334.079 259.472,331.467 C 259.419,327.476 260.116,325.08 257.108,322.632 Z" fill="#735f88" marker-start="none" marker-end="none"/>
     <path d="M 187.92,332.404 C 185.885,343.81 187.688,361.668 192.065,357.111 C 196.329,352.673 201.835,349.505 207.82,347.327 L 206.611,345.624 C 206.014,340.504 206.855,324.937 207.795,318.009 C 198.995,320.658 191.622,325.363 187.92,332.404 Z" fill="#3a343a" marker-start="none" marker-end="none"/>
     <path d="M 194.159,350.377 C 192.844,344.043 223.96,330.835 246.47,335.955 C 232.28,331.284 218.052,331.344 203.211,336.766 L 203.19,329.144 C 221.281,322.877 249.496,324.58 255.92,330.56 C 241.784,320.163 207.48,319.975 202.383,325.046 L 196.067,342.431 L 194.159,350.377 Z" fill="#3a343a" marker-start="none" marker-end="none"/>
     <path d="M 207.535,344.248 C 225.949,341.153 243.898,338.924 256.042,347.388 L 258.231,345.589 C 245.834,337.676 229.841,335.728 207.535,344.248 Z" fill="#aa98bd" marker-start="none" marker-end="none"/>
     <path d="M 207.812,331.115 C 226.267,328.939 244.236,327.605 256.158,336.683 C 258.238,337.569 258.79,336.796 258.385,334.993 C 246.199,326.455 230.281,323.706 207.812,331.115 Z" fill="#aa98bd" marker-start="none" marker-end="none"/>
     <path d="M 208.315,321.041 C 226.79,320.246 244.751,320.258 256.313,330.232 C 258.354,331.273 258.933,330.542 258.593,328.708 C 246.748,319.253 230.977,315.31 208.315,321.041 Z" fill="#aa98bd" marker-start="none" marker-end="none"/>
     <path d="M 187.864,338.672 C 194.252,335.772 200.595,332.996 206.708,330.858 C 206.756,329.959 206.809,329.061 206.866,328.175 C 201.002,330.522 194.692,333.961 187.864,338.672 Z M 187.651,349.252 C 194.011,346.364 200.326,343.602 206.415,341.466 C 206.407,340.65 206.41,339.771 206.423,338.848 C 200.624,341.193 194.391,344.603 187.651,349.252 Z" fill="#735f88" marker-start="none" marker-end="none"/>
    </g>
   </g>
   <g id="рука ближ 2">
    <g id="Group_24" stroke="none" stroke-width="0.5" stroke-miterlimit="79.8403193612775">
     <path d="M 194.913,317.899 C 204.489,317.383 201.965,332.745 207.119,345.662 C 212.802,359.261 202.17,369.203 183.653,375.274 C 186.618,355.71 188.303,336.033 194.913,317.899 Z" fill="#735f88" marker-start="none" marker-end="none"/>
     <path d="M 193.455,320.758 C 203.028,320.241 198.43,335.181 203.585,348.1 C 209.266,361.696 198.634,371.64 180.119,377.711 C 183.081,358.146 186.843,338.892 193.455,320.758 Z" fill="#3a343a" marker-start="none" marker-end="none"/>
     <g id="Group_25">
      <path d="M 228.661,335.663 C 189.071,348.715 154.927,354.406 151,368.532 C 150.972,407.214 190.435,360.246 233.988,351.648 C 234.113,351.68 234.237,351.715 234.362,351.749 C 234.347,351.702 234.332,351.657 234.317,351.612 C 245.001,347.617 241.16,335.083 232.394,334.19 L 232.417,334.157 C 230.892,334.84 229.65,335.376 228.661,335.663 Z" fill="#ccc57c" marker-start="none" marker-end="none"/>
      <path d="M 230.999,332.572 C 173.327,353.518 146.886,368.198 149.429,377.067" fill="none"/>
      <path d="M 228.661,335.663 C 189.071,348.715 154.927,354.406 151,368.532 C 150.392,371.317 150.22,373.649 150.437,375.573 C 171.158,365.484 193.197,357.468 213.172,347.303 C 217.217,346.201 221.586,345.159 226.212,344.354 C 242.74,340.703 238.543,335.122 232.394,334.19 L 232.417,334.157 C 230.892,334.84 229.65,335.376 228.661,335.663 Z" fill="#9c9866" marker-start="none" marker-end="none"/>
      <path d="M 222.282,347.498 C 216.553,347.538 155.155,376.35 155.78,378.96 C 169.997,386.023 202.327,353.891 230.286,350.775 C 243.288,349.071 241.402,342.697 226.806,346.681 C 225.296,346.936 223.789,347.21 222.282,347.498 Z" fill="#dfdaac" marker-start="none" marker-end="none"/>
     </g>
     <g id="Group_26">
      <g id="Group_27">
       <path d="M 158.656,357.781 C 145.671,363.546 138.334,371.622 145.867,385.786 C 153.529,387.638 162.497,386.101 172.281,382.442 C 172.252,382.413 172.223,382.384 172.195,382.356 C 204.581,366.544 182.538,340.194 195.332,317.983 C 176.071,324.221 175.605,344.335 158.656,357.781 Z" fill="#735f88" marker-start="none" marker-end="none"/>
       <path d="M 153.585,379.834 C 151.555,381.599 151.885,384.328 153.096,386.572 C 158.04,386.533 163.384,385.452 169.03,383.588 C 168.956,383.433 168.886,383.275 168.819,383.116 C 183.665,373.4 189.1,367.409 188.507,355.225 C 179.471,367.47 167.31,371.753 153.585,379.834 Z" fill="#aa98bd" marker-start="none" marker-end="none"/>
       <path d="M 158.656,357.781 C 146.555,363.154 139.359,370.534 144.532,382.977 C 145.156,383.434 145.753,383.872 146.319,384.287 C 141.588,372.607 177.255,353.516 186.676,350.183 C 185.491,341.671 185.466,332.418 186.179,322.874 C 175.304,331.593 172.398,346.879 158.656,357.781 Z" fill="#3a343a" marker-start="none" marker-end="none"/>
      </g>
      <path d="M 186.164,322.886 C 183.974,330.18 185.492,340.171 186.329,349.667 C 186.469,354.003 185.302,358.176 182.279,362.117 L 184.229,370.517 C 186.337,368.603 188.036,366.659 189.402,364.689 C 194.134,350.317 186.577,333.181 195.332,317.983 C 191.68,319.165 188.704,320.846 186.164,322.886 Z" fill="#aa98bd" marker-start="none" marker-end="none"/>
     </g>
    </g>
   </g>
   <g id="рука ближ 3">
    <g id="Group_28" stroke="none" stroke-width="0.5" stroke-miterlimit="79.8403193612775">
     <path d="M 239.207,329.139 C 234.014,331.326 230.347,333.836 227.739,335.531 L 227.726,335.564 C 219.339,342.659 226.627,354.407 232.348,353.121 C 232.368,353.167 232.389,353.212 232.409,353.259 C 240.224,355.299 247.323,356.617 248.001,351.47 C 252.299,354.387 256.738,354.696 261.394,350.948 C 264.257,344.829 263.676,338.563 261.73,332.24 C 259.768,329.663 254.612,327.941 250.233,326.497 C 245.097,326.275 243.88,327.274 239.207,329.139 Z" fill="#ccc57c" marker-start="none" marker-end="none"/>
     <path d="M 246.093,350.01 L 247.901,351.521 C 250.922,350.869 253.78,350.117 255.146,348.48 C 254.802,347.223 252.215,347.448 246.093,350.01 Z" fill="#9c9866" marker-start="none" marker-end="none"/>
     <path d="M 239.207,329.139 C 234.014,331.326 230.347,333.836 227.739,335.531 L 227.726,335.564 C 224.04,338.681 223.382,342.697 224.287,346.111 C 231.771,344.102 240.275,343.014 249.579,344.315 C 248.716,342.544 248.365,340.988 249.584,340.088 C 248.668,337.954 248.594,336.354 249.392,335.314 C 248.796,333.794 248.857,332.44 249.721,331.295 C 249.638,330.663 249.609,330.017 250.048,327.284 C 249.695,326.994 249.32,326.72 248.925,326.466 C 244.848,326.464 243.455,327.443 239.207,329.139 Z" fill="#9c9866" marker-start="none" marker-end="none"/>
     <path d="M 249.235,340.107 L 262.766,345.773 L 262.857,344.105 L 249.235,340.107 Z" fill="#9c9866" marker-start="none" marker-end="none"/>
     <path d="M 249.212,335.526 L 262.743,341.191 L 262.832,339.523 L 249.212,335.526 Z" fill="#9c9866" marker-start="none" marker-end="none"/>
     <path d="M 249.444,331.209 L 262.258,336.688 L 262.348,335.021 L 249.444,331.209 Z" fill="#9c9866" marker-start="none" marker-end="none"/>
     <path d="M 225.188,348.442 C 226.089,350.188 227.393,351.617 228.818,352.443 C 229.517,352.313 230.216,352.208 230.916,352.134 C 237.127,354.002 242.003,354.17 245.114,352.099 C 243.087,352.026 241.184,351.63 239.431,350.84 C 239.845,348.119 243.405,346.766 248.285,345.991 C 239.597,345.398 232.29,346.585 225.188,348.442 Z" fill="#dfdaac" marker-start="none" marker-end="none"/>
     <path d="M 249.873,341.914 L 249.792,343.584 L 262.009,347.315 L 249.873,341.914 Z" fill="#dfdaac" marker-start="none" marker-end="none"/>
     <path d="M 249.99,332.823 L 249.904,334.491 L 262.847,338.36 L 249.99,332.823 Z" fill="#dfdaac" marker-start="none" marker-end="none"/>
     <path d="M 250.263,328.568 L 250.182,330.237 L 262.288,333.947 L 250.263,328.568 Z" fill="#dfdaac" marker-start="none" marker-end="none"/>
    </g>
   </g>
   <g id="рука дальняя 2">
    <g id="Group_29" stroke="none" stroke-width="0.5" stroke-miterlimit="79.8403193612775">
     <path d="M 343.122,327.767 C 349.687,326.077 350.937,334.212 348.952,359.249 C 346.257,369.737 343.763,378.24 336.577,378.749 C 322.232,367.003 332.584,347.429 343.122,327.767 Z" fill="#735f88" marker-start="none" marker-end="none"/>
     <path d="M 339.372,328.938 C 345.937,327.248 347.187,335.383 345.202,360.42 C 342.507,370.908 340.013,379.411 332.827,379.92 C 318.482,368.174 328.834,348.6 339.372,328.938 Z" fill="#3a343a" marker-start="none" marker-end="none"/>
     <g id="Group_30">
      <path d="M 310.566,375.649 C 314.238,378.319 346.816,378.374 365.397,379.695 C 365.38,379.693 365.364,379.692 365.348,379.691 C 376.284,380.085 378.502,368.703 366.877,363.256 L 366.893,363.23 C 322.228,348.714 287.473,353.828 310.566,375.649 Z" fill="#ccc57c" marker-start="none" marker-end="none"/>
      <path d="M 314.399,375.023 C 310.922,374.001 308.832,372.187 309.162,369.001 C 325.472,367.842 344.726,368.357 364.926,369.41 C 371.214,368.282 374.445,375.254 364.824,377.167 C 349.692,372.152 331.286,375.667 314.399,375.023 Z" fill="#dfdaac" marker-start="none" marker-end="none"/>
      <path d="M 303.734,365.442 C 323.195,359.449 344.696,364.925 365.611,367.222 L 365.618,367.223 L 365.624,367.225 C 369.472,368.814 372.262,369.677 374.061,369.985 C 373.063,367.519 370.73,365.061 366.877,363.256 L 366.893,363.23 C 355.727,359.601 345.179,357.199 332.656,355.579 L 332.197,355.537 L 329.974,355.335 L 327.653,355.181 L 327.558,355.174 C 311.689,354.322 301.926,357.872 303.734,365.442 Z" fill="#9c9866" stroke-linejoin="miter" marker-start="none" marker-end="none"/>
     </g>
     <g id="Group_31">
      <path d="M 302.904,357.737 C 299.528,368.624 303.731,375.598 312.389,380.276 C 312.406,380.25 312.424,380.223 312.442,380.197 C 318.242,379.797 325.715,381.211 331.515,380.999 C 333.992,380.914 334.794,379.669 337.042,378.397 C 323.383,373.973 340.677,330.185 344.61,327.449 C 327.43,330.438 312.447,351.707 302.904,357.737 Z" fill="#735f88" marker-start="none" marker-end="none"/>
      <path d="M 307.314,354.32 C 306.04,355.467 304.426,356.775 302.904,357.737 C 301.972,360.743 301.617,363.452 301.775,365.896 C 309.056,363.496 318.626,364.987 327.372,366.467 L 329.452,355.499 C 329.106,355.443 328.747,355.385 328.377,355.326 C 330.587,345.658 333.698,336.589 339.075,329.034 C 326.898,333.839 316.081,346.458 307.314,354.32 Z" fill="#3a343a" marker-start="none" marker-end="none"/>
      <path d="M 338.829,329.132 C 324.854,350.663 323.893,372.495 333.217,380.698 C 334.53,380.239 335.401,379.325 337.042,378.397 C 323.383,373.973 340.677,330.185 344.61,327.449 C 342.653,327.789 340.724,328.367 338.829,329.132 Z" fill="#aa98bd" marker-start="none" marker-end="none"/>
      <path d="M 302.912,370.833 C 304.087,373.638 306.11,376.006 308.817,378.02 L 329.022,378.167 L 332.472,378.317 L 329.172,372.167 L 306.822,374.867 C 305.156,373.127 303.662,371.131 302.622,369.017 C 302.632,369.536 302.742,370.165 302.912,370.833 Z" fill="#aa98bd" marker-start="none" marker-end="none"/>
     </g>
    </g>
   </g>
   <g id="рука дальняя 3">
    <g id="Group_32" stroke="none" stroke-width="0.5" stroke-miterlimit="79.8403193612775">
     <path d="M 374.963,361.993 C 372.154,362.135 371.097,362.233 370.474,362.313 C 368.275,362.793 367.672,362.993 367.097,363.233 C 367.094,363.231 367.091,363.23 367.09,363.23 L 367.074,363.256 C 365.256,366.317 364.886,369.38 365.35,372.442 C 364.359,375.417 364.576,377.738 365.471,379.691 C 365.487,379.692 365.504,379.693 365.521,379.695 C 366.479,380.995 367.496,382.18 368.56,383.274 C 369.625,384.367 370.737,385.37 371.882,386.308 C 372.394,390.378 373.571,392.363 375.179,392.99 C 375.984,393.305 376.896,393.28 377.887,393.008 C 378.879,392.736 379.949,392.216 381.069,391.54 L 394.639,397.188 C 395.095,397.328 395.589,397.136 396.099,396.672 C 397.627,395.281 399.286,391.441 400.429,386.778 C 401.192,383.669 401.725,380.193 401.836,376.832 C 401.948,373.471 401.64,370.224 400.718,367.571 L 385.027,363.027 L 380.354,362.371 C 379.498,362.283 378.271,362.177 375.275,361.993 C 375.938,361.981 374.411,361.951 374.963,361.993 Z" fill="#ccc57c" marker-start="none" marker-end="none"/>
     <path d="M 374.954,361.994 C 372.127,362.137 371.056,362.237 370.291,362.334 C 369.775,362.423 369.281,362.529 368.838,362.649 L 367.097,363.233 L 367.096,363.232 C 367.094,363.232 367.092,363.231 367.091,363.23 L 367.074,363.256 C 366.277,364.597 365.758,365.939 365.466,367.281 C 365.713,367.307 365.962,367.334 366.212,367.359 C 371.278,365.278 376.201,366.342 380.129,367.052 C 380.485,371.316 377.508,376.14 374.188,381.02 C 377.42,376.293 380.667,377.845 382.442,380.892 C 382.573,381.497 382.864,382.178 383.346,382.949 C 383.117,382.226 382.812,381.527 382.442,380.892 C 382.003,378.886 383.292,377.699 385.044,376.732 C 382.998,374.094 384.558,372.365 387.132,370.894 C 386.282,368.882 386.415,367.344 387.274,366.326 C 388.097,365.753 389.13,365.273 390.362,364.936 C 390.546,364.915 390.736,364.901 390.932,364.893 L 390.489,364.902 C 390.56,364.883 390.634,364.864 390.709,364.847 L 385.025,363.027 C 383.716,362.813 382.423,362.619 381.18,362.458 C 380.214,362.349 378.72,362.206 375.25,361.991 C 376.562,362.016 375.836,361.99 375.161,361.99 C 374.331,361.988 373.548,362.008 374.954,361.994 Z" fill="#9c9866" marker-start="none" marker-end="none"/>
     <path d="M 386.739,371.16 L 398.047,376.732 L 401.326,374.161 L 398.16,375.447 L 386.739,371.16 Z" fill="#9c9866" marker-start="none" marker-end="none"/>
     <path d="M 386.739,377.592 L 398.047,383.164 L 401.326,380.591 L 398.16,381.878 L 386.739,377.592 Z" fill="#9c9866" marker-start="none" marker-end="none"/>
     <path d="M 385.156,384.828 L 396.464,390.402 L 399.743,387.829 L 396.577,389.116 L 385.156,384.828 Z" fill="#9c9866" marker-start="none" marker-end="none"/>
     <path d="M 370.264,384.91 L 371.983,386.282 C 372.603,383.366 374.581,380.451 377.139,377.537 C 373.409,378.903 371.543,381.684 370.264,384.91 Z" fill="#9c9866" marker-start="none" marker-end="none"/>
     <path d="M 375.455,386.036 C 375.017,388.695 375.539,390.985 376.618,391.144 C 377.696,391.303 378.929,389.273 379.367,386.613 C 379.804,383.956 379.282,381.666 378.203,381.506 C 377.125,381.347 375.892,383.377 375.455,386.036 Z" fill="#dfdaac" marker-start="none" marker-end="none"/>
     <path d="M 387.743,375.75 C 387.335,376.186 389.104,377.284 391.688,378.198 C 394.272,379.113 396.702,379.5 397.108,379.065 C 397.515,378.628 395.747,377.53 393.163,376.615 C 390.579,375.701 388.149,375.313 387.743,375.75 Z" fill="#dfdaac" marker-start="none" marker-end="none"/>
     <path d="M 387.109,382.524 C 386.702,382.96 388.47,384.057 391.055,384.972 C 393.639,385.887 396.069,386.274 396.475,385.838 C 396.882,385.401 395.114,384.304 392.53,383.389 C 389.945,382.475 387.516,382.087 387.109,382.524 Z" fill="#dfdaac" marker-start="none" marker-end="none"/>
     <path d="M 384.577,389.897 C 384.17,390.333 385.938,391.43 388.522,392.345 C 391.106,393.259 393.536,393.647 393.942,393.211 C 394.349,392.774 392.581,391.676 389.997,390.762 C 387.413,389.848 384.983,389.461 384.577,389.897 Z" fill="#dfdaac" marker-start="none" marker-end="none"/>
     <path d="M 389.009,368.549 C 388.602,368.985 390.37,370.083 392.954,370.997 C 395.538,371.912 397.968,372.299 398.374,371.862 C 398.781,371.426 397.013,370.329 394.429,369.414 C 391.845,368.5 389.415,368.112 389.009,368.549 Z" fill="#dfdaac" marker-start="none" marker-end="none"/>
     <path d="M 365.177,369.598 C 365.143,370.546 365.206,371.494 365.35,372.442 C 364.726,374.312 364.58,375.925 364.782,377.35 L 369.332,381.386 C 371.458,380.312 373.393,379.06 371.866,374.527 C 374.229,372.584 376.437,370.617 375.665,368.181 C 374.383,367.876 367.335,369.345 365.177,369.598 Z" fill="#dfdaac" marker-start="none" marker-end="none"/>
    </g>
   </g>
  </g>
 </g>
</svg>
