<?xml version="1.0" encoding="UTF-8" standalone="no"?>
<!-- Created with Inkscape (http://www.inkscape.org/) -->

<svg
   xmlns:dc="http://purl.org/dc/elements/1.1/"
   xmlns:cc="http://creativecommons.org/ns#"
   xmlns:rdf="http://www.w3.org/1999/02/22-rdf-syntax-ns#"
   xmlns:svg="http://www.w3.org/2000/svg"
   xmlns="http://www.w3.org/2000/svg"
   version="1.1"
   width="392"
   height="572"
   viewBox="0 0 313.6 457.6"
   id="svg2816"
   style="fill-rule:evenodd;stroke-width:0.50099999;stroke-linejoin:bevel;overflow:visible">
  <metadata
     id="metadata3373">
    <rdf:RDF>
      <cc:Work
         rdf:about="">
        <dc:format>image/svg+xml</dc:format>
        <dc:type
           rdf:resource="http://purl.org/dc/dcmitype/StillImage" />
        <dc:title></dc:title>
      </cc:Work>
    </rdf:RDF>
  </metadata>
  <defs
     id="defs2818" />
  <g
     transform="matrix(1,0,0,-1,-75.152,507.08166)"
     id="farGown"
     style="font-size:16px;fill:none;stroke:#000000;font-family:Times New Roman">
    <path
       d="m 239.415,431.704 c 24.138,-28.403 20.112,-211.865 98.051,-272.159 -19.685,-2.463 -38.002,-13.544 -74.335,3.06 -8.075,8.74 -107.563,28.906 -124.143,27.64 -26.921,53.79 38.684,87.379 53.967,239.258 -0.5,6.442 45.569,3.809 46.46,2.201 z"
       id="path2900"
       style="fill:#3a343a;stroke:none;stroke-width:0.5;marker-start:none;marker-end:none" />
  </g>
  <g
     transform="matrix(1,0,0,-1,-75.152,507.08166)"
     id="backHair"
     style="font-size:16px;fill:none;stroke:#000000;font-family:Times New Roman">
    <g
       id="Group"
       style="stroke:none">
      <path
         d="m 256.327,472.512 c -1.597,-17.809 -4.005,-33.892 13.603,-56.731 -9.563,5.03 -18.564,29.795 -18.087,33.498 2.424,-19.552 3.968,-27.853 8.818,-46.181 -5.714,15.794 -6.351,22.004 -14.565,39.049 3.832,-11.892 0.744,-23.524 -1.84,-31.233 1.7,13.065 1.616,18.664 -1.622,37.783 -0.288,-17.917 -0.514,-26.547 -5.545,-37.351 1.931,12.996 2.583,17.832 -1.124,37.551 -1.72,-14.925 -6.572,-17.331 -3.031,-36.289 -19.12,40.775 4.651,42.593 0.242,68.742 l 23.151,-8.838 z"
         id="path2904"
         style="fill:#cccccc;marker-start:none;marker-end:none" />
      <path
         d="m 235.707,476.939 c 1.014,-0.452 -0.228,-12.923 -2.759,-18.268 l 5.134,9.897 0.881,-20.872 2.338,14.587 7.423,-20.378 -3.114,21.703 7.813,-11.921 c -1.965,8.098 -3.355,15.812 -1.652,21.443 l -16.064,3.809 z"
         id="path2906"
         style="fill:#999999;marker-start:none;marker-end:none" />
    </g>
  </g>
  <g
     transform="matrix(1,0,0,-1,-75.152,507.08166)"
     id="leftShoulder"
     style="font-size:16px;fill:none;stroke:#000000;font-family:Times New Roman">
    <g
       id="Group_1"
       style="stroke:none">
      <g
         id="Group_2">
        <path
           d="m 248.136,428.709 c 0.173,-0.246 32.798,-58.003 33.322,-57.759 10.291,-8.769 5.389,-25.016 -5.776,-22.215 l -40.287,49.732 c -18.376,27.215 4.627,39.966 12.741,30.242 z"
           id="path2911"
           style="fill:#ccc57c;marker-start:none;marker-end:none" />
        <path
           d="m 274.349,350.379 -38.954,48.088 c -10.09,14.943 -7.705,25.525 -2.159,30.421 0.172,-2.805 0.571,-5.609 1.412,-8.413 9.589,-19.95 21.44264,-38.56418 38.95864,-59.64618 5.18558,-5.96562 11.09783,-5.51106 0.74236,-10.44982 z"
           id="path2913"
           style="fill:#9c9866;marker-start:none;marker-end:none" />
        <path
           d="m 279.298,370.532 c -13.991,17.508 -19.112,40.711 -33.985,56.015 -4.613,2.507 -8.397,0.872 -3.984,-5.156 14.028,-10.683 23.339,-45.682 36.328,-51.797 l 1.641,0.938 z"
           id="path2915"
           style="fill:#dfdaac;marker-start:none;marker-end:none" />
      </g>
      <g
         id="Group_3">
        <path
           d="m 236.486,396.793 c -3.206,0.984 -4.549,3.52 -4.245,7.427 l 16.713,15.505 4.688,3.375 c 3.856,-2.083 4.834,-5.317 3.75,-9.375 l -15.796,-13.007 17.176,10.812 c 6.035,-2.32 8.026,-5.969 4.55,-10.008 l -23.824,-12.168 c -2.876,1.509 -3.809,4.027 -3.012,7.439 z"
           id="path2918"
           style="fill:#735f88;marker-start:none;marker-end:none" />
        <path
           d="m 256.129,397.848 -4.151,9.405 6.578,4.141 5.533,-8.853 c -0.217,-0.337 -0.473,-0.677 -0.767,-1.019 l -7.193,-3.674 z m -4.803,10.882 -4.132,9.362 1.76,1.633 3.031,2.182 5.213,-8.341 -5.872,-4.836 z"
           id="path2920"
           style="fill:#aa98bd;marker-start:none;marker-end:none" />
        <path
           d="m 236.486,396.793 c -3.206,0.984 -4.549,3.52 -4.245,7.427 l 9.149,8.488 4.647,-8.333 -4.441,-3.657 4.796,3.019 4.715,-8.454 -11.609,-5.929 c -2.876,1.509 -3.809,4.027 -3.012,7.439 z"
           id="path2922"
           style="fill:#3a343a;marker-start:none;marker-end:none" />
      </g>
    </g>
  </g>
  <g
     transform="matrix(1,0,0,-1,-75.152,507.08166)"
     id="leftArm"
     style="font-size:16px;fill:none;stroke:#000000;font-family:Times New Roman">
    <g
       id="Group_4"
       style="stroke:none">
      <path
         d="m 279.201,369.699 c 3.44635,2.52042 33.38662,-2.15605 49.09373,-0.0249 15.70711,2.13111 9.18492,4.32705 16.373,5.21958 14.09464,-3.50707 8.8104,-15.2204 -3.50555,-18.96257 -12.31594,-3.74217 -52.29732,-14.05171 -63.51322,-5.36671 -11.21589,8.68501 -2.2956,14.28702 1.55204,19.13464 z"
         id="path2926"
         style="fill:#ccc57c;marker-start:none;marker-end:none" />
      <path
         d="m 283.576,368.981 c -3.968,-1.174 -6.353,-3.256 -5.976,-6.914 18.611,-1.331 40.582,-0.74 63.633,0.469 7.175,-1.295 10.862,6.709 -0.117,8.906 -17.267,-5.757 -38.27,-1.723 -57.54,-2.461 z"
         id="path2928"
         style="fill:#dfdaac;marker-start:none;marker-end:none" />
      <path
         d="m 294.34954,351.01112 c 16.16861,-1.20859 44.59866,5.14606 57.30746,12.18488 -1.29331,-3.04256 -3.73556,-5.1798 -6.57819,-6.69639 -13.82813,-5.84029 -35.54659,-8.20522 -50.35313,-10.13365 -10.13952,-1.11602 -26.73087,2.10089 -22.95488,11.55938 3.77598,9.45848 6.41013,-5.70564 22.57874,-6.91422 z"
         id="path2930"
         style="fill:#9c9866;marker-start:none;marker-end:none" />
    </g>
  </g>
  <g
     transform="matrix(1,0,0,-1,272.25731,609.24597)"
     id="leftHand"
     style="font-size:16px;fill:none;stroke:#000000;font-family:Times New Roman">
    <g
       transform="translate(-345.09299,104.8047)"
       id="Group_5"
       style="stroke:none">
      <path
         d="m 342.208,366.017 c -2.269,6.65312 1.0039,11.66213 7.107,15.92 0.557,4.673 1.838,6.951 3.588,7.672 3.38251,1.05292 5.385,-1.85658 7.12425,-4.3472 0.22171,3.23029 5.89362,4.63633 9.00684,6.64914 9.21738,4.06131 11.75641,-4.14787 9.58942,-6.75518 5.12781,-1.98658 2.41793,-6.00564 1.49934,-8.32977 2.14357,-0.71225 3.76263,-4.67353 0.52444,-8.87418 3.51361,-0.40868 2.3446,-5.65002 -2.14254,-8.19543 -5.2116,-2.14811 -14.73486,-4.44031 -19.97075,-5.30238 -5.23589,-0.86207 -9.69188,-0.71494 -12.66964,0.31063 -4.24894,1.1253 -3.85738,7.84525 -3.65636,11.25237 z"
         id="path2934"
         style="fill:#ccc57c;marker-start:none;marker-end:none" />
      <path
         d="M 342.84375,152.34375 340.5,154.3125 c 1.59127,4.23728 3.86376,7.92957 8.125,10.03125 2.77619,4.76117 5.5877,9.90892 5.28125,15.59375 -4.82097,0.99217 -9.78338,1.8279 -14.6875,0.9375 -1.6969,-0.0447 -3.68171,-1.97429 -5.15625,-0.90625 0.51241,1.82894 0.93393,4.03125 2.34375,5.4375 4.08906,1.66016 8.23196,2.20341 12.625,1.6875 3.85297,-0.24109 7.71519,-0.64453 11.5,-1.40625 2.55112,-0.8021 5.11441,-1.64239 7.625,-2.5625 -0.39014,-0.2848 -2.55033,-0.77548 -3.53125,-1.46875 -2.04262,-0.93106 -2.22364,-3.57433 -1.75,-5.5 1.28369,-2.10284 -1.40431,-2.86861 -2.5,-4.0625 -1.2215,-1.39044 -1.3228,-3.47014 -0.4375,-5.0625 1.60177,-1.50856 -1.59329,-1.8209 -2.09375,-3.25 -1.44196,-1.6475 -0.87816,-3.91246 0.0937,-5.625 0.57831,-1.34127 -1.01713,-0.58876 -1.09375,-0.125 -0.68006,2.48147 -1.9841,5.63978 -4.625,6.125 -1.66713,0.19048 -3.06868,-0.59192 -4.25,-1.6875 -2.53586,-3.381 -4.44314,-6.744 -5.125,-10.125 z"
         transform="matrix(0.80000001,0,0,-0.80000001,75.151999,503.78098)"
         id="path2936"
         style="fill:#9c9866;marker-start:none;marker-end:none" />
      <path
         d="m 365.482,364.545 c 2.73193,1.93658 5.53191,3.80466 8.53511,5.29828 1.12573,0.51818 2.29168,1.09388 3.55414,1.11918 1.17036,-0.0795 2.44437,-0.69713 2.82079,-1.88481 0.0885,-0.29666 0.31744,-1.16507 -0.16571,-0.60925 -1.01981,0.57295 -2.25016,0.58454 -3.3848,0.48211 -1.87046,-0.34301 -3.63606,-1.08685 -5.3984,-1.77947 -2.01059,-0.8204 -3.9958,-1.70274 -5.96113,-2.62604 z"
         id="path2938"
         style="fill:#9c9866;marker-start:none;marker-end:none" />
      <path
         d="m 365.482,371.929 c 2.68322,2.06162 5.43083,4.06354 8.39082,5.71351 1.07455,0.55819 2.17934,1.17417 3.40587,1.28472 0.95442,-0.0276 2.10309,-0.27843 2.57117,-1.21117 0.12664,-0.22108 0.30031,-1.20138 -0.0454,-0.59573 -0.72235,0.3274 -1.55185,0.1622 -2.31165,0.0883 -1.48008,-0.28783 -2.85786,-0.93753 -4.24014,-1.51938 -2.63204,-1.16419 -5.21286,-2.44198 -7.77063,-3.76025 z"
         id="path2940"
         style="fill:#9c9866;marker-start:none;marker-end:none" />
      <path
         d="m 363.759,380.238 c 2.69148,2.17777 5.44861,4.29766 8.4299,6.06778 1.07684,0.59701 2.18146,1.25594 3.42495,1.40304 0.86378,-0.0144 1.89211,-0.15176 2.42579,-0.91645 0.17541,-0.20223 0.38196,-1.25027 -0.052,-0.78238 -0.84128,0.17875 -1.70455,-0.0702 -2.52733,-0.24199 -1.93589,-0.60467 -3.75122,-1.53041 -5.57876,-2.39818 -2.05939,-1.00707 -4.09836,-2.0558 -6.12251,-3.13182 z"
         id="path2942"
         style="fill:#9c9866;marker-start:none;marker-end:none" />
      <path
         d="m 353.203,381.625 c -0.476,3.052 0.092,5.681 1.266,5.864 1.173,0.183 2.515,-2.148 2.991,-5.201 0.476,-3.052 -0.092,-5.681 -1.266,-5.864 -1.173,-0.183 -2.515,2.148 -2.991,5.201 z"
         id="path2946"
         style="fill:#dfdaac;marker-start:none;marker-end:none" />
      <path
         d="m 366.574,369.815 c -0.443,0.501 1.481,1.761 4.293,2.811 2.812,1.05 5.456,1.495 5.898,0.994 0.443,-0.501 -1.481,-1.761 -4.293,-2.811 -2.812,-1.05 -5.456,-1.495 -5.898,-0.994 z"
         id="path2948"
         style="fill:#dfdaac;marker-start:none;marker-end:none" />
      <path
         d="m 365.885,377.592 c -0.443,0.501 1.481,1.761 4.293,2.811 2.812,1.05 5.456,1.495 5.898,0.994 0.443,-0.501 -1.481,-1.761 -4.293,-2.811 -2.812,-1.05 -5.456,-1.495 -5.898,-0.994 z"
         id="path2950"
         style="fill:#dfdaac;marker-start:none;marker-end:none" />
      <path
         d="m 363.129,386.057 c -0.443,0.501 1.481,1.761 4.293,2.811 2.812,1.05 5.456,1.495 5.898,0.994 0.443,-0.501 -1.481,-1.761 -4.293,-2.811 -2.812,-1.05 -5.456,-1.495 -5.898,-0.994 z"
         id="path2952"
         style="fill:#dfdaac;marker-start:none;marker-end:none" />
      <path
         d="m 367.952,361.547 c -0.443,0.501 1.481,1.761 4.293,2.811 2.812,1.05 5.456,1.495 5.898,0.994 0.443,-0.501 -1.481,-1.761 -4.293,-2.811 -2.812,-1.05 -5.456,-1.495 -5.898,-0.994 z"
         id="path2954"
         style="fill:#dfdaac;marker-start:none;marker-end:none" />
      <path
         d="m 342.019,362.752 c -0.037,1.088 0.032,2.176 0.189,3.265 -0.679,2.147 -0.838,3.999 -0.619,5.635 l 4.952,4.633 c 2.313,-1.232 4.418,-2.67 2.757,-7.875 2.571,-2.23 4.974,-4.488 4.134,-7.285 -1.395,-0.35 -9.065,1.337 -11.413,1.627 z"
         id="path2956"
         style="fill:#dfdaac;marker-start:none;marker-end:none" />
    </g>
  </g>
  <g
     transform="matrix(1,0,0,-1,-75.152,507.08166)"
     id="bodyBottom"
     style="font-size:16px;fill:none;stroke:#000000;font-family:Times New Roman">
    <path
       d="m 232.578,363.774 -0.45,-18.75 c 5.767,-28.541 -3.141,-48.05 -29.42,-56.868 -20.849,-6.286 -37.703,-2.401 -47.625,19.125 0.724,16.311 21.618,48.479 19.688,56.438 9.329,16.687 41.319,40.976 57.807,0.055 z"
       id="path2959"
       style="fill:#ccc57c;stroke:none;stroke-width:0.5;marker-start:none;marker-end:none" />
  </g>
  <g
     transform="matrix(1,0,0,-1,-75.152,507.08166)"
     id="body"
     style="font-size:16px;fill:none;stroke:#000000;font-family:Times New Roman">
    <g
       id="Group_6"
       style="stroke:none">
      <path
         d="m 174.082,359.399 c 2.077,12.368 3.812,26.244 2.576,37.959 -9.753,23.125 -9.46,39.276 17.062,37.21 5.744,5.383 6.339,12.753 4.124,21.207 7.722,21.933 36.038,23.021 30.939,-20.822 16.019,-6.693 17.408,-25.434 7.773,-49.293 -2.768,-7.148 -3.104,-12.393 -3.9,-22.5"
         id="path2963"
         style="fill:#ccc57c" />
      <path
         d="m 195.148,382.391 c -1.887,-0.218 -3.051,-0.153 -2.995,0.269 0.998,-0.096 1.997,-0.186 2.995,-0.269 5.464,0.63 16.987,3.627 22.505,7.169 4.614,-4.256 10.008,-6.175 16.2,-5.7 -12.902,-2.492 -25.803,-2.541 -38.705,-1.469 z"
         id="path2965"
         style="fill:#9c9866;marker-start:none;marker-end:none" />
      <g
         id="Group_7">
        <g
           id="Group_8">
          <g
             id="Group_9"
             style="fill:#9c9866">
            <path
               d="m 176.345,359.215 c -1.3,0.174 -2.517,0.387 -3.635,0.644 1.361,8.169 2.561,16.975 2.846,25.368 23.202,3.91 45.615,14.236 64.949,26.969 0.191,-0.283 0.371,-0.565 0.539,-0.848 -0.055,-4.016 -0.688,-8.398 -1.863,-13.079 -0.651,-0.708 -1.4,-1.426 -2.25,-2.155 -2.965,-1.463 -9.664,-4.979 -17.747,-8.94 -1.045,0.69 -2.056,1.486 -3.031,2.386 -5.518,-3.542 -17.041,-6.539 -22.505,-7.169 4.685,-0.39 9.371,-0.631 14.056,-0.662 -8.39,-3.826 -17.077,-7.403 -24.056,-9.357 17.109,-2.803 28.704,-1.215 48.358,2.969 0.06,-0.11 0.136,-0.247 0.223,-0.407 -0.475,-3.317 -0.748,-7.004 -1.123,-11.771 l -0.05,-1.178 c -0.081,-0.07 -0.164,-0.14 -0.248,-0.209 -6.378,-0.547 -26.145,-3.18 -42.342,-3.212 -4.041,0.122 -8.082,0.34 -12.121,0.651 z m -5.1,1.021 c -0.991,0.893 -2.108,1.901 -3.286,2.972 -0.227,4.179 1.003,7.788 3.917,10.74 -1.255,3.605 -1.081,7.212 0.731,10.818 0.947,0.136 1.893,0.284 2.839,0.443 -0.287,-7.969 -1.417,-16.544 -2.857,-25.322 -0.466,0.108 -0.914,0.225 -1.344,0.349 z m 59.914,1.84 0.046,1.08 c 0.37,4.704 0.641,8.353 1.103,11.63 1.181,-2.223 3.887,-8.221 -1.149,-12.71 z m -37.511,20.315 c -0.998,0.083 -1.997,0.173 -2.995,0.269 -0.056,-0.422 1.108,-0.487 2.995,-0.269 z m 47.493,28.793 c 2.377,-4.1 2.263,-8.229 -1.819,-12.759 1.132,4.555 1.75,8.83 1.819,12.759 z"
               id="path2970"
               style="marker-start:none;marker-end:none" />
          </g>
          <g
             id="Group_10">
            <path
               d="m 170.752,364.699 c -0.706,4.924 0.431,9.129 3.742,12.483 -1.255,3.605 -1.081,7.212 0.731,10.818 24.25,3.502 47.747,14.159 67.898,27.43 3.47,-5.121 3.24,-10.24 -3.574,-16.082 -7.102,-3.503 -35.646,-18.802 -53.283,-23.742 17.109,-2.803 28.704,-1.215 48.358,2.969 0.871,-1.575 4.859,-8.598 -1.198,-13.565 -9.787,-0.838 -51.121,-6.593 -62.674,-0.311 z"
               id="path2973"
               style="fill:#735f88;marker-start:none;marker-end:none" />
            <path
               d="m 192.453,367.85 0.383,4.988 c 13.697,-0.119 26.547,1.234 38.731,3.742 3.787,-2.536 3.827,-5.072 -0.576,-7.608 l -38.538,-1.122 z"
               id="path2975"
               style="fill:#aa98bd;marker-start:none;marker-end:none" />
          </g>
          <path
             d="m 197.823,383.63 1.05,6 c 16.671,6.564 31.079,14.26 43.8,22.8 1.386,-0.373 1.646,-1.591 -0.15,-4.35 -14.9,-8.785 -29.8,-18.498 -44.7,-24.45 z"
             id="path2977"
             style="fill:#aa98bd;marker-start:none;marker-end:none" />
        </g>
        <path
           d="m 196.85,364.741 2.161,3.558 33.866,2.658 c -7.113,-0.997 -21.337,-2.992 -20.133,-3.516 1.065,-0.463 15.912,1.194 25.831,2.339 l -0.084,-0.205 c -13.791,-2.294 -27.639,-4.161 -41.641,-4.834 z"
           id="path2979"
           style="fill:#3a343a;marker-start:none;marker-end:none" />
        <path
           d="m 199.259,380.312 0.563,4.125 30,15.938 c -6.126,-3.75 -18.376,-11.25 -17.063,-11.25 1.313,0 17.687,9.5 25.875,14.25 -12.733,-8.341 -25.688,-16.313 -39.375,-23.063 z"
           id="path2981"
           style="fill:#3a343a;marker-start:none;marker-end:none" />
      </g>
    </g>
  </g>
  <g
     transform="matrix(1,0,0,-1,-75.152,507.08166)"
     id="scarf"
     style="font-size:16px;fill:none;stroke:#000000;font-family:Times New Roman">
    <g
       id="Group_11"
       style="stroke:none">
      <path
         d="m 227.515,410.35 c 6.87,-0.083 17.425,18.519 15.563,32.977 -0.999,-3.773 -2.478,-7.382 -8.25,-9.506 l -7.313,-23.471 z"
         id="path2985"
         style="fill:#3a343a;marker-start:none;marker-end:none" />
      <g
         id="Group_12">
        <path
           d="m 196.953,439.037 c 5.24283,-8.04401 9.56278,-16.95187 16.81037,-23.45648 3.44337,-3.02061 7.7455,-5.30515 12.3637,-5.66507 3.19101,0.37585 4.77283,3.89854 5.08076,6.74636 0.70649,2.06959 2.81477,4.09324 1.9885,6.64261 -0.53877,1.50609 -0.75793,2.6465 0.76589,3.58244 1.15871,1.54922 1.9599,4.96832 0.44296,6.11946 -12.6586,3.23953 -23.59321,11.66401 -30.97063,22.32734 -1.16936,1.04371 -2.1083,5.08911 -3.35183,2.26331 -2.7798,-3.49767 -4.54856,-7.91167 -4.17935,-12.43275 0.10531,-2.07498 0.50209,-4.12628 1.04963,-6.12722 z"
           id="path2988"
           style="fill:#735f88;marker-start:none;marker-end:none" />
        <path
           d="m 235.357,425.645 c -9.91,3.935 -19.473,9.49 -28.43,17.846 7.802,-8.983 16.352,-16.71 27.307,-20.387 l 1.123,2.541 z"
           id="path2990"
           style="fill:#3a343a;marker-start:none;marker-end:none" />
        <path
           d="m 232.943,417.579 c -9.628,4.582 -18.802,10.758 -27.187,19.688 7.191,-9.479 15.211,-17.755 25.898,-22.149 l 1.289,2.461 z"
           id="path2992"
           style="fill:#3a343a;marker-start:none;marker-end:none" />
        <path
           d="m 233.985,430.498 c -9.826,3.547 -19.362,8.691 -28.392,16.595 7.918,-8.554 16.53,-15.856 27.37,-19.118 1.745,0.7 1.456,1.605 1.022,2.523 z"
           id="path2994"
           style="fill:#aa98bd;marker-start:none;marker-end:none" />
        <path
           d="m 231.232,423.192 c -9.432,4.489 -18.42,10.54 -26.635,19.288 7.045,-9.286 14.902,-17.394 25.372,-21.699 1.805,0.526 1.606,1.455 1.263,2.411 z"
           id="path2996"
           style="fill:#aa98bd;marker-start:none;marker-end:none" />
        <path
           d="m 228.847,414.458 c -9.26,4.835 -18.017,11.215 -25.903,20.261 6.696,-9.54 14.248,-17.934 24.551,-22.623 1.823,0.458 1.659,1.394 1.352,2.362 z"
           id="path2998"
           style="fill:#aa98bd;marker-start:none;marker-end:none" />
      </g>
    </g>
  </g>
  <g
     transform="matrix(1,0,0,-1,-75.152,507.08166)"
     id="head"
     style="font-size:16px;fill:none;stroke:#000000;font-family:Times New Roman">
    <g
       id="Group_13"
       style="stroke:none">
      <path
         d="m 256.38,479.792 c 0.461,-7.946 -4.76,-12.733 -5.064,-25.382 1.11,-6.643 -5.675,-4.773 -7.472,-23.534 -1.935,-3.248 -9.673,-7.952 -21.495,0.23 -15.809,12.879 -22.713,13.784 -22.847,26.294 -1.545,2.199 -2.112,2.244 -2.449,3.026 -11.641,51.968 51.983,55.676 59.327,19.366 z"
         id="path3002"
         style="fill:#ccc57c;marker-start:none;marker-end:none" />
      <path
         d="m 249.368,487.779 c 5.142,-8.99 1.13,-13.185 -0.141,-18.677 -4.496,-1.53 -7.66468,-1.64366 -9.33568,-7.00166 L 239.757,453.336 c 1.132,-1.563 2.583,-3.498 1.054,-5.699 0.415,1.873 -1.267,3.336 -3.229,4.803 l -1.38965,7.74558 c 0.19135,5.10593 -4.58885,2.52528 -8.50435,4.66842 l -5.11,5.292 c 14.701,-0.475 19.366,23.149 11.006,29.728 2.613,0.668 13.474,-7.985 15.784,-12.095 z"
         id="path3004"
         style="fill:#dfdaac;marker-start:none;marker-end:none" />
      <path
         d="m 198.652,483.333 c 6.799,10.43 15.087,18.863 29.117,19.59 -14.497,-2.023 -25.466,-17.799 -16.588,-23.088 -4.66,0.164 -9.093,0.801 -12.529,3.498 z"
         id="path3006"
         style="fill:#9c9866;marker-start:none;marker-end:none" />
      <path
         d="m 233.885,426.58 -2.214,0.306 -0.593,0.13 -2.352,0.697 -0.143,0.046 -2.644,1.2 -0.697,0.373 -2.893,1.774 c -15.809,12.879 -22.713,13.784 -22.847,26.294 -0.387,0.548 -0.712,0.964 -0.988,1.29 -0.275,0.325 -0.501,0.561 -0.69,0.754 -0.377,0.384 -0.603,0.591 -0.771,0.982 -1.317,5.879 -1.671,11.141 -1.252,15.796 1.866,-0.259 3.748,-0.98 5.316,-2.123 0.762,0.157 7.502,2.315 7.323,2.173 6.158,-2.436 7.052,-9.403 -2.742,-17.466 -0.192,-6.61 8.381,-18.217 18.649,-23.795 0.653,-2.968 6.891,-7.536 10.65,-8.181 l -1.055,-0.252 -0.057,0.002 z"
         id="path3008"
         style="fill:#9c9866;marker-start:none;marker-end:none" />
      <path
         d="m 230.11,430.6 c -0.749,0.49 -1.451,1.009 -2.082,1.57 -1.868,1.656 -3.206,3.641 -3.912,5.993 -0.212,0.712 -0.359,1.412 -0.451,2.109 -0.119,0.917 -0.144,1.821 -0.111,2.715 l 0.195,0.013 c 0.032,-0.909 0.139,-1.822 0.314,-2.75 0.112,-0.583 0.257,-1.18 0.453,-1.773 0.312,-0.949 0.693,-1.848 1.17,-2.694 0.957,-1.696 2.266,-3.186 3.896,-4.476 0.409,-0.325 0.837,-0.639 1.287,-0.938 0.198,-0.134 0.395,-0.268 0.607,-0.393 l -0.136,-0.106 c -0.419,0.24 -0.838,0.473 -1.23,0.73 z m 5.693,-0.413 -0.033,0.131 1.494,0.343 1.507,0.292 1.52,0.235 1.532,0.181 0.032,-0.132 -1.493,-0.343 -1.508,-0.291 -1.52,-0.234 -1.531,-0.182 z m -9.8,2.654 c -0.436,0.309 -0.846,0.631 -1.237,0.967 -1.989,1.703 -3.494,3.688 -4.248,6.131 -0.131,0.422 -0.231,0.847 -0.3,1.266 -0.103,0.6 -0.153,1.189 -0.166,1.774 -0.048,0.014 -0.093,0.027 -0.141,0.042 -0.525,0.16 -0.996,0.402 -1.398,0.653 -0.593,0.372 -1.081,0.813 -1.501,1.289 l 0.308,0.178 c 0.534,-0.38 1.12,-0.734 1.774,-1.044 0.767,-0.365 1.6,-0.603 2.523,-0.607 l 0.471,0.028 c 0.95,0.108 1.747,0.467 2.423,0.852 0.208,0.118 0.411,0.244 0.609,0.375 0.264,0.168 0.513,0.35 0.759,0.534 0.219,0.165 0.433,0.333 0.642,0.506 0.1,0.081 0.205,0.162 0.298,0.251 l 0.321,-0.139 c -0.094,-0.104 -0.17,-0.213 -0.261,-0.318 -0.147,-0.178 -0.304,-0.352 -0.469,-0.521 -0.744,-0.762 -1.602,-1.433 -2.732,-1.877 -0.438,-0.172 -0.957,-0.31 -1.474,-0.371 -0.364,-0.042 -0.714,-0.049 -1.054,-0.024 -0.301,0.02 -0.586,0.067 -0.867,0.134 0.053,-0.464 0.134,-0.928 0.245,-1.393 0.099,-0.422 0.213,-0.855 0.357,-1.276 0.785,-2.338 2.178,-4.315 3.963,-6.056 0.408,-0.401 0.838,-0.787 1.29,-1.164 0.248,-0.207 0.495,-0.419 0.767,-0.612 l -0.149,-0.098 c -0.251,0.174 -0.508,0.345 -0.753,0.52 z"
         id="path3010"
         style="fill:#726e46;marker-start:none;marker-end:none" />
      <path
         d="m 229.732,439.946 c -0.10467,0.15967 -0.20933,0.31933 -0.314,0.479 1.58317,1.29243 3.61457,1.86505 5.59287,2.21436 2.58303,0.40355 5.3226,0.39454 7.7825,-0.5824 0.70539,-0.28561 1.34474,-0.72213 1.86163,-1.28096 -0.12267,-0.14133 -0.24533,-0.28267 -0.368,-0.424 -1.41317,0.92739 -3.1706,0.98011 -4.80496,1.03619 -2.24651,0.0284 -4.49542,-0.16685 -6.71243,-0.52314 -0.97179,-0.20027 -1.48442,-0.16087 -2.38626,-0.58751 l -0.56755,-0.27917 -0.0838,-0.0524 0,3e-5 z"
         id="path3013"
         style="fill:#726e46;marker-start:none;marker-end:none" />
      <path
         d="m 234.604,438.441 c -0.0403,0.10367 -0.0807,0.20733 -0.121,0.311 0.18076,0.28817 0.46438,0.48885 0.70775,0.71923 0.92319,0.67796 2.11943,0.9888 3.25456,0.82264 0.76948,-0.1201 1.54655,-0.50871 1.94127,-1.20676 0.1139,-0.0915 0.0413,-0.18959 -0.0139,-0.28677 -0.0497,-0.20584 -0.15558,0.0292 -0.25638,0.0849 -0.51184,0.41816 -1.20407,0.46974 -1.8379,0.48592 -0.79066,0.003 -1.57895,-0.11613 -2.34684,-0.29826 -0.41475,-0.11795 -0.82779,-0.27052 -1.18963,-0.50797 -0.0496,-0.0371 -0.096,-0.0784 -0.13795,-0.12395 z"
         id="path3015"
         style="fill:#726e46;marker-start:none;marker-end:none" />
      <g
         id="Group_15">
        <path
           d="m 243.054,456.446 c 0.579,-3.604 1.297,-2.399 7.414,1.043 -0.028,-0.507 -0.049,-1.03 -0.066,-1.57 -4.416,-4.125 -7.961,-6.342 -7.348,0.527 z"
           id="path3018"
           style="fill:#dfdaac;marker-start:none;marker-end:none" />
        <path
           d="m 241.388,457.942 c 0.617,4.23 10.984,11.767 12.632,8.791 -1.071,-2.503 -3.216,-7.51 -3.104,-7.584 0.111,-0.07 -6.315,-0.828 -9.528,-1.207 z"
           id="path3020"
           style="fill:#9c9866;marker-start:none;marker-end:none" />
        <path
           d="m 210.639,465.228 2.708,11.721 c 5.839,-4.037 11.485,-8.775 16.613,-15.407 l -1.191,-0.202 c -1.401,0.077 -4.201,0.231 -5.249,0.313 -1.047,0.083 -10.403,2.295 -10.593,2.31 -0.19,0.016 -1.588,0.847 -2.288,1.265 z"
           id="path3022"
           style="fill:#9c9866;marker-start:none;marker-end:none" />
        <path
           d="m 230.573,455.534 c 0.143,3.334 -1.226,6.547 -4.788,7.809 -6.733,1.806 -8.161,-0.177 -14.792,0.844 0.397,-1.966 2.005,-3.603 4.568,-4.985 l 13.79,-5.046 c 0.607,0.265 1.032,0.708 1.222,1.378 z"
           id="path3024"
           style="fill:#ffffff;marker-start:none;marker-end:none" />
        <g
           id="Group_16">
          <path
             d="m 225.731,455.479 -3.929,1.439 c -0.46,0.643 -0.798,1.447 -0.957,2.362 -0.314,1.821 0.177,3.621 1.171,4.774 1.075,-0.103 2.293,-0.318 3.769,-0.711 0.995,-0.355 1.823,-0.861 2.489,-1.481 0.048,-0.174 0.089,-0.356 0.121,-0.541 0.443,-2.591 -0.739,-5.129 -2.664,-5.842 z"
             id="path3027"
             style="fill:#7f0000;marker-start:none;marker-end:none" />
        </g>
        <path
           d="m 224.952,460.569 c -0.127,0.741 0.235,1.469 0.805,1.624 0.57,0.154 1.137,-0.326 1.264,-1.064 0.126,-0.743 -0.233,-1.471 -0.803,-1.626 -0.57,-0.154 -1.14,0.324 -1.266,1.066 z"
           id="path3037"
           style="fill:#ffffff;marker-start:none;marker-end:none" />
        <path
           d="m 230.276,455.943 c 0.946,5.555 -2.727,8.279 -10.292,8.609 -4.391,0.007 -7.759,0.668 -10.263,1.875 l 1.593,-2.758 -1.826,0.134 2.446,-1.59 c -0.886,0.021 -2.66,0.066 -2.337,0.049 0.319,-0.02 3.151,-1.489 4.569,-2.224 -1.016,1.53 -1.773,2.944 -1.924,4.09 1.984,-0.365 6.321,-0.294 7.77,-0.406 5.391,-0.559 10.042,-1.769 10.264,-7.779 z"
           id="path3039"
           style="fill:#000000;marker-start:none;marker-end:none" />
        <path
           d="m 230.32,456.366 c -1.302,4.981 -14.58,7.019 -18.2,7.191 -0.291,0.14 -0.659,0.311 -1.101,0.509 -0.009,0.039 -0.016,0.082 -0.026,0.121 6.631,-1.021 8.059,0.962 14.792,-0.844 3.34,-1.18 4.75,-4.078 4.796,-7.184 -0.097,0.074 -0.185,0.144 -0.261,0.207 z"
           id="path3041"
           style="fill:#000000;fill-opacity:0.18039198;marker-start:none;marker-end:none" />
        <path
           d="m 231.621,457.287 c -0.481,0.385 -0.868,0.831 -1.154,1.374 l -0.234,0.506 c -0.159,0.247 -0.293,0.512 -0.452,0.76 -0.347,0.549 -0.687,1.115 -1.045,1.658 -1.017,1.551 -2.126,3.032 -3.369,4.392 -1.206,1.321 -2.519,2.508 -3.983,3.619 -0.942,0.717 -2.015,1.344 -3.071,1.905 -2.243,1.171 -4.649,1.969 -7.116,2.396 l 0.17,0.789 c 0.935,-0.085 1.884,-0.102 2.798,-0.246 1.638,-0.256 3.264,-0.641 4.797,-1.271 0.756,-0.31 1.51,-0.638 2.234,-1.054 1.186,-0.68 2.324,-1.425 3.325,-2.278 2.008,-1.715 3.653,-3.688 5.051,-5.908 0.68,-1.079 1.286,-2.216 1.839,-3.398 0.096,-0.201 0.193,-0.401 0.281,-0.609 0.051,-0.109 0.071,-0.245 0.111,-0.359 0.07,-0.19 0.148,-0.364 0.239,-0.529 0.195,-0.362 0.481,-0.661 0.782,-0.929 0.847,-0.766 2.008,-1.219 3.056,-1.532 l -0.235,-0.761 c -1.38,0.172 -2.879,0.557 -4.024,1.475 z"
           id="path3043"
           style="fill:#000000;fill-rule:evenodd;marker-start:none;marker-end:none" />
        <path
           d="m 251.349,458.779 -0.471,-1.061 c -2.789,-0.507 -5.5,-1.303 -8.124,-2.388 -0.761,0.852 -1.275,1.651 -1.283,2.338 3.752,4.672 10.339,5.855 9.878,1.111 z"
           id="path3045"
           style="fill:#ffffff;marker-start:none;marker-end:none" />
        <g
           id="Group_17">
          <path
             d="m 247.249,456.881 c -0.46,-0.131 -0.916,-0.264 -1.372,-0.411 -0.129,0 -0.258,0.006 -0.387,0.026 -1.383,0.191 -2.237,1.499 -1.909,2.919 0.03,0.146 0.078,0.286 0.134,0.42 1.101,0.826 2.263,1.411 3.347,1.72 1.152,-0.36 1.818,-1.554 1.52,-2.837 -0.179,-0.784 -0.687,-1.441 -1.333,-1.837 z"
             id="path3048"
             style="fill:#7f0000;marker-start:none;marker-end:none" />
        </g>
        <path
           d="m 251.258,458.934 c -2.707,1.08 -8.521,-0.598 -9.724,-1.687 -0.04,0.143 -0.062,0.284 -0.063,0.421 3.672,4.572 10.062,5.803 9.898,1.404 -0.038,-0.049 -0.077,-0.094 -0.111,-0.138 z"
           id="path3058"
           style="fill:#000000;fill-opacity:0.30196102;marker-start:none;marker-end:none" />
        <path
           d="m 241.22,457.277 c 2.507,3.242 5.478,5.874 11.002,5.18 l -1.399,-0.838 1.549,-0.402 c -0.464,-0.396 -1.393,-1.19 -1.34,-1.151 0.056,0.038 0.707,-0.179 1.028,-0.281 l -0.623,-0.641 c -0.197,-0.648 -0.879,-1.873 -0.602,-1.42 0.661,1.09 -0.504,3.58 -2.29,3.816 -1.726,-0.222 -4.023,-1.4 -7.325,-4.263 z"
           id="path3060"
           style="fill:#000000;marker-start:none;marker-end:none" />
        <path
           d="m 246.6997,459.0457 c -0.486,0.067 -0.787,0.528 -0.673,1.028 0.117,0.499 0.605,0.849 1.094,0.785 0.484,-0.068 0.782,-0.53 0.671,-1.032 -0.118,-0.5 -0.605,-0.851 -1.092,-0.781 z"
           id="path3062"
           style="fill:#ffffff;marker-start:none;marker-end:none" />
        <path
           d="m 252.33,466.326 c -0.621,0.052 -1.262,-0.138 -1.857,-0.4 -1.379,-0.615 -2.79,-1.735 -3.933,-2.791 -0.454,-0.414 -0.888,-0.829 -1.319,-1.264 -0.451,-0.459 -0.909,-0.929 -1.261,-1.447 l -0.689,0.313 c 0.089,0.224 0.15,0.464 0.237,0.69 0.174,0.477 0.41,0.948 0.667,1.392 0.602,1.037 1.355,1.982 2.301,2.839 1.796,1.62 4.139,2.642 6.131,1.876 0.418,-0.161 0.748,-0.427 1.079,-0.734 l -0.461,-0.664 c -0.286,0.095 -0.574,0.163 -0.895,0.19 z"
           id="path3064"
           style="fill:#000000;fill-rule:evenodd;marker-start:none;marker-end:none" />
        <path
           d="m 231.518,455.901 c -1.211,-4.305 -2.758,-2.145 -19.464,1.007 10.467,-4.801 20.841,-9.498 19.464,-1.007 z"
           id="path3066"
           style="fill:#dfdaac;marker-start:none;marker-end:none" />
      </g>
      <path
         d="m 239.726,449.565 -4.957,-1.461 3.218,-0.509 1.739,1.97 z"
         id="path3068"
         style="fill:#726e46;marker-start:none;marker-end:none" />
      <path
         d="m 241.795,446.964 c -0.69981,0.264 -0.46561,0.68176 -0.0353,1.14985 0.57028,0.79072 1.10195,1.86558 0.55127,2.81053 -0.27585,0.87383 -1.28916,1.37687 -1.34603,2.31862 -0.40712,2.47676 -0.65599,5.00715 -0.33928,7.50732 0.18922,2.71796 1.61645,5.20558 3.37384,7.22568 2.27722,2.51162 5.31083,4.20121 8.4385,5.425 -0.002,-0.65422 -1.47777,-0.78354 -1.97875,-1.30281 -3.48199,-1.94766 -6.87336,-4.57302 -8.45057,-8.35885 -1.12637,-2.56146 -1.06503,-5.393 -0.67814,-8.11297 0.13963,-0.86457 0.20292,-1.77015 0.41314,-2.61045 0.88153,-1.06776 1.91514,-2.44478 1.32788,-3.89615 -0.29388,-0.78821 -0.79947,-1.47119 -1.27656,-2.15577 z"
         id="path3070"
         style="fill:#726e46;marker-start:none;marker-end:none" />
    </g>
  </g>
  <g
     transform="matrix(1,0,0,-1,-75.152,507.08166)"
     id="leftTigh"
     style="font-size:16px;fill:none;stroke:#000000;font-family:Times New Roman">
    <g
       id="Group_18"
       style="stroke:none">
      <g
         id="Group_19">
        <path
           d="m 241.373,230.559 c -14.158,17.466 -35.95,45.664 -35.356,72.009 0.363,16.083 23.911,23.776 28.965,15.665 9.288,-14.804 32.47759,-48.40449 33.60517,-78.01462 -0.32978,-21.54241 -23.20988,-32.50399 -27.21417,-9.65938 z"
           id="path3075"
           style="fill:#ccc57c" />
        <path
           d="m 210.408,300.838 c 0.213,2.21 5.098,0.663 6.93,-2.936 2.97733,-23.11404 18.50395,-48.27975 27.77414,-62.40365 10.69556,-9.56538 -1.49773,-21.42169 -3.47457,-3.92469 -16.66486,21.25939 -37.61613,68.8481 -31.22957,69.26434 z"
           id="path3077"
           style="fill:#9c9866;marker-start:none;marker-end:none" />
      </g>
      <path
         d="m 230.062,297.391 c 10.479,-11.386 20.803,-23.807 29.53,-46.829 4.543,-7.439 4.777,-23.574 2.763,-23.08 5.821,8.55 5.013,17.971 2.018,27.679 -4.347,16.245 -11.336,33.816 -28.781,56.619 -6.704,6.708 -22.406,4.351 -5.53,-14.389 z"
         id="path3079"
         style="fill:#dfdaac;marker-start:none;marker-end:none" />
    </g>
  </g>
  <g
     transform="matrix(1,0,0,-1,-75.152,507.08166)"
     id="leftFoot"
     style="font-size:16px;fill:none;stroke:#000000;font-family:Times New Roman">
    <g
       id="Group_20"
       style="stroke:none">
      <g
         id="Group_21">
        <path
           d="m 269.592,231.638 -2.703,-26.835 -17.196,-4.441 -10.052,-3.298 c -6.893,5.728 -0.744,20.441 2.014,33.494 3.84747,-4.29413 29.18933,19.62723 27.937,1.08 z"
           id="path3084"
           style="fill:#ccc57c;marker-start:none;marker-end:none" />
        <path
           d="m 242.42688,229.0537 c -1.064,6.101 5.18688,4.73961 3.79138,-1.9515 -1.3955,-6.69111 -2.82235,-6.95006 1.42674,-22.59224 l -6.127,-5.329 c -3.85,6.719 -1.55712,18.2067 0.90888,29.8727 l 0,4e-5 z"
           id="path3086"
           style="fill:#9c9866;marker-start:none;marker-end:none" />
      </g>
      <g
         id="Group_22">
        <path
           d="m 247.15,148.328 c -7.778,17.852 -13.568,44.96 -10.876,59.829 8.687,-3.757 31.28748,5.79791 32.16548,10.40391 l 0.11852,4.36709 c 2.39991,-3.12295 3.318,-4.421 2.722,-10.041 -9.083,-28.581 -6.956,-53.88 1.375,-77.766 0.06,-0.052 0.121,-0.104 0.182,-0.156 -0.083,0.008 -0.166,0.015 -0.247,0.023 -6.631,6.142 -20.789,7.605 -27.547,-6.357 2.602,8.318 3.66,14.052 2.107,19.697 z"
           id="path3089"
           style="fill:#735f88;marker-start:none;marker-end:none" />
        <path
           d="m 247.149,148.327 c -0.083,0.189 -0.165,0.381 -0.248,0.573 6.211,-1.621 13.157,-1.308 20.924,3.557 1.212,-5.876 2.845,-11.647 4.829,-17.336 0.026,-0.023 0.052,-0.046 0.08,-0.07 l -0.148,-0.061 c -2.65,-20.107 -23.294,-17.907 -27.287,-5.846 -0.033,-0.002 -0.066,-0.004 -0.1,-0.008 2.487,8.046 3.472,13.661 1.95,19.191 z"
           id="path3091"
           style="fill:#8a74a0;marker-start:none;marker-end:none" />
        <path
           d="m 239.464,171.658 c -1.465,6.013 -2.59,12.107 -3.237,17.826 9.173,-0.822 21.649,-5.005 29.216,-9.401 -0.298,-8.448 0.359,-16.638 1.8,-24.623 l -0.658,-3.333 c -3.69,10.037 -12.082,16.975 -27.121,19.531 z"
           id="path3093"
           style="fill:#8a74a0;marker-start:none;marker-end:none" />
        <path
           d="m 253.03,149.606 -5.493,0.296 c -2.238,7.007 -6.716,21.024 -6.377,20.769 0.338,-0.256 5.821,-1.917 8.264,-2.787 0.062,-0.447 2.425,-12.333 3.606,-18.278 z"
           id="path3095"
           style="fill:#3a343a;marker-start:none;marker-end:none" />
        <path
           d="m 265.465,179.618 -17.083,6.011 c 6.559,10.947 13.928,19.668 22.352,25.497 -3.002,-9.912 -4.664,-19.573 -5.269,-31.508 z"
           id="path3097"
           style="fill:#8a74a0;marker-start:none;marker-end:none" />
        <path
           d="m 249.134,188.574 -11.949,2.879 c -0.025,0.185 0.635,14.475 0.556,15.032 5.503,-1.352 11.99,0.216 18.354,1.422 -5.876,-5.245 -6.701,-12.194 -6.961,-19.333 z"
           id="path3099"
           style="fill:#3a343a;marker-start:none;marker-end:none" />
        <path
           d="m 256.773,181.492 c -1.921,0.782 -3.852,1.53 -5.803,2.248 -2.484,0.914 -4.972,1.855 -7.465,2.67 -1.381,0.45 -2.755,0.86 -4.164,1.188 -0.396,0.092 -0.8,0.157 -1.215,0.169 -0.118,0.004 -0.296,-0.002 -0.387,-0.045 l -0.59,0.677 c 0.258,0.249 0.631,0.343 1.027,0.371 0.505,0.033 0.999,0.003 1.481,-0.039 1.507,-0.14 2.975,-0.465 4.42,-0.828 2.571,-0.647 5.121,-1.476 7.619,-2.392 3.516,-1.292 6.946,-2.861 10.282,-4.712 1.112,-0.618 2.183,-1.332 3.297,-1.983 l -0.442,-0.798 c -2.642,1.308 -5.351,2.368 -8.06,3.474 z"
           id="path3101"
           style="fill:#aa98bd;marker-start:none;marker-end:none" />
        <path
           d="m 263.961,157.412 c -0.335,0.527 -0.705,1.038 -1.067,1.544 -0.638,0.889 -1.3,1.774 -2.032,2.606 -1.798,2.044 -3.794,4.052 -6.211,5.533 -0.616,0.375 -1.241,0.733 -1.868,1.071 -0.869,0.464 -1.791,0.833 -2.699,1.167 -2.116,0.772 -4.374,1.243 -6.683,1.433 -1.111,0.09 -2.239,0.135 -3.378,0.163 l -0.037,0.897 c 0.988,0.095 1.946,0.176 2.9,0.199 1.872,0.04 3.656,-0.111 5.384,-0.431 3.725,-0.692 7.187,-2.366 10.202,-4.967 1.405,-1.213 2.605,-2.543 3.708,-3.965 1.297,-1.667 2.407,-3.501 3.373,-5.404 0.268,-0.529 0.518,-1.066 0.773,-1.6 0.225,-0.473 0.407,-0.969 0.643,-1.439 l -0.818,-0.406 c -0.67,1.243 -1.446,2.417 -2.19,3.599 z"
           id="path3103"
           style="fill:#aa98bd;marker-start:none;marker-end:none" />
        <path
           d="m 247.594,146.904 0.03,0.9 c 4.883,0.246 10.281,0.695 15.006,1.982 1.26,0.342 2.48,0.693 3.668,1.14 0.546,0.203 1.106,0.391 1.632,0.64 l 0.42,-0.81 c -0.606,-0.36 -1.182,-0.751 -1.812,-1.076 -1.168,-0.599 -2.375,-1.168 -3.656,-1.603 -2.42,-0.819 -5.191,-1.377 -7.904,-1.512 -2.549,-0.129 -4.982,0.018 -7.384,0.339 z"
           id="path3105"
           style="fill:#aa98bd;marker-start:none;marker-end:none" />
        <path
           d="m 246.365,131.025 0.053,0.708 c 0.143,0.009 0.286,0.019 0.43,0.029 -0.163,-0.238 -0.326,-0.484 -0.483,-0.737 z m 24.934,5.029 c 0.106,0.04 0.212,0.08 0.316,0.123 l 0.442,-0.719 c -0.245,0.205 -0.496,0.403 -0.758,0.596 z"
           id="path3107"
           style="fill:#aa98bd;marker-start:none;marker-end:none" />
        <path
           d="m 248.769,152.911 0.415,2.361 c 3.162,0.713 6.64,0.477 10.291,-0.284 -3.707,-0.277 -7.465,-0.4 -10.706,-2.077 z"
           id="path3109"
           style="fill:#3a343a;marker-start:none;marker-end:none" />
        <path
           d="m 246.426,155.63 0.415,2.36 c 3.162,0.715 6.639,0.479 10.291,-0.282 -3.707,-0.277 -7.465,-0.4 -10.706,-2.078 z"
           id="path3111"
           style="fill:#3a343a;marker-start:none;marker-end:none" />
        <path
           d="m 255.194,163.79 c -3.691,0.441 -7.402,1.044 -10.906,0.021 l 0.863,2.237 c 3.239,0.092 6.607,-0.809 10.043,-2.258 z"
           id="path3113"
           style="fill:#3a343a;marker-start:none;marker-end:none" />
        <path
           d="m 246.405,189.728 0.168,2.392 c 2.738,-2.415 6.355,-3.447 9.883,-4.615 -3.727,0.148 -7.159,0.764 -10.051,2.223 z"
           id="path3115"
           style="fill:#3a343a;marker-start:none;marker-end:none" />
        <path
           d="m 246.854,195.277 0.17,2.392 c 2.736,-2.415 6.353,-3.445 9.882,-4.614 -3.727,0.147 -7.159,0.763 -10.052,2.222 z"
           id="path3117"
           style="fill:#3a343a;marker-start:none;marker-end:none" />
        <path
           d="m 248.449,200.977 0.168,2.392 c 2.737,-2.414 6.355,-3.445 9.883,-4.614 -3.727,0.147 -7.159,0.763 -10.051,2.222 z"
           id="path3119"
           style="fill:#3a343a;marker-start:none;marker-end:none" />
      </g>
    </g>
  </g>
  <g
     transform="matrix(1,0,0,-1,-75.152,507.08166)"
     id="leftSole"
     style="font-size:16px;fill:none;stroke:#000000;font-family:Times New Roman">
    <g
       id="Group_23"
       style="stroke:none">
      <g
         id="Group_24">
        <path
           d="m 290.688,98.302 c -10.177,5.276 -30.42,11.01 -36.267,11.137 -7.287,1.409 -10.956,7.286 -10.046,17.966 0.233,0.717 0.457,1.416 0.67,2.097 6.757,13.962 20.916,12.498 27.546,6.357 0.081,-0.008 0.164,-0.016 0.247,-0.024 10.86,-9.32 21.951,-20.109 37.859,-20.973 5.408,-0.636 12.481,-5.36 8.44,-11.346 -6.344,-5.054 -13.594,-12.302 -28.449,-5.214 z"
           id="path3124"
           style="fill:#735f88;marker-start:none;marker-end:none" />
        <path
           d="m 298.562,98.266 0.225,3.818 c 6.224,-2.116 12.496,-0.801 18.813,3.567 -3.365,-6.335 -17.302,-10.388 -19.038,-7.385 z"
           id="path3126"
           style="fill:#3a343a;marker-start:none;marker-end:none" />
        <path
           d="m 290.688,98.302 c -1.851,0.959 -4.036,1.933 -6.405,2.887 2.019,7.811 2.506,15.631 2.035,23.453 3.019,-2.22 6.174,-4.236 9.543,-5.857 3.243,-8.654 5.046,-16.762 1.655,-22.91 -2.085,0.461 -4.352,1.245 -6.828,2.427 z"
           id="path3128"
           style="fill:#8a74a0;marker-start:none;marker-end:none" />
        <path
           d="m 256.737,109.217 c 1.876,9.841 4.572,19.447 16.279,26.464 3.991,-3.43 8.016,-7.049 12.304,-10.294 -6.9,-3.614 -12.913,-13.908 -13.455,-19.869 -5.911,1.801 -11.541,3.18 -15.128,3.699 z"
           id="path3130"
           style="fill:#8a74a0;marker-start:none;marker-end:none" />
        <path
           d="m 245.3,130.015 c 6.401,12.527 18.942,12.042 27.288,5.846 -10.871,-4.954 -19.959,-5.187 -27.288,-5.846 z"
           id="path3132"
           style="fill:#8a74a0;marker-start:none;marker-end:none" />
        <path
           d="m 284.022,103.435 -9.984,3.721 1.902,5.376 8.312,-3.953 -0.23,-5.144 z"
           id="path3134"
           style="fill:#3a343a;marker-start:none;marker-end:none" />
        <path
           d="m 246.642,128.518 6.128,0.853 c -1.381,-0.949 0.146,-7.946 3.812,-9.692 l -1.194,-7.738 c -6.66,0.295 -10.023,5.195 -8.746,16.577 z"
           id="path3136"
           style="fill:#3a343a;marker-start:none;marker-end:none" />
        <path
           d="m 246.352,131.7 0.014,0.196 c 0.158,0.252 0.32,0.498 0.483,0.737 5.921,0.407 12.427,1.04 18.164,2.453 1.566,0.384 3.084,0.778 4.567,1.265 0.573,0.187 1.158,0.363 1.721,0.573 0.261,-0.192 0.513,-0.391 0.757,-0.596 l 0.05,-0.08 c -0.76,-0.382 -1.483,-0.794 -2.274,-1.14 -1.461,-0.641 -2.969,-1.252 -4.567,-1.73 -3.013,-0.903 -6.454,-1.553 -9.808,-1.779 -3.152,-0.213 -6.151,-0.144 -9.107,0.101 z"
           id="path3138"
           style="fill:#aa98bd;marker-start:none;marker-end:none" />
        <path
           d="m 258.439,110.322 -0.872,0.216 c 0.644,3.661 1.541,7.201 2.891,10.629 0.584,1.482 1.312,2.915 2.114,4.327 1.149,2.024 2.715,3.973 4.4,5.498 1.318,1.191 2.773,2.231 4.369,3.002 0.435,0.21 0.864,0.412 1.326,0.602 0.386,0.158 0.791,0.279 1.174,0.445 l 0.356,-0.841 c -0.698,-0.306 -1.364,-0.705 -1.988,-1.098 -1.842,-1.161 -3.585,-2.605 -5.021,-4.352 -0.494,-0.601 -0.992,-1.217 -1.454,-1.861 -1.206,-1.682 -2.162,-3.457 -3.039,-5.253 -0.918,-1.88 -1.702,-3.847 -2.403,-5.81 -0.651,-1.82 -1.256,-3.655 -1.853,-5.504 z"
           id="path3140"
           style="fill:#aa98bd;marker-start:none;marker-end:none" />
        <path
           d="m 271.354,105.759 -0.755,0.188 c 0.558,3.169 1.335,6.235 2.503,9.202 0.505,1.283 1.136,2.524 1.83,3.746 0.996,1.753 2.351,3.441 3.81,4.76 1.141,1.032 2.4,1.932 3.782,2.6 0.377,0.182 0.749,0.357 1.148,0.521 0.335,0.137 0.686,0.241 1.017,0.385 l 0.308,-0.727 c -0.604,-0.266 -1.181,-0.611 -1.721,-0.951 -1.594,-1.005 -3.103,-2.255 -4.348,-3.768 -0.427,-0.52 -0.858,-1.054 -1.257,-1.611 -1.045,-1.456 -1.873,-2.993 -2.632,-4.549 -0.795,-1.628 -1.475,-3.331 -2.081,-5.03 -0.564,-1.576 -1.088,-3.164 -1.604,-4.766 z"
           id="path3142"
           style="fill:#aa98bd;marker-start:none;marker-end:none" />
        <path
           d="m 285.908,101.038 -0.871,0.276 c 0.247,0.931 0.404,1.899 0.588,2.856 1.161,6.046 0.945,12.564 1.464,18.868 l 0.898,0.014 c 0.17,-1.711 0.334,-3.408 0.439,-5.086 0.187,-2.993 0.124,-5.953 -0.268,-8.742 -0.274,-1.94 -0.704,-3.805 -1.291,-5.635 -0.28,-0.87 -0.643,-1.694 -0.959,-2.551 z"
           id="path3144"
           style="fill:#aa98bd;marker-start:none;marker-end:none" />
        <path
           d="m 298.632,97.623 -0.913,0.045 c 0.001,0.964 -0.094,1.94 -0.161,2.911 -0.421,6.142 -2.293,12.39 -3.402,18.616 l 0.865,0.244 c 0.601,-1.612 1.194,-3.211 1.724,-4.806 0.944,-2.846 1.639,-5.724 1.972,-8.521 0.231,-1.945 0.291,-3.858 0.191,-5.777 -0.049,-0.914 -0.188,-1.803 -0.276,-2.712 z"
           id="path3146"
           style="fill:#aa98bd;marker-start:none;marker-end:none" />
      </g>
      <path
         d="m 277.728,109.912 -2.109,0.938 c 0.319,2.656 1.641,5.313 3.515,7.969 -0.907,-2.969 -1.975,-5.938 -1.406,-8.907 z"
         id="path3148"
         style="fill:#3a343a;marker-start:none;marker-end:none" />
      <path
         d="m 281.328,108.787 -2.109,1.139 c 0.319,3.225 1.641,6.451 3.515,9.676 -0.907,-3.605 -1.975,-7.21 -1.406,-10.815 z"
         id="path3150"
         style="fill:#3a343a;marker-start:none;marker-end:none" />
      <path
         d="m 256.196,117.95 -1.603,1.782 c 1.386,2.929 3.716,5.522 6.566,7.929 -2.067,-3.09 -4.286,-6.125 -4.963,-9.711 z"
         id="path3152"
         style="fill:#3a343a;marker-start:none;marker-end:none" />
      <path
         d="m 251.852,122.358 -0.814,2.255 c 2.386,2.192 5.521,3.718 9.067,4.875 -3.078,-2.085 -6.276,-4.062 -8.253,-7.13 z"
         id="path3154"
         style="fill:#3a343a;marker-start:none;marker-end:none" />
      <path
         d="m 303.9,99.724 -2.319,0.606 c -0.455,3.209 0.064,6.657 1.119,10.234 -0.026,-3.717 -0.208,-7.473 1.2,-10.84 z"
         id="path3156"
         style="fill:#3a343a;marker-start:none;marker-end:none" />
      <path
         d="m 309.432,99.349 -2.319,0.606 c -0.455,3.209 0.064,6.657 1.119,10.234 -0.026,-3.717 -0.208,-7.473 1.2,-10.84 z"
         id="path3158"
         style="fill:#3a343a;marker-start:none;marker-end:none" />
    </g>
  </g>
  <g
     transform="matrix(1,0,0,-1,-75.152,507.08166)"
     id="bandage"
     style="font-size:16px;fill:none;stroke:#000000;font-family:Times New Roman">
    <g
       id="Group_25"
       style="stroke:none">
      <path
         d="m 186.601,336.412 c 8.958,-67.688 -6.681,-105.627 0.309,-131.228 1.639,-30.938 -1.007,-59.074 -9.971,-85.878 6.545,6.532 8.563,17.906 19.245,12.077 9.444,-3.178 16.898,-7.362 22.857,1.229 2.275,5.845 5.901,8.929 10.95,9.099 0.262,18.18 -0.233,36.362 -2.161,54.542 0.152,15.721 -7.444,31.582 -5.596,48.982 -0.123,17.03 2.902,33.299 1.055,57.299 -2.825,12.021 -4.785,21.602 -4.53,34.65 -9.627,-5.836 -21.177,-0.216 -32.158,-0.772 z"
         id="path3162"
         style="fill:#3a343a;marker-start:none;marker-end:none" />
      <path
         d="m 189.524,336.413 c 8.959,-67.688 -6.681,-105.628 0.31,-131.228 1.639,-30.939 -4.23,-58.951 -13.193,-85.756 6.544,6.533 12.08,16.081 22.763,10.253 8.913,-8.596 16.419,-7.522 22.56,2.93 2.276,5.845 5.901,8.928 10.951,9.099 0.262,18.181 -0.232,36.363 -2.161,54.542 0.151,15.721 -7.444,31.582 -5.597,48.982 -0.122,17.031 2.904,33.3 1.056,57.299 -2.824,12.021 -4.785,21.601 -4.53,34.651 -9.627,-5.837 -21.177,-0.216 -32.159,-0.772 z"
         id="path3164"
         style="fill:#735f88;marker-start:none;marker-end:none" />
      <path
         d="m 199.404,129.682 c -1.533,0.836 -2.961,1.355 -4.3,1.613 0.669,7.153 1.301,14.321 1.797,21.571 0.213,3.119 0.38,6.268 0.524,9.424 0.352,7.769 0.418,16.044 -0.084,23.851 -0.284,4.404 -0.71,8.689 -1.332,12.873 -0.288,1.945 -0.642,3.845 -0.993,5.744 0.007,-0.035 0.015,-0.073 0.026,-0.108 -0.34,1.472 -0.61,2.979 -0.847,4.512 -1.235,7.99 -1.232,17.198 -0.732,25.612 0.68,11.444 2.086,22.517 3.7,33.496 0.599,4.089 1.226,8.186 1.873,12.251 0.198,1.253 0.418,2.488 0.617,3.728 0.287,1.769 0.521,3.596 0.697,5.426 0.603,6.279 0.64,13.25 0.076,19.65 -0.302,3.407 -0.801,6.666 -1.388,9.873 l 2.573,0.743 c 0.48,-2.584 0.924,-5.21 1.241,-7.902 0.572,-4.872 0.884,-9.925 0.882,-15.145 0,-1.337 -0.023,-2.679 -0.068,-3.997 -0.098,-2.736 -0.285,-5.42 -0.547,-8.048 -0.063,-0.63 -0.144,-1.256 -0.222,-1.882 -0.038,-0.313 -0.083,-0.617 -0.125,-0.926 -0.009,-0.065 -0.017,-0.127 -0.026,-0.191 -0.003,-0.016 -0.004,-0.034 -0.006,-0.049 -0.014,-0.095 -0.005,-0.024 0.001,0.004 -0.955,-8.269 -1.785,-16.599 -2.317,-25.097 -0.194,-3.062 -0.365,-6.16 -0.464,-9.263 -0.307,-9.738 -0.259,-20.053 1.08,-29.21 0.295,-2.028 0.633,-4.016 1.067,-5.95 0.423,-1.884 0.959,-3.663 1.468,-5.484 0.834,-3.004 1.588,-6.09 2.187,-9.237 0.61,-3.212 1.17,-6.462 1.627,-9.786 0.858,-6.251 1.35,-12.73 1.59,-19.363 0.07,-1.955 0.125,-3.939 0.142,-5.925 0.039,-4.557 -0.007,-9.051 -0.136,-13.491 -0.246,-8.324 -0.78,-16.499 -1.421,-24.619 -2.576,0.774 -5.296,2.538 -8.16,5.302 z m 16.827,37.17 c -0.072,4.87 -0.209,9.872 -0.507,14.864 -0.131,2.16 -0.284,4.296 -0.438,6.411 -0.083,1.13 -0.187,2.256 -0.296,3.37 -0.274,2.779 -0.571,5.507 -0.935,8.193 -0.343,2.53 -0.733,4.996 -1.156,7.443 0.006,-0.038 0.015,-0.072 0.024,-0.107 -0.294,1.46 -0.54,2.957 -0.763,4.481 -1.176,7.957 -1.518,17.123 -1.531,25.541 -0.01,5.76 0.144,11.423 0.366,17.036 0.216,5.534 0.51,11.018 0.843,16.476 0.25,4.096 0.518,8.198 0.799,12.27 0.089,1.255 0.189,2.494 0.279,3.735 0.128,1.772 0.214,3.602 0.262,5.433 0.162,6.28 -0.091,13.234 -0.734,19.609 -0.345,3.391 -0.818,6.636 -1.348,9.818 l 1.74,0.803 c 0.436,-2.569 0.847,-5.173 1.171,-7.858 0.589,-4.847 1.008,-9.88 1.213,-15.09 0.054,-1.334 0.092,-2.674 0.113,-3.99 0.044,-2.734 0.022,-5.414 -0.055,-8.043 -0.016,-0.632 -0.047,-1.257 -0.077,-1.885 -0.014,-0.312 -0.033,-0.617 -0.049,-0.927 -0.004,-0.062 -0.007,-0.127 -0.009,-0.192 l -0.004,-0.046 -0.001,-0.012 0.001,0.005 c -0.004,-0.09 -0.003,-0.02 -0.001,-0.005 -0.445,-11.318 -0.719,-22.797 -0.534,-34.591 0.08,-5.203 0.261,-10.645 0.626,-15.922 0.316,-4.598 0.716,-9.082 1.34,-13.368 0.297,-2.059 0.618,-4.066 1.019,-6.019 0.394,-1.91 0.864,-3.723 1.285,-5.601 0.681,-3.052 1.313,-6.16 1.87,-9.343 1.619,-9.255 2.659,-19.068 3.301,-29.296 0.498,-7.953 0.715,-15.944 0.786,-23.668 0.025,-2.898 0.032,-5.78 0.022,-8.65 -1.131,-1.362 -2.093,-3.07 -2.889,-5.115 -1.954,-3.326 -4.046,-5.703 -6.278,-7.12 0.355,13.67 0.755,27.304 0.545,41.36 z"
         id="path3166"
         style="fill:#3a343a;marker-start:none;marker-end:none" />
      <path
         d="m 202.219,127.252 c 0.501,7.313 0.969,14.642 1.299,22.056 0.143,3.215 0.239,6.462 0.312,9.714 0.176,8.01 0.056,16.542 -0.623,24.591 -0.384,4.542 -0.908,8.959 -1.624,13.274 -0.333,2.005 -0.729,3.964 -1.125,5.923 0.009,-0.038 0.019,-0.075 0.03,-0.112 -0.375,1.52 -0.678,3.072 -0.949,4.653 -1.418,8.24 -1.623,17.733 -1.313,26.406 0.422,11.798 1.58,23.212 2.946,34.53 0.51,4.215 1.042,8.437 1.599,12.628 0.17,1.291 0.361,2.566 0.534,3.841 0.248,1.826 0.439,3.708 0.575,5.595 0.462,6.473 0.339,13.659 -0.37,20.26 -0.378,3.512 -0.951,6.873 -1.611,10.181 l 2.558,0.761 c 0.54,-2.666 1.043,-5.371 1.422,-8.148 0.682,-5.025 1.108,-10.232 1.223,-15.615 0.031,-1.38 0.039,-2.764 0.023,-4.121 -0.034,-2.823 -0.162,-5.588 -0.366,-8.296 -0.047,-0.651 -0.116,-1.296 -0.179,-1.942 -0.031,-0.321 -0.069,-0.636 -0.105,-0.951 -0.007,-0.067 -0.014,-0.134 -0.022,-0.2 -0.001,-0.018 -0.001,-0.034 -0.004,-0.05 -0.011,-0.097 -0.004,-0.025 0.003,0.006 -0.769,-8.526 -1.411,-17.112 -1.755,-25.875 -0.123,-3.154 -0.224,-6.349 -0.253,-9.547 -0.088,-10.04 0.193,-20.676 1.739,-30.117 0.342,-2.092 0.726,-4.141 1.204,-6.135 0.466,-1.943 1.044,-3.777 1.592,-5.655 0.903,-3.099 1.726,-6.281 2.398,-9.526 0.684,-3.313 1.316,-6.665 1.848,-10.092 1.001,-6.445 1.64,-13.126 2.031,-19.966 0.113,-2.016 0.214,-4.06 0.275,-6.107 0.143,-4.699 0.199,-9.332 0.169,-13.909 -0.046,-6.8 -0.274,-13.505 -0.595,-20.161 -3.88,-2.152 -8.173,-1.466 -12.886,2.106 z m 20.33,36.453 c -0.181,5.019 -0.432,10.177 -0.844,15.323 -0.181,2.228 -0.381,4.432 -0.584,6.612 -0.108,1.164 -0.237,2.326 -0.371,3.475 -0.337,2.864 -0.696,5.679 -1.12,8.446 -0.402,2.61 -0.848,5.154 -1.326,7.677 0.008,-0.04 0.016,-0.075 0.024,-0.112 -0.325,1.508 -0.605,3.051 -0.863,4.622 -1.355,8.205 -1.906,17.654 -2.109,26.333 -0.14,5.939 -0.113,11.777 -0.019,17.565 0.091,5.704 0.262,11.358 0.473,16.984 0.158,4.223 0.332,8.451 0.523,12.649 0.059,1.293 0.132,2.571 0.195,3.851 0.085,1.827 0.131,3.713 0.138,5.6 0.021,6.476 -0.39,13.647 -1.178,20.218 -0.42,3.497 -0.968,6.842 -1.572,10.124 l 1.725,0.825 c 0.494,-2.649 0.962,-5.332 1.35,-8.102 0.698,-5 1.232,-10.186 1.554,-15.558 0.084,-1.377 0.154,-2.759 0.204,-4.116 0.105,-2.817 0.143,-5.581 0.126,-8.29 -0.002,-0.654 -0.019,-1.297 -0.034,-1.944 -0.009,-0.321 -0.019,-0.637 -0.029,-0.955 -0.003,-0.065 -0.004,-0.131 -0.004,-0.198 l -0.003,-0.05 0,-0.005 0,-0.006 c -0.002,-0.014 -0.003,-0.087 0,0.005 l 0,-0.005 c -0.19,-11.669 -0.206,-23.502 0.245,-35.66 0.198,-5.367 0.502,-10.976 0.987,-16.417 0.421,-4.742 0.921,-9.365 1.642,-13.785 0.345,-2.123 0.71,-4.193 1.158,-6.206 0.437,-1.969 0.949,-3.84 1.412,-5.775 0.752,-3.148 1.454,-6.354 2.082,-9.635 1.83,-9.542 3.094,-19.662 3.967,-30.207 0.678,-8.2 1.075,-16.439 1.321,-24.404 0.009,-0.328 0.019,-0.655 0.029,-0.982 -3.737,-0.52 -6.617,-2.792 -8.674,-6.747 0.004,9.515 -0.07,19.083 -0.425,28.85 z"
         id="path3168"
         style="fill:#aa98bd;marker-start:none;marker-end:none" />
    </g>
  </g>
  <g
     transform="matrix(1,0,0,-1,-75.152,507.08166)"
     id="rightTigh"
     style="font-size:16px;fill:none;stroke:#000000;font-family:Times New Roman">
    <g
       id="Group_27"
       style="stroke:none">
      <g
         id="Group_28">
        <path
           d="m 170.74911,204.788 c 0,0 -16.3158,48.72229 -12.08614,74.21877 -5.1088,6.79043 -9.26735,17.25101 -8.75676,26.62861 2.16031,20.45987 23.53909,25.80382 36.59566,11.1299 3.02173,-3.96565 4.84373,-9.49057 9.4388,-17.02017 13.9282,-22.30572 15.26117,-60.02973 9.6602,-87.74838 -3.01593,-25.40143 -32.76785,-34.87367 -34.85176,-7.20873 z"
           id="path3189"
           style="fill:#ccc57c" />
        <path
           d="m 173.416,286.134 c -5.67554,-39.95553 -1.27276,-65.37686 4.21664,-74.74164 5.48939,-9.36479 -7.23571,-22.18746 -6.58265,-4.48154 -6.07501,24.23381 -12.9971,61.40842 -10.29299,77.10059 0.1857,8.42077 10.052,9.96627 12.659,2.12259 z"
           id="path3191"
           style="fill:#9c9866;marker-start:none;marker-end:none" />
      </g>
      <path
         d="m 186.697,280.332 c 6.407,-16.403 12.221,-33.841 11.962,-61.861 1.744,-9.766 -4.677,-26.973 -6.608,-25.616 9.706,6.66 12.742,16.984 13.577,28.517 2.106,19.024 1.955,40.544 -7.12,71.934 -4.338,9.884 -21.962,13.874 -11.811,-12.974 z"
         id="path3193"
         style="fill:#dfdaac;marker-start:none;marker-end:none" />
    </g>
  </g>
  <g
     transform="matrix(1,0,0,-1,-75.152,507.08166)"
     id="bell"
     style="font-size:16px;fill:none;stroke:#000000;font-family:Times New Roman">
    <g
       id="Group_26"
       style="stroke:none">
      <path
         d="m 233.848,320.145 c -19.52,-11.397 -62.365,-10.271 -73.577,9.772 -2.164,11.406 -0.247,29.264 4.408,24.707 20.467,-20.03 67.851,-14.175 67.407,-8.345 1.441,0.132 2.934,-2.19 3.867,-2.842 3.37,-2.357 0.446,-11.845 0.409,-14.457 -0.056,-3.991 0.685,-6.387 -2.514,-8.835 z"
         id="path3172"
         style="fill:#735f88;marker-start:none;marker-end:none" />
      <path
         d="m 160.271,329.917 c -2.164,11.406 -0.247,29.264 4.408,24.707 4.534,-4.438 10.39,-7.606 16.754,-9.784 l -1.285,-1.703 c -0.635,-5.12 0.259,-20.687 1.259,-27.615 -9.359,2.649 -17.199,7.354 -21.136,14.395 z"
         id="path3174"
         style="fill:#3a343a;marker-start:none;marker-end:none" />
      <path
         d="m 166.905,347.89 c -1.398,-6.334 31.692,-19.542 55.631,-14.422 -15.091,-4.671 -30.222,-4.611 -46.004,0.811 l -0.023,-7.622 c 19.239,-6.267 49.245,-4.564 56.076,1.416 -15.033,-10.397 -51.513,-10.585 -56.934,-5.514 l -6.716,17.385 -2.03,7.946 z"
         id="path3176"
         style="fill:#3a343a;marker-start:none;marker-end:none" />
      <path
         d="m 181.13,341.761 c 19.583,-3.095 38.67,-5.324 51.585,3.14 l 2.328,-1.799 c -13.184,-7.913 -30.192,-9.861 -53.913,-1.341 z"
         id="path3178"
         style="fill:#aa98bd;marker-start:none;marker-end:none" />
      <path
         d="m 181.425,328.628 c 19.626,-2.176 38.735,-3.51 51.413,5.568 2.212,0.886 2.799,0.113 2.369,-1.69 -12.96,-8.538 -29.888,-11.287 -53.782,-3.878 z"
         id="path3180"
         style="fill:#aa98bd;marker-start:none;marker-end:none" />
      <path
         d="m 181.96,318.554 c 19.647,-0.795 38.747,-0.783 51.043,9.191 2.171,1.041 2.786,0.31 2.425,-1.524 -12.597,-9.455 -29.368,-13.398 -53.468,-7.667 z"
         id="path3182"
         style="fill:#aa98bd;marker-start:none;marker-end:none" />
      <path
         d="m 160.211,336.185 c 6.793,-2.9 13.539,-5.676 20.04,-7.814 0.051,-0.899 0.107,-1.797 0.168,-2.683 -6.236,2.347 -12.947,5.786 -20.208,10.497 z m -0.226,10.58 c 6.763,-2.888 13.479,-5.65 19.954,-7.786 -0.008,-0.816 -0.005,-1.695 0.009,-2.618 -6.167,2.345 -12.796,5.755 -19.963,10.404 z"
         id="path3184"
         style="fill:#735f88;marker-start:none;marker-end:none" />
    </g>
  </g>
  <g
     transform="matrix(1,0,0,-1,-75.152,507.08166)"
     id="rightFoot"
     style="font-size:16px;fill:none;stroke:#000000;font-family:Times New Roman">
    <g
       id="Group_29"
       style="stroke:none">
      <g
         id="Group_30">
        <path
           d="m 187.533,166.948 -20.069,2.399 -12.021,0.658 c -4.944,8.921 6.52179,23.45878 14.84079,36.15878 10.07399,-3.79361 31.53529,2.11596 29.11469,-11.38082 L 187.533,166.948 z"
           id="path3198"
           style="fill:#ccc57c;marker-start:none;marker-end:none" />
        <path
           d="m 170.65043,204.38581 c -0.45045,4.50991 6.70405,5.81642 4.22251,-1.16872 -2.48155,-6.98513 -7.32158,-9.82036 -7.86594,-28.62509 l -8.701,-3.119 c -1.304,8.716 4.90843,21.56181 12.34443,32.91281 z"
           id="path3200"
           style="fill:#9c9866;marker-start:none;marker-end:none" />
      </g>
      <g
         id="Group_31">
        <path
           d="m 163.023,100.22 c -3.39,8.227 -16.64,20.98 -29.136,5.807 l -0.382,-0.299 c 5.101,5.967 8.019,10.633 8.713,16.056 -0.521,20.131 4.897,48.347 13.915,61.536 7.379,-6.987 34.996,-6.264 37.834,-2.195 6.38632,4.02456 1.9514,-4.13877 0.24,-6.933 -21.087,-23.51 -29.577,-48.221 -31.184,-73.972 z"
           id="path3203"
           style="fill:#735f88;marker-start:none;marker-end:none" />
        <path
           d="m 163.021,100.225 c -12.02,-18.516 -34.125,-9.298 -29.134,5.802 l -0.39,-0.305 c 5.106,5.969 8.026,10.638 8.72,16.063 -0.005,0.214 -0.012,0.431 -0.016,0.647 5.72,-3.975 13.014,-6.387 23.062,-4.756 -1.149,-5.761 -1.874,-11.58 -2.242,-17.451 z"
           id="path3205"
           style="fill:#8a74a0;marker-start:none;marker-end:none" />
        <path
           d="m 144.095,147.125 c 1.013,6.331 2.411,12.604 4.147,18.333 9.112,-4.365 20.215,-13.238 26.169,-20.399 -3.858,-7.975 -6.617,-16.072 -8.485,-24.283 l -2.077,-2.936 c 0.41,11.053 -5.326,20.971 -19.754,29.285 z"
           id="path3207"
           style="fill:#8a74a0;marker-start:none;marker-end:none" />
        <path
           d="m 148.815,120.717 -5.537,2.426 c 0.634,7.584 1.907,22.752 2.15,22.375 0.24,-0.377 5.194,-4.104 7.347,-5.893 -0.123,-0.449 -2.681,-12.756 -3.96,-18.908 z"
           id="path3209"
           style="fill:#3a343a;marker-start:none;marker-end:none" />
        <path
           d="m 174.238,144.605 -15.085,12.42 c 11.358,7.923 22.616,13.399 33.749,15.695 -7.257,-8.32 -13.027,-16.924 -18.664,-28.115 z"
           id="path3211"
           style="fill:#8a74a0;marker-start:none;marker-end:none" />
        <path
           d="m 161.165,159.55 -11.107,7.418 c 0.05,0.189 6.731,13.615 6.886,14.179 5.104,-3.442 12.451,-4.472 19.516,-5.799 -8.261,-2.728 -12.029,-9.063 -15.295,-15.798 z"
           id="path3213"
           style="fill:#3a343a;marker-start:none;marker-end:none" />
        <path
           d="m 166.065,149.79 c -1.651,1.498 -3.327,2.969 -5.037,4.414 -2.178,1.846 -4.346,3.718 -6.574,5.468 -1.233,0.972 -2.479,1.9 -3.792,2.765 -0.37,0.242 -0.761,0.459 -1.182,0.637 -0.119,0.048 -0.308,0.112 -0.42,0.106 l -0.324,0.879 c 0.371,0.136 0.796,0.083 1.214,-0.046 0.536,-0.165 1.034,-0.386 1.511,-0.614 1.498,-0.721 2.873,-1.606 4.209,-2.518 2.381,-1.621 4.66,-3.411 6.848,-5.264 3.084,-2.609 5.962,-5.45 8.622,-8.522 0.888,-1.025 1.69,-2.127 2.566,-3.186 l -0.792,-0.592 c -2.172,2.285 -4.521,4.357 -6.849,6.473 z"
           id="path3215"
           style="fill:#aa98bd;marker-start:none;marker-end:none" />
        <path
           d="m 163.364,123.929 c -0.125,0.635 -0.292,1.268 -0.454,1.894 -0.284,1.099 -0.592,2.204 -0.997,3.287 -0.997,2.657 -2.212,5.36 -4.082,7.719 -0.475,0.602 -0.971,1.19 -1.474,1.758 -0.701,0.783 -1.496,1.494 -2.294,2.168 -1.856,1.566 -3.984,2.897 -6.284,3.98 -1.109,0.519 -2.254,1.004 -3.416,1.475 l 0.339,0.874 c 1.058,-0.297 2.081,-0.594 3.074,-0.944 1.945,-0.689 3.721,-1.531 5.368,-2.512 3.549,-2.114 6.415,-5.067 8.432,-8.735 0.938,-1.709 1.616,-3.452 2.158,-5.244 0.634,-2.103 1.009,-4.289 1.203,-6.49 0.057,-0.612 0.089,-1.222 0.128,-1.834 0.033,-0.54 0.012,-1.087 0.055,-1.628 l -1.011,-0.071 c -0.17,1.451 -0.475,2.876 -0.745,4.303 z"
           id="path3217"
           style="fill:#aa98bd;marker-start:none;marker-end:none" />
        <path
           d="m 149.546,117.045 c -2.679,0.871 -5.126,1.962 -7.469,3.206 l 0.409,0.849 c 5.138,-1.669 10.892,-3.345 16.302,-3.956 1.442,-0.164 2.846,-0.304 4.261,-0.339 0.647,-0.019 1.303,-0.057 1.95,-0.024 l 0.092,-0.94 c -0.774,-0.107 -1.533,-0.258 -2.322,-0.323 -1.452,-0.118 -2.936,-0.192 -4.44,-0.108 -2.838,0.159 -5.929,0.706 -8.783,1.635 z"
           id="path3219"
           style="fill:#aa98bd;marker-start:none;marker-end:none" />
        <path
           d="m 145.843,124.247 1.744,1.645 c 2.963,-1.316 5.611,-3.585 8.084,-6.377 -3.139,1.994 -6.228,4.141 -9.828,4.732 z"
           id="path3221"
           style="fill:#3a343a;marker-start:none;marker-end:none" />
        <path
           d="m 147.53,129.685 1.744,1.645 c 2.963,-1.316 5.611,-3.585 8.084,-6.377 -3.139,1.994 -6.228,4.141 -9.828,4.732 z"
           id="path3223"
           style="fill:#3a343a;marker-start:none;marker-end:none" />
        <path
           d="m 148.374,138.497 1.744,1.645 c 2.963,-1.316 5.611,-3.585 8.084,-6.377 -3.139,1.994 -6.228,4.141 -9.828,4.732 z"
           id="path3225"
           style="fill:#3a343a;marker-start:none;marker-end:none" />
        <path
           d="m 160.563,161.127 1.011,2.175 c 1.696,-3.231 4.708,-5.485 7.589,-7.836 -3.429,1.467 -6.417,3.264 -8.6,5.661 z"
           id="path3227"
           style="fill:#3a343a;marker-start:none;marker-end:none" />
        <path
           d="m 162.513,166.377 1.011,2.175 c 1.696,-3.231 4.708,-5.485 7.589,-7.836 -3.429,1.467 -6.417,3.264 -8.6,5.661 z"
           id="path3229"
           style="fill:#3a343a;marker-start:none;marker-end:none" />
        <path
           d="m 169.863,172.827 1.011,2.175 c 1.696,-3.231 4.708,-5.485 7.589,-7.836 -3.429,1.467 -6.417,3.264 -8.6,5.661 z"
           id="path3231"
           style="fill:#3a343a;marker-start:none;marker-end:none" />
      </g>
    </g>
  </g>
  <g
     transform="matrix(1,0,0,-1,-75.152,507.08166)"
     id="rightSole"
     style="font-size:16px;fill:none;stroke:#000000;font-family:Times New Roman">
    <g
       id="Group_32"
       style="stroke:none">
      <g
         id="Group_33">
        <g
           id="Group_34">
          <path
             d="m 155.655,56.146 c -7.131,7.876 -13.454,19.865 -21.879,24.715 -6.92,4.193 -8.236,11.252 -2.809,21.121 1.184,1.305 2.286,2.542 3.3,3.728 l 0.382,0.298 c 12.496,15.174 25.746,2.42 29.136,-5.806 -0.021,-0.342 -0.042,-0.686 -0.061,-1.029 7.326,-13.218 1.869,-23.349 17.993,-30.423 5.308,-2.718 10.615,-10 3.938,-14.154 -8.664,-2.365 -17.66,-11.037 -30,1.55 z"
             id="path3237"
             style="fill:#735f88;marker-start:none;marker-end:none" />
          <path
             d="m 166.149,52.083 0.657,3.958 c 6.624,-2.549 13.667,-1.533 21.089,2.655 -4.382,-6.4 -20.154,-9.836 -21.746,-6.613 z"
             id="path3239"
             style="fill:#3a343a;marker-start:none;marker-end:none" />
          <path
             d="m 159.981,52.399 c -3.764,1.465 -4.143,5.32 -3.139,7.393 5.36,6.693 9.146,13.991 11.948,21.665 2.181,-3.304 4.585,-6.465 7.379,-9.332 -0.294,-9.552 -1.841,-18.018 -7.918,-22.583 -1.956,1.254 -6.213,0.756 -8.27,2.857 z"
             id="path3241"
             style="fill:#8a74a0;marker-start:none;marker-end:none" />
          <path
             d="m 134.132,82.722 c 7.567,7.424 15.765,14.176 30.922,13.522 1.733,-5.25 3.39,-10.684 5.513,-15.944 -8.621,0.833 -20.35,-4.611 -24.372,-9.45 -4.501,4.947 -8.99,9.366 -12.063,11.872 z"
             id="path3243"
             style="fill:#8a74a0;marker-start:none;marker-end:none" />
          <path
             d="m 132.909,104.153 c 0.466,0.527 0.916,1.044 1.35,1.551 l 0.39,0.304 c 12.495,15.172 25.742,2.424 29.134,-5.801 -0.022,-0.345 -0.041,-0.69 -0.06,-1.035 0.017,-0.031 0.034,-0.062 0.053,-0.095 -13.521,-0.507 -23.014,2.847 -30.867,5.076 z"
             id="path3245"
             style="fill:#8a74a0;marker-start:none;marker-end:none" />
          <path
             d="m 155.372,60.013 -8.254,10.056 5.58,4.078 6.311,-9.214 -3.637,-4.92 z"
             id="path3247"
             style="fill:#3a343a;marker-start:none;marker-end:none" />
          <path
             d="m 135.155,102.839 6.22,-2.888 c -1.861,0.005 -4.672,-6.864 -2.317,-10.517 l -5.793,-5.894 c -6.018,4.184 -6.183,10.347 1.89,19.299 z"
             id="path3249"
             style="fill:#3a343a;marker-start:none;marker-end:none" />
          <path
             d="m 155.009,99.555 c -3.485,0.307 -7.302,1.029 -10.854,2.122 -3.341,1.025 -6.403,2.261 -9.347,3.648 l 0.447,0.84 c 6.394,-1.965 13.546,-3.972 20.21,-4.876 1.776,-0.244 3.507,-0.46 5.24,-0.573 0.796,-0.052 1.598,-0.125 2.39,-0.127 l 0.172,-0.958 c -0.945,-0.068 -1.862,-0.179 -2.824,-0.203 -1.775,-0.045 -3.583,-0.042 -5.434,0.127 z"
             id="path3251"
             style="fill:#aa98bd;marker-start:none;marker-end:none" />
          <path
             d="m 136.388,82.701 -0.695,0.683 c 2.765,2.795 5.696,5.338 8.986,7.525 1.424,0.946 2.953,1.765 4.539,2.525 2.275,1.091 4.898,1.876 7.383,2.225 1.94,0.274 3.924,0.338 5.879,0.09 0.534,-0.069 1.06,-0.141 1.603,-0.241 0.458,-0.085 0.91,-0.212 1.369,-0.289 l -0.161,-0.931 c -0.835,0.136 -1.699,0.173 -2.519,0.192 -2.417,0.053 -4.909,-0.194 -7.29,-0.879 -0.818,-0.237 -1.651,-0.483 -2.464,-0.775 -2.128,-0.759 -4.073,-1.744 -5.959,-2.793 -1.971,-1.099 -3.866,-2.348 -5.684,-3.641 -1.684,-1.199 -3.335,-2.437 -4.987,-3.691 z"
             id="path3253"
             style="fill:#aa98bd;marker-start:none;marker-end:none" />
          <path
             d="m 145.855,71.353 -0.599,0.595 c 2.393,2.417 4.93,4.618 7.777,6.512 1.234,0.819 2.556,1.529 3.931,2.189 1.97,0.941 4.241,1.622 6.391,1.924 1.681,0.236 3.4,0.294 5.093,0.078 0.458,-0.058 0.914,-0.121 1.388,-0.208 0.394,-0.073 0.786,-0.185 1.181,-0.251 l -0.136,-0.805 c -0.725,0.116 -1.473,0.15 -2.18,0.166 -2.093,0.046 -4.251,-0.169 -6.314,-0.762 -0.706,-0.205 -1.43,-0.418 -2.135,-0.671 -1.839,-0.658 -3.526,-1.511 -5.155,-2.418 -1.71,-0.951 -3.351,-2.033 -4.922,-3.152 -1.46,-1.038 -2.889,-2.109 -4.32,-3.197 z"
             id="path3255"
             style="fill:#aa98bd;marker-start:none;marker-end:none" />
          <path
             d="m 158.454,59.016 -0.781,0.601 c 0.644,0.796 1.213,1.664 1.804,2.507 3.737,5.336 6.252,11.662 9.433,17.495 l 0.932,-0.335 c -0.544,-1.705 -1.088,-3.395 -1.684,-5.041 -1.063,-2.94 -2.372,-5.75 -3.948,-8.268 -1.097,-1.75 -2.324,-3.368 -3.698,-4.892 -0.652,-0.724 -1.372,-1.373 -2.058,-2.067 z"
             id="path3257"
             style="fill:#aa98bd;marker-start:none;marker-end:none" />
          <path
             d="m 170.135,50.779 -0.921,0.401 c 0.406,0.922 0.717,1.893 1.056,2.85 2.145,6.048 2.84,12.757 4.313,19.154 l 0.991,-0.104 c -0.056,-1.779 -0.116,-3.54 -0.241,-5.276 -0.223,-3.094 -0.712,-6.12 -1.546,-8.927 -0.578,-1.953 -1.319,-3.809 -2.228,-5.606 -0.433,-0.858 -0.951,-1.653 -1.424,-2.492 z"
             id="path3259"
             style="fill:#aa98bd;marker-start:none;marker-end:none" />
        </g>
        <path
           d="m 153.396,69.165 -1.118,2.121 c 2.061,2.501 4.958,4.444 8.31,6.078 -2.762,-2.488 -5.657,-4.888 -7.192,-8.199 z"
           id="path3261"
           style="fill:#3a343a;marker-start:none;marker-end:none" />
        <path
           d="m 154.45,64.244 -1.116,2.121 c 2.061,2.501 4.956,4.444 8.309,6.078 -2.762,-2.488 -5.657,-4.889 -7.193,-8.199 z"
           id="path3263"
           style="fill:#3a343a;marker-start:none;marker-end:none" />
        <path
           d="m 177.139,52.386 -2.277,0.747 c -0.259,3.231 0.47,6.642 1.744,10.148 -0.255,-3.71 -0.666,-7.448 0.533,-10.895 z"
           id="path3265"
           style="fill:#3a343a;marker-start:none;marker-end:none" />
        <path
           d="m 181.006,54.026 -2.278,0.748 c -0.258,3.23 0.471,6.641 1.745,10.146 -0.256,-3.709 -0.666,-7.447 0.533,-10.894 z"
           id="path3267"
           style="fill:#3a343a;marker-start:none;marker-end:none" />
        <path
           d="m 135.905,88.157 -0.279,2.38 c 2.822,1.592 6.224,2.363 9.939,2.682 -3.472,-1.329 -7.037,-2.527 -9.66,-5.062 z"
           id="path3269"
           style="fill:#3a343a;marker-start:none;marker-end:none" />
        <path
           d="m 135.85,97.573 0.52,2.341 c 3.19,0.576 6.655,0.186 10.268,-0.733 -3.715,-0.114 -7.476,-0.074 -10.788,-1.608 z"
           id="path3271"
           style="fill:#3a343a;marker-start:none;marker-end:none" />
        <path
           d="m 133.787,92.699 0.52,2.341 c 3.19,0.576 6.655,0.186 10.269,-0.733 -3.717,-0.114 -7.477,-0.074 -10.789,-1.608 z"
           id="path3273"
           style="fill:#3a343a;marker-start:none;marker-end:none" />
      </g>
    </g>
  </g>
  <g
     transform="matrix(1,0,0,-1,-75.152,507.08166)"
     id="closeGown"
     style="font-size:16px;fill:none;stroke:#000000;font-family:Times New Roman">
    <g
       id="Group_35"
       style="stroke:none">
      <path
         d="m 201.391,452.278 c 6.571,-20.136 7.057,-53.704 -6.922,-120.365 -30.233,-86.429 -42.858,-178.149 -20.401,-231.484 -39.14,24.334 -63.616,13.228 -68.161,58.326 -2.611,14.634 -13.884,22.194 -30.755,25.179 4.251,53.371 54.449,48.95 98.465,252.278 2.298,11.778 21.956,12.801 27.774,16.066 z"
         id="path3277"
         style="fill:#735f88;marker-start:none;marker-end:none" />
      <path
         d="m 105.907,158.755 c -2.611,14.634 -13.884,22.194 -30.755,25.179 4.251,53.371 54.449,48.95 98.465,252.278 2.298,11.778 21.956,12.801 27.774,16.066 0.306,-0.938 0.599,-1.906 0.878,-2.906 -12.738,-5.501 -23.324,-20.996 -21.03,-27.295 53.629,-73.497 -70.103,-135.501 -37.48,-307.151 -21.387,8.132 -34.63,11.852 -37.852,43.829 z"
         id="path3279"
         style="fill:#3a343a;marker-start:none;marker-end:none" />
      <path
         d="m 182.545,298.974 2.922,9.745 c 14.857,44.074 19.749,86.176 15.804,124.567 -0.535,5.211 -0.557,10.201 2.014,17.423 9.272,-48.977 -0.325,-100.741 -16.463,-153.199 l -0.037,-0.112 C 163.164,232.066 158.381,166.057 173.905,100.767 l -8.343,4.698 c -14.766,62.101 -7.332,119.111 12.759,181.179 l 4.224,12.33 z"
         id="path3281"
         style="fill:#fffc00;fill-rule:evenodd;marker-start:none;marker-end:none" />
      <path
         d="m 84.924,181.454 c 0.275,9.59 3.201,20.417 12.425,31.232 13.123,18.155 24.814,36.954 30.75,58.329 -4.946,-31.747 -16.818,-86.556 -23.356,-107.71 -3.051,8.955 -9.982,14.739 -19.819,18.149 z"
         id="path3283"
         style="fill:#735f88;marker-start:none;marker-end:none" />
      <path
         d="m 150.784,112.171 c -9.573,45.399 -6.993,88.685 3.419,130.609 5.312,20.537 14.615,48.649 33.75,95.419 -36.8,-94.02 -41.129,-168.451 -25.895,-231.086 -3.944,1.955 -7.705,3.6 -11.274,5.058 z m -62.389,67.927 c -0.18,10.123 14.726,29.918 22.108,45.184 L 96.097,175.539 c -2.245,1.784 -4.822,3.294 -7.702,4.559 z"
         id="path3285"
         style="fill:#aa98bd;marker-start:none;marker-end:none" />
    </g>
  </g>
  <g
     transform="matrix(1,0,0,-1,-75.152,507.08166)"
     id="rightShoulder"
     style="font-size:16px;fill:none;stroke:#000000;font-family:Times New Roman">
    <g
       id="Group_36"
       style="stroke:none">
      <g
         id="Group_37">
        <path
           d="m 190.724,428.897 c 2.294,-7.93 -1.838,-14.42 -7.982,-19.225 -7.99,-15.374 -43.712,-35.263 -45.157,-39.105 0.153,-14.375 -29.432,-23.063 -27.319,-0.1 3.095,12.923 32.736,30.449 57.13,56.788 8.38,9.41 19.458,9.838 23.328,1.642 z"
           id="path3290"
           style="fill:#ccc57c;marker-start:none;marker-end:none" />
        <path
           d="m 184.425,425.844 -58.828,-50.39 c 3.89,0.006 6.639,-1.515 8.672,-3.985 13.654,13.989 38.459,27.933 50.156,45 1.959,4.805 2.395,8.303 0,9.375 z"
           id="path3292"
           style="fill:#dfdaac;marker-start:none;marker-end:none" />
        <path
           d="m 115.988,374.516 c 16.13,17.832 35.141,36.143 55.078,54.609 5.024,4.004 8.367,3.236 10.43,-1.15 -19.633,-13.284 -40.272,-30.843 -61.875,-52.5 -1.686,-1.742 -2.76,-1.652 -3.633,-0.959 z"
           id="path3294"
           style="fill:#9c9866;marker-start:none;marker-end:none" />
      </g>
      <g
         id="Group_38">
        <g
           id="Group_39">
          <path
             d="m 165.363,391.98 c -10.499,4.628 -21.444,3.916 -32.396,3.101 -1.442,3.356 1.645,5.014 6.82,5.889 8.07,2.88 16.681,2.525 25.576,0.466 -5.688,3.792 -12.147,5.531 -19.066,6.044 -0.205,3.751 2.271,4.609 6.356,5.581 10.059,2.045 18.105,-2.235 25.266,-9.3 -1.143,-5.639 -4.865,-9.827 -12.556,-11.781 z m 19.996,20.771 c -8.321,4.25 -17.54,6.167 -27.901,5.116 -1.647,3.539 0.922,5.819 6.2,6.509 8.371,1.635 16.741,-0.168 25.111,-3.875 2.032,-4.075 1.541,-6.963 -3.41,-7.75 z"
             id="path3298"
             style="fill:#735f88;marker-start:none;marker-end:none" />
          <path
             d="m 149.279,397.438 6.176,5.516 c 3.253,-0.21 6.56,-0.744 9.908,-1.518 -0.378,0.251 1.224,0.721 0.901,1.026 -1.734,1.636 -4.791,3.668 -7.031,4.453 l 5.81,5.41 c 3.191,-1.092 6.168,-2.856 8.992,-5.101 l -10.7,-12.145 c -4.622,1.553 -9.32,2.194 -14.056,2.359 z m 22.497,21.57 5.47,5.245 c 3.034,-0.594 6.067,-1.529 9.1,-2.734 l -4.379,-5.229 c -3.26,1.264 -6.652,2.181 -10.191,2.718 z"
             id="path3300"
             style="fill:#aa98bd;marker-start:none;marker-end:none" />
          <path
             d="m 134.086,395.163 5.318,5.74 c 0.126,0.022 0.254,0.045 0.383,0.067 3.016,1.076 6.109,1.701 9.263,1.953 -2.527,-2.936 -4.673,-5.52 -6.005,-7.272 -2.979,-0.071 -5.968,-0.269 -8.959,-0.488 z m 12.211,12.317 c -0.017,0.307 -0.016,0.595 0.003,0.865 l 3.698,3.992 c 0.782,0.262 1.672,0.49 2.655,0.724 2.019,0.41 3.957,0.566 5.823,0.495 -2.049,-2.253 -4.155,-4.606 -6.155,-6.878 -1.962,0.39 -3.973,0.649 -6.024,0.802 z m 10.666,12.374 3.526,3.806 c 0.904,0.319 1.966,0.558 3.169,0.716 1.902,0.371 3.804,0.565 5.706,0.6 -1.521,-1.422 -3.907,-3.883 -6.657,-6.827 -1.717,-0.009 -3.466,-0.102 -5.249,-0.282 -0.333,0.714 -0.494,1.378 -0.495,1.987 z"
             id="path3302"
             style="fill:#3a343a;marker-start:none;marker-end:none" />
        </g>
        <path
           d="m 169.019,407.384 c 2.612,-1.781 5.013,-3.667 6.328,-6.094 l -6.093,3.633 3.515,-3.633 -7.031,-1.758 2.461,-4.453 -4.57,-0.234 c -0.625,0.702 -1.875,2.108 -1.641,2.226 0.234,0.118 3.906,3.399 5.742,5.04 l 1.289,5.273 z"
           id="path3304"
           style="fill:#aa98bd;marker-start:none;marker-end:none" />
        <path
           d="m 184.623,422.149 c 1.492,-1.017 2.863,-2.094 3.614,-3.48 l -3.48,2.074 2.007,-2.074 -4.015,-1.004 1.406,-2.543 -2.61,-0.134 c -0.357,0.401 -1.071,1.204 -0.937,1.271 0.134,0.068 2.231,1.941 3.279,2.878 l 0.736,3.012 z"
           id="path3306"
           style="fill:#aa98bd;marker-start:none;marker-end:none" />
      </g>
      <path
         d="m 152.531,409.24 c 4.722,0.856 8.838,-0.863 12.75,-3.45 -2.459,3.019 -10.343,7.079 -10.875,6.075 l -1.875,-2.625 z"
         id="path3308"
         style="fill:#3a343a;marker-start:none;marker-end:none" />
      <path
         d="m 162.338,420.362 c 4.463,1.762 8.836,0.882 13.178,-0.891 -3.001,2.48 -11.527,4.92 -11.853,3.832 l -1.325,-2.941 z"
         id="path3310"
         style="fill:#3a343a;marker-start:none;marker-end:none" />
      <path
         d="m 141.619,398.143 c 4.463,1.762 8.836,0.882 13.178,-0.891 -3.001,2.48 -11.527,4.92 -11.853,3.832 l -1.325,-2.941 z"
         id="path3312"
         style="fill:#3a343a;marker-start:none;marker-end:none" />
    </g>
  </g>
  <g
     transform="matrix(1,0,0,-1,-75.152,507.08166)"
     id="rightArm"
     style="font-size:16px;fill:none;stroke:#000000;font-family:Times New Roman">
    <g
       id="Group_40"
       style="stroke:none">
      <path
         d="m 189.998,305.607 c -41.657,24.935 -78.875,39.888 -80.032,57.463 2.23185,24.90793 1.17424,-0.13651 27.45897,8.29096 11.49735,-15.9009 40.25305,-41.99116 62.29303,-48.22996 12.81045,-7.91286 4.7351,-15.85641 -5.848,-20.161 l 0.018,-0.043 c -1.562,1.173 -2.84,2.104 -3.89,2.68 z"
         id="path3316"
         style="fill:#ccc57c;marker-start:none;marker-end:none" />
      <path
         d="m 189.998,305.607 c -37.37833,22.37388 -71.18271,36.71099 -78.56845,52.11684 -8.92489,26.53372 16.29412,-5.19161 25.54972,-12.14742 18.02877,-12.70621 35.85243,-24.3614 52.26973,-29.14842 16.4173,-4.78702 11.778,-13.847 4.621,-13.458 l 0.018,-0.043 c -1.562,1.173 -2.84,2.104 -3.89,2.68 z"
         id="path3320"
         style="fill:#9c9866;marker-start:none;marker-end:none" />
      <path
         d="m 158.39441,339.64752 c -10.16602,7.70916 -21.12631,16.40915 -29.09921,23.16631 -8.5228,7.31813 -2.94597,22.61032 6.17209,8.81786 10.69618,-14.19874 37.25335,-40.71168 59.3027,-48.16777 7.67324,-1.14386 4.1449,-8.45506 -4.21234,-4.04637 -10.72716,5.6589 -27.78336,16.9004 -32.16324,20.22997 z"
         id="path3322"
         style="fill:#dfdaac;marker-start:none;marker-end:none" />
    </g>
  </g>
  <g
     transform="matrix(1,0,0,-1,-75.152,507.08166)"
     id="rightHand"
     style="font-size:16px;fill:none;stroke:#000000;font-family:Times New Roman">
    <g
       id="Group_41"
       style="stroke:none">
      <path
         d="m 209.489,291.591 c -5.05808,2.85619 -9.77859,6.33097 -14.1457,10.1328 -4.10427,4.0839 -5.65748,10.65165 -3.20013,16.00015 1.36476,3.15137 4.30904,6.41946 8.05052,6.05506 2.31787,-0.24646 4.95993,0.77346 7.48431,0.80478 3.571,0.23141 7.70377,0.63299 10.69548,-1.73759 1.34585,-0.60062 1.35178,-3.41421 2.13626,-3.32038 3.65076,2.28107 8.37845,1.56643 12.14446,-0.0567 3.09564,-1.40582 5.66555,-3.95135 7.28835,-6.91415 1.59714,-2.0582 -1.59901,-3.96282 -0.45782,-5.75957 1.71265,-2.10904 -1.34619,-4.59582 0.36776,-6.59208 0.34322,-2.03617 -1.21294,-3.92139 -0.22625,-6.02947 -0.55182,-2.60513 -3.46726,-3.70363 -5.65621,-4.65461 -3.60332,-1.32531 -7.40718,-1.94099 -11.12099,-2.86625 -3.76683,0.10736 -7.38473,1.38701 -10.55782,3.38336 -0.93081,0.52407 -1.86199,1.04762 -2.80222,1.55464 z"
         id="path3326"
         style="fill:#ccc57c;marker-start:none;marker-end:none" />
      <path
         d="m 217.831,317.621 c 0.73033,0.56867 1.46067,1.13733 2.191,1.706 3.13052,-1.1541 6.64284,-2.18871 8.779,-4.931 -1.42722,-1.85027 -4.19159,0.0789 -5.93603,0.6323 -1.7185,0.78258 -3.38606,1.67218 -5.03397,2.5927 z"
         id="path3328"
         style="fill:#9c9866;marker-start:none;marker-end:none" />
      <path
         d="m 209.489,291.591 c -5.04817,2.84742 -9.75295,6.31873 -14.11762,10.1033 -3.54376,3.57443 -5.30046,8.97135 -3.96038,13.8967 9.69645,-3.91146 20.15773,-6.20361 30.646,-5.811 -1.36987,-1.86354 -0.86054,-4.30887 -0.19199,-5.95293 -1.39717,-2.1828 -0.0695,-4.61598 -0.35648,-6.70432 -0.75347,-2.17014 1.05575,-3.94591 0.70085,-6.06617 0.2972,-1.73424 0.96209,-4.73213 -1.83532,-4.14695 -4.03203,0.44376 -7.40129,2.82637 -10.88506,4.68137 z"
         id="path3330"
         style="fill:#9c9866;marker-start:none;marker-end:none" />
      <path
         d="m 221.638,304.387 c 5.46567,1.81967 10.93133,3.63933 16.397,5.459 -0.053,-0.69328 0.25631,-1.66886 -0.0133,-2.19337 -5.46124,-1.08855 -10.92247,-2.17709 -16.38371,-3.26563 z"
         id="path3332"
         style="fill:#9c9866;marker-start:none;marker-end:none" />
      <path
         d="m 221.61,298.467 c 5.46567,1.81933 10.93133,3.63867 16.397,5.458 -0.0535,-0.69367 0.25461,-1.66946 -0.0153,-2.19436 -5.46057,-1.08788 -10.92114,-2.17576 -16.38171,-3.26364 z"
         id="path3334"
         style="fill:#9c9866;marker-start:none;marker-end:none" />
      <path
         d="m 221.892,292.854 c 5.17533,1.77233 10.35067,3.54467 15.526,5.317 -0.0526,-0.69345 0.25702,-1.66852 -0.0122,-2.19361 -5.17125,-1.04113 -10.34251,-2.08226 -15.51376,-3.12339 z"
         id="path3336"
         style="fill:#9c9866;marker-start:none;marker-end:none" />
      <path
         d="m 192.502,318.48 c 1.15561,1.82412 2.87987,5.01396 5.35149,4.38667 2.05318,-0.85286 4.17051,0.32822 6.29062,0.32165 4.28423,0.40359 9.02621,0.10158 12.50289,-2.72832 -2.17734,0.0445 -5.42367,0.22379 -6.82793,-1.17717 0.90534,-3.52731 4.68655,-5.07071 7.77364,-6.23983 1.04797,-0.44704 4.33889,-1.15886 1.42668,-0.8436 -9.1319,0.507 -18.04787,2.90969 -26.51739,6.2806 z"
         id="path3338"
         style="fill:#dfdaac;marker-start:none;marker-end:none" />
      <path
         d="m 222.412,306.635 c 0.0562,0.69469 -0.24718,1.66747 0.024,2.19586 4.89368,1.03738 9.78735,2.07476 14.68102,3.11214 -4.90167,-1.76933 -9.80333,-3.53867 -14.705,-5.308 z"
         id="path3340"
         style="fill:#dfdaac;marker-start:none;marker-end:none" />
      <path
         d="m 222.554,294.866 c 0.0545,0.69373 -0.25223,1.66798 0.0181,2.19405 5.18662,1.06365 10.37323,2.1273 15.55985,3.19095 -5.19267,-1.795 -10.38533,-3.59 -15.578,-5.385 z"
         id="path3342"
         style="fill:#dfdaac;marker-start:none;marker-end:none" />
      <path
         d="m 222.884,289.326 c 0.0561,0.69519 -0.247,1.66786 0.024,2.19698 4.84901,1.03301 9.69803,2.06601 14.54704,3.09902 -4.857,-1.76533 -9.714,-3.53067 -14.571,-5.296 z"
         id="path3344"
         style="fill:#dfdaac;marker-start:none;marker-end:none" />
    </g>
  </g>
  <g
     transform="matrix(1,0,0,-1,-75.152,507.08166)"
     id="hear"
     style="font-size:16px;fill:none;stroke:#000000;font-family:Times New Roman">
    <g
       id="Group_42"
       style="stroke:none">
      <g
         id="Group_43">
        <path
           d="m 212.094,467.478 c -6.11,-16.804 -12.561,-31.732 -1.396,-58.322 -7.954,7.313 -10.305,33.558 -8.895,37.015 -2.669,-19.52 -3.305,-27.939 -3.316,-46.898 -1.474,16.731 -0.497,22.897 -4.067,41.478 0.654,-12.477 -5.312,-22.928 -9.786,-29.717 4.992,12.192 6.347,17.625 8.119,36.935 -4.872,-17.244 -7.304,-25.527 -14.935,-34.68 5.198,12.066 7.067,16.573 8.54,36.584 -5.49,-13.985 -10.796,-15.067 -12.233,-34.299 -8.027,44.313 15.414,39.977 17.858,66.382 l 20.111,-14.478 z"
           id="path3349"
           style="fill:#cccccc;marker-start:none;marker-end:none" />
        <path
           d="m 193.298,477.043 c 0.864,-0.696 -3.533,-12.432 -7.351,-16.95 l 7.5,8.25 -4.499,-20.4 6,13.5 1.949,-21.6 2.555,21.776 4.496,-13.526 c 0.177,8.332 0.811,16.144 3.9,21.15 l -14.55,7.8 z"
           id="path3351"
           style="fill:#999999;marker-start:none;marker-end:none" />
      </g>
      <path
         d="m 254.305,466.837 c -16.965,-6.676 -52.998,-4.435 -61.516,8.912 -1.297,7.448 1.137,18.919 4.847,15.81 16.317,-13.666 56.494,-11.555 56.39,-7.773 1.219,0.035 2.368,-1.518 3.124,-1.973 2.731,-1.642 -0.169,-7.669 -0.321,-9.356 -0.231,-2.577 0.282,-4.151 -2.524,-5.62 z"
         id="path3355"
         style="fill:#735f88;marker-start:none;marker-end:none" />
      <path
         d="m 199.952,493.30598 c -1.49733,-0.0331 -2.69132,-0.42068 -3.6,-1.225 -2.96285,-0.1124 -4.71607,-9.7724 -3.575,-16.325 2.991,-4.688 9.39,-8.008 17.15,-10.05 -0.524,4.513 -0.57,14.589 0.2,17.875 l 1.175,1.075 c -4.20088,1.30345 -8.0851,3.00271 -11.325,5.175 l 3.6,3 c -1.34438,0.34462 -2.56066,0.4985 -3.625,0.475 z"
         id="path3357"
         style="fill:#3a343a;marker-start:none;marker-end:none" />
      <path
         d="m 199.204,487.129 c -1.471,-4.044 25.79,-13.747 46.189,-11.283 -12.927,-2.486 -25.667,-1.913 -38.711,2.148 l -0.368,-4.924 c 15.914,-4.729 41.264,-4.689 47.293,-1.066 -13.14,-6.187 -43.873,-5.02 -48.205,-1.552 l -4.855,11.471 -1.343,5.206 z"
         id="path3359"
         style="fill:#3a343a;marker-start:none;marker-end:none" />
      <path
         d="m 210.902,482.667 c 16.349,-2.691 32.322,-4.806 43.588,0.207 l 1.878,-1.245 c -11.468,-4.647 -25.881,-5.306 -45.466,1.038 z"
         id="path3361"
         style="fill:#aa98bd;marker-start:none;marker-end:none" />
      <path
         d="m 210.545,474.17 c 16.429,-2.099 32.461,-3.636 43.558,1.782 1.902,0.494 2.362,-0.026 1.918,-1.175 -11.31,-5.06 -25.693,-6.239 -45.476,-0.607 z"
         id="path3363"
         style="fill:#aa98bd;marker-start:none;marker-end:none" />
      <path
         d="m 210.531,467.642 c 16.511,-1.208 32.597,-1.875 43.413,4.136 1.876,0.596 2.359,0.101 1.972,-1.07 -11.045,-5.665 -25.352,-7.621 -45.385,-3.066 z"
         id="path3365"
         style="fill:#aa98bd;marker-start:none;marker-end:none" />
      <path
         d="m 193.026,479.68107 c 5.75713,-2.15134 11.47922,-4.21924 17.01794,-5.8587 0.001,-0.59228 0.007,-1.18558 0.0175,-1.77074 -5.29866,1.76768 -10.95791,4.27013 -17.03545,7.62944 z m 0.30599,6.96593 c 5.73034,-2.14219 11.42874,-4.19991 16.94376,-5.83733 -0.0443,-0.53733 -0.0835,-1.11537 -0.11539,-1.7219 -5.23994,1.76362 -10.83119,4.24469 -16.82837,7.55923 z"
         id="path3367"
         style="fill:#735f88;marker-start:none;marker-end:none" />
    </g>
  </g>
</svg>
