<?xml version="1.0" standalone="no"?>
<!DOCTYPE svg PUBLIC "-//W3C//DTD SVG 1.1//EN" "http://www.w3.org/Graphics/SVG/1.1/DTD/svg11.dtd">
<!--Generator: Xara Xtreme (www.xara.com), SVG filter version: 1.0.0.13-->
<svg stroke-width="0.501" stroke-linejoin="bevel" fill-rule="evenodd" xmlns:xlink="http://www.w3.org/1999/xlink" xmlns="http://www.w3.org/2000/svg" version="1.1" overflow="visible" width="450pt" height="600pt" viewBox="0 0 450 600">
 <defs>
  <marker id="DefaultArrow2" markerUnits="strokeWidth" viewBox="0 0 1 1" markerWidth="1" markerHeight="1" overflow="visible" orient="auto">
   <!-- REF_ARROW_STRAIGHT (-2) -->
   <g transform="scale(0.0092592592)">
    <!-- 1/108 -->
    <path d="M -9 54 L -9 -54 L 117 0 z"/>
   </g>
  </marker>
  <marker id="DefaultArrow3" markerUnits="strokeWidth" viewBox="0 0 1 1" markerWidth="1" markerHeight="1" overflow="visible" orient="auto">
   <!-- REF_ARROW_ANGLED -->
   <g transform="scale(0.0092592592)">
    <path d="M -27 54 L -9 0 L -27 -54 L 135 0 z"/>
   </g>
  </marker>
  <marker id="DefaultArrow4" markerUnits="strokeWidth" viewBox="0 0 1 1" markerWidth="1" markerHeight="1" overflow="visible" orient="auto">
   <!-- REF_ARROW_ROUNDED -->
   <g transform="scale(0.0092592592)">
    <path d="M -9,0 L -9,-45 C -9,-51.708 2.808,-56.580 9,-54 L 117,-9 C 120.916,-7.369 126.000,-4.242 126,0 C 126,4.242 120.916,7.369 117,9 L 9,54 C 2.808,56.580 -9,51.708 -9,45 z"/>
   </g>
  </marker>
  <marker id="DefaultArrow5" markerUnits="strokeWidth" viewBox="0 0 1 1" markerWidth="1" markerHeight="1" overflow="visible" orient="auto">
   <!-- REF_ARROW_SPOT -->
   <g transform="scale(0.0092592592)">
    <path d="M -54, 0 C -54,29.807 -29.807,54 0,54 C 29.807,54 54,29.807 54,0 C 54,-29.807 29.807,-54 0,-54 C -29.807,-54 -54,-29.807 -54,0 z"/>
   </g>
  </marker>
  <marker id="DefaultArrow6" markerUnits="strokeWidth" viewBox="0 0 1 1" markerWidth="1" markerHeight="1" overflow="visible" orient="auto">
   <!-- REF_ARROW_DIAMOND -->
   <g transform="scale(0.0092592592)">
    <path d="M -63,0 L 0,63 L 63,0 L 0,-63 z"/>
   </g>
  </marker>
  <marker id="DefaultArrow7" markerUnits="strokeWidth" viewBox="0 0 1 1" markerWidth="1" markerHeight="1" overflow="visible" orient="auto">
   <!-- REF_ARROW_FEATHER -->
   <g transform="scale(0.0092592592)">
    <path d="M 18,-54 L 108,-54 L 63,0 L 108,54 L 18, 54 L -36,0 z"/>
   </g>
  </marker>
  <marker id="DefaultArrow8" markerUnits="strokeWidth" viewBox="0 0 1 1" markerWidth="1" markerHeight="1" overflow="visible" orient="auto">
   <!-- REF_ARROW_FEATHER2 -->
   <g transform="scale(0.0092592592)">
    <path d="M -36,0 L 18,-54 L 54,-54 L 18,-18 L 27,-18 L 63,-54 L 99,-54 L 63,-18 L 72,-18 L 108,-54 L 144,-54 L 90,0 L 144,54 L 108,54 L 72,18 L 63,18 L 99,54 L 63,54 L 27,18 L 18,18 L 54,54 L 18,54 z"/>
   </g>
  </marker>
  <marker id="DefaultArrow9" markerUnits="strokeWidth" viewBox="0 0 1 1" markerWidth="1" markerHeight="1" overflow="visible" orient="auto">
   <!-- REF_ARROW_HOLLOWDIAMOND -->
   <g transform="scale(0.0092592592)">
    <path d="M 0,45 L -45,0 L 0, -45 L 45, 0 z M 0, 63 L-63, 0 L 0, -63 L 63, 0 z"/>
   </g>
  </marker>
  <filter id="StainedFilter">
   <feBlend mode="multiply" in2="BackgroundImage" in="SourceGraphic" result="blend"/>
   <feComposite in="blend" in2="SourceAlpha" operator="in" result="comp"/>
  </filter>
  <filter id="BleachFilter">
   <feBlend mode="screen" in2="BackgroundImage" in="SourceGraphic" result="blend"/>
   <feComposite in="blend" in2="SourceAlpha" operator="in" result="comp"/>
  </filter>
  <filter id="InvertTransparencyBitmapFilter">
   <feComponentTransfer>
    <feFuncR type="gamma" amplitude="1.055" exponent=".416666666" offset="-0.055"/>
    <feFuncG type="gamma" amplitude="1.055" exponent=".416666666" offset="-0.055"/>
    <feFuncB type="gamma" amplitude="1.055" exponent=".416666666" offset="-0.055"/>
   </feComponentTransfer>
   <feComponentTransfer>
    <feFuncR type="linear" slope="-1" intercept="1"/>
    <feFuncG type="linear" slope="-1" intercept="1"/>
    <feFuncB type="linear" slope="-1" intercept="1"/>
    <feFuncA type="linear" slope="1" intercept="0"/>
   </feComponentTransfer>
   <feComponentTransfer>
    <feFuncR type="gamma" amplitude="1" exponent="2.4" offset="0"/>
    <feFuncG type="gamma" amplitude="1" exponent="2.4" offset="0"/>
    <feFuncB type="gamma" amplitude="1" exponent="2.4" offset="0"/>
   </feComponentTransfer>
  </filter>
  <radialGradient id="RadialGradient" gradientUnits="userSpaceOnUse" cx="0" cy="0" r="4.024" gradientTransform="translate(264.075 468.247) rotate(-164.285) skewX(10.0831) scale(1 1.60562)">
   <stop offset="0" stop-color="#ffffff"/>
   <stop offset="0.517212510108948" stop-color="#00bfbf"/>
   <stop offset="0.67256635427475" stop-color="#00ffff"/>
   <stop offset="1" stop-color="#177fbd"/>
  </radialGradient>
  <radialGradient id="RadialGradient_1" gradientUnits="userSpaceOnUse" cx="242.47" cy="467.288" r="7.847">
   <stop offset="0" stop-color="#ffffff"/>
   <stop offset="0.517212510108948" stop-color="#00bfbf"/>
   <stop offset="0.67256635427475" stop-color="#00ffff"/>
   <stop offset="1" stop-color="#177fbd"/>
  </radialGradient>
  <linearGradient id="LinearGradient" gradientUnits="userSpaceOnUse" x1="0" y1="0" x2="46.455" y2="0" gradientTransform="translate(309.367 213.49) rotate(-130.186) skewX(-15.6546)">
   <stop offset="0" stop-color="#ffffff"/>
   <stop offset="0.207547172904015" stop-color="#fffe7f"/>
   <stop offset="1" stop-color="#9f7e64"/>
  </linearGradient>
  <linearGradient id="LinearGradient_1" gradientUnits="userSpaceOnUse" x1="0" y1="0" x2="35.504" y2="0" gradientTransform="translate(323.199 148.291) rotate(-136.558) skewX(35.277)">
   <stop offset="0" stop-color="#ffffff"/>
   <stop offset="0.207547172904015" stop-color="#fffe7f"/>
   <stop offset="1" stop-color="#9f7e64"/>
  </linearGradient>
  <linearGradient id="LinearGradient_2" gradientUnits="userSpaceOnUse" x1="0" y1="0" x2="19.347" y2="0" gradientTransform="translate(341.336 117.692) rotate(-137.384) skewX(34.2142)">
   <stop offset="0" stop-color="#ffffff"/>
   <stop offset="0.207547172904015" stop-color="#fffe7f"/>
   <stop offset="1" stop-color="#9f7e64"/>
  </linearGradient>
  <linearGradient id="LinearGradient_3" gradientUnits="userSpaceOnUse" x1="0" y1="0" x2="90.208" y2="0" gradientTransform="translate(383.027 125.892) rotate(-163.583) skewX(-8.34146)">
   <stop offset="0" stop-color="#ffffff"/>
   <stop offset="0.207547172904015" stop-color="#fffe7f"/>
   <stop offset="1" stop-color="#9f7e64"/>
  </linearGradient>
  <linearGradient id="LinearGradient_4" gradientUnits="userSpaceOnUse" x1="0" y1="0" x2="24.623" y2="0" gradientTransform="translate(309.555 147.327) rotate(-154.342) skewX(9.86435)">
   <stop offset="0" stop-color="#ffffff"/>
   <stop offset="0.207547172904015" stop-color="#fffe7f"/>
   <stop offset="1" stop-color="#9f7e64"/>
  </linearGradient>
  <linearGradient id="LinearGradient_5" gradientUnits="userSpaceOnUse" x1="0" y1="0" x2="50.952" y2="0" gradientTransform="translate(205.383 184.999) rotate(-155.457) skewX(-15.6554)">
   <stop offset="0" stop-color="#ffffff"/>
   <stop offset="0.207547172904015" stop-color="#fffe7f"/>
   <stop offset="1" stop-color="#9f7e64"/>
  </linearGradient>
  <linearGradient id="LinearGradient_6" gradientUnits="userSpaceOnUse" x1="0" y1="0" x2="28.833" y2="0" gradientTransform="translate(170.955 133.771) rotate(-123.962) skewX(37.4113)">
   <stop offset="0" stop-color="#ffffff"/>
   <stop offset="0.207547172904015" stop-color="#fffe7f"/>
   <stop offset="1" stop-color="#9f7e64"/>
  </linearGradient>
  <linearGradient id="LinearGradient_7" gradientUnits="userSpaceOnUse" x1="0" y1="0" x2="39.714" y2="0" gradientTransform="translate(191.893 124.281) rotate(-144.004) skewX(8.88111)">
   <stop offset="0" stop-color="#ffffff"/>
   <stop offset="0.207547172904015" stop-color="#fffe7f"/>
   <stop offset="1" stop-color="#9f7e64"/>
  </linearGradient>
  <linearGradient id="LinearGradient_8" gradientUnits="userSpaceOnUse" x1="0" y1="0" x2="24.563" y2="0" gradientTransform="translate(202.442 86.426) rotate(-142.017) skewX(12.1733)">
   <stop offset="0" stop-color="#ffffff"/>
   <stop offset="0.207547172904015" stop-color="#fffe7f"/>
   <stop offset="1" stop-color="#9f7e64"/>
  </linearGradient>
  <linearGradient id="LinearGradient_9" gradientUnits="userSpaceOnUse" x1="0" y1="0" x2="73.553" y2="0" gradientTransform="translate(202.754 118.276) rotate(-124.512) skewX(36.7145)">
   <stop offset="0" stop-color="#ffffff"/>
   <stop offset="0.207547172904015" stop-color="#fffe7f"/>
   <stop offset="1" stop-color="#9f7e64"/>
  </linearGradient>
  <linearGradient id="LinearGradient_10" gradientUnits="userSpaceOnUse" x1="0" y1="0" x2="35.916" y2="0" gradientTransform="translate(266.671 364.088) rotate(-133.125) skewX(39.6226)">
   <stop offset="0" stop-color="#ffffff"/>
   <stop offset="0.207547172904015" stop-color="#fffe7f"/>
   <stop offset="1" stop-color="#9f7e64"/>
  </linearGradient>
  <linearGradient id="LinearGradient_11" gradientUnits="userSpaceOnUse" x1="0" y1="0" x2="35.916" y2="0" gradientTransform="translate(266.671 364.088) rotate(-133.125) skewX(39.6226)">
   <stop offset="0" stop-color="#ffffff"/>
   <stop offset="0.207547172904015" stop-color="#fffe7f"/>
   <stop offset="1" stop-color="#9f7e64"/>
  </linearGradient>
  <linearGradient id="LinearGradient_12" gradientUnits="userSpaceOnUse" x1="0" y1="0" x2="56.433" y2="0" gradientTransform="translate(247.46 361.754) rotate(-151.788) skewX(13.9981)">
   <stop offset="0" stop-color="#ffffff"/>
   <stop offset="0.207547172904015" stop-color="#fffe7f"/>
   <stop offset="1" stop-color="#9f7e64"/>
  </linearGradient>
  <linearGradient id="LinearGradient_13" gradientUnits="userSpaceOnUse" x1="0" y1="0" x2="0.938" y2="-6.211" gradientTransform="translate(231.946 341.524)">
   <stop offset="0" stop-color="#3b2523"/>
   <stop offset="1" stop-color="#503b34"/>
  </linearGradient>
 </defs>
 <g id="Document" fill="none" stroke="black" font-family="Times New Roman" font-size="16" transform="scale(1 -1)">
  <g id="Spread" transform="translate(0 -600)">
   <g id="голова 2 чать">
    <g id="Group" stroke="none">
     <path d="M 274.614,486.734 C 277.501,489.49 280.686,495.413 277.372,499.551 C 285.941,510.291 264.81,523.424 252.698,520.301 C 242.498,526.452 232.732,530.053 224.791,522.954 C 218.092,521.659 212.514,519.095 209.238,513.93 C 195.729,512.11 187.122,505.134 190.263,485.804 C 186.088,481.864 185.196,477.516 188.142,472.693 C 186.34,468.66 189.822,463.609 190.668,464.944 C 187.318,460.8 181.851,463.573 177.991,458.322 C 171.499,455.295 166.246,443.975 169.626,442.403 C 168.602,448.326 178.496,454.682 180.654,453.146 C 175.457,449.735 173.228,445.766 175.083,441.03 C 177.383,438.189 178.801,435.01 174.313,429.57 C 168.475,424.491 166.002,418.778 172.953,411.293 C 170.448,415.568 170.769,420.399 175.387,426.078 C 172.857,416.443 174.121,409.554 181.116,406.813 C 178.112,415.766 180.939,420.216 191.687,420.739 C 199.395,421.638 200.852,426.029 201.348,432.407 C 201.54,423.59 200.102,415.431 191.818,410.036 C 186.682,406.611 184.141,402.49 186.283,397.11 C 185.56,401.458 189.133,404.998 195.216,408.065 C 204.692,410.954 209.124,417.392 211.397,425.345 C 212.115,415.462 207.34,408.833 199.005,404.313 C 210.491,405.963 215.162,412.605 217.24,421.147 C 216.767,411.731 212.639,404.479 203.122,400.422 C 214.903,403.344 221.42,411.223 223.527,423.254 C 225.319,428.487 227.666,433.316 238.651,431.84 C 245.464,429.93 250.056,432.14 251.1,440.929 C 254.184,438.406 251.299,431.682 247.537,428.437 C 251.1,429.819 254.425,432.046 256.849,437.423 C 265.952,439.594 270.052,445.812 268.886,456.289 L 270.492,450.098 C 273.336,453.304 274.914,457.401 273.239,463.783 C 274.562,464.913 275.714,466.919 276.568,470.431 C 277.451,474.51 284.164,473.715 277.298,465.098 C 284.946,472.607 286.09,484.97 274.614,486.734 Z" stroke-linejoin="miter" fill="#310a06" marker-start="none" marker-end="none"/>
     <path d="M 195.65,455.725 C 189.995,451.709 185.021,447.35 185.713,440.162 C 186.343,442.179 187.336,443.834 188.587,445.235 C 187.424,442.345 186.615,439.454 186.712,436.564 C 187.734,439.806 190.858,446.291 191.517,446.056 C 191.225,443.209 191.674,440.509 192.923,437.97 C 193.545,444.007 194.716,449.626 199.602,452.384 L 194.563,450.743 L 195.65,455.725 Z" fill="#7f0000" stroke-width="0.5" marker-start="none" marker-end="none" stroke-miterlimit="79.8403193612775"/>
    </g>
   </g>
   <g id="шея">
    <g id="Group_1" stroke="none" stroke-width="0.5" stroke-miterlimit="79.8403193612775">
     <path d="M 214.23,455.738 C 216.12,454.529 214.875,431.018 212.906,431.55 L 241.607,430.613 C 244.778,438.84 241.232,457.162 235.647,457.8 C 228.509,458.861 221.369,458.126 214.23,455.738 Z" fill="#f7e4b9" marker-start="none" marker-end="none"/>
     <path d="M 214.976,448.92 C 214.581,453.297 214.32,454.528 213.981,455.785 C 236.05,462.881 243.595,456.161 242.306,441.041 C 231.507,439.972 224.734,441.028 220.563,442.933 C 216.922,444.807 215.188,446.977 214.976,448.92 Z" fill="#af8962" marker-start="none" marker-end="none"/>
    </g>
   </g>
   <g id="рука дальная 1 часть">
    <path d="M 269.483,371.779 C 262.511,382.429 257.737,393.078 254.334,403.729 C 244.147,422.234 243.565,434.274 253.884,438.979 C 258.097,438.444 262.786,435.909 269.034,426.829 C 273.16,412.887 277.297,398.948 287.184,386.779 C 298.281,369.904 285.502,365.564 269.483,371.779 Z" stroke="none" fill="#f7e4b9" stroke-width="0.5" marker-start="none" marker-end="none" stroke-miterlimit="79.8403193612775"/>
   </g>
   <g id="рука дальная 2 часть">
    <g id="Group_2" stroke="none" stroke-width="0.5" stroke-miterlimit="79.8403193612775">
     <path d="M 288.112,387.638 L 333.37,389.08 C 340.776,387.936 340.173,377.921 334.646,374.675 C 305.912,372.653 281.61,366.12 260.362,363.423 C 266.337,374.673 274.99,383.327 288.112,387.638 Z" fill="#cc5548" marker-start="none" marker-end="none"/>
     <path d="M 269.101,375.743 L 332.631,378.237 C 338.858,382.037 338.737,377.427 334.646,374.675 C 305.912,372.653 281.61,366.12 260.362,363.423 C 262.792,367.999 265.664,372.143 269.101,375.743 Z" fill="#7f0000" marker-start="none" marker-end="none"/>
     <path d="M 285.824,385.135 C 285.824,384.986 316.755,385.883 332.274,386.334 C 338.313,386.506 338.35,381.277 332.654,380.276 L 274.022,377.154 C 276.71,380.312 279.875,383.281 285.824,385.135 Z" fill="#ff7f7f" marker-start="none" marker-end="none"/>
    </g>
   </g>
   <g id="рака даьная 3 часть">
    <g id="Group_3" stroke="none" stroke-width="0.5" stroke-miterlimit="79.8403193612775">
     <path d="M 332.594,374.756 C 332.555,374.755 332.516,374.754 332.477,374.754 C 329.884,377.318 330.487,380.197 331.657,383.131 C 330.18,385.252 330.594,387.261 332.049,389.209 L 332.134,389.207 C 333.854,391.385 335.748,393.146 337.74,394.672 C 339.005,401.732 342.044,401.375 345.612,398.794 L 357.133,403.065 C 360.211,403.868 364.24,385.993 360.643,376.907 L 347.423,373.703 C 341.643,373.055 336.299,372.861 332.594,374.756 Z" fill="#cc5548" marker-start="none" marker-end="none"/>
     <path d="M 332.594,374.756 C 332.555,374.755 332.516,374.754 332.477,374.754 C 331.297,375.921 330.778,377.154 330.675,378.428 L 332.074,378.401 C 336.16,376.338 340.29,377.027 343.577,377.456 C 344.091,381.162 341.874,385.518 339.378,389.943 C 341.809,385.658 344.577,386.854 346.202,389.429 C 346.342,389.952 346.618,390.531 347.056,391.181 C 346.83,390.562 346.541,389.965 346.202,389.429 C 345.736,387.699 346.742,386.598 348.142,385.67 C 346.314,383.466 347.516,381.879 349.571,380.47 C 348.764,378.754 348.795,377.405 349.453,376.474 C 350.106,375.935 350.936,375.463 351.938,375.111 C 352.089,375.083 352.245,375.06 352.407,375.044 L 352.041,375.073 C 352.1,375.053 352.159,375.033 352.221,375.016 L 347.423,373.703 C 341.643,373.055 336.299,372.861 332.594,374.756 Z" fill="#7f0000" marker-start="none" marker-end="none"/>
     <path d="M 349.259,380.721 L 358.905,385.038 L 361.486,382.631 L 358.932,383.909 L 349.259,380.721 Z" fill="#7f0000" marker-start="none" marker-end="none"/>
     <path d="M 349.589,386.338 L 359.235,390.654 L 361.817,388.248 L 359.263,389.524 L 349.589,386.338 Z" fill="#7f0000" marker-start="none" marker-end="none"/>
     <path d="M 348.651,392.734 L 358.296,397.051 L 360.878,394.645 L 358.324,395.923 L 348.651,392.734 Z" fill="#7f0000" marker-start="none" marker-end="none"/>
     <path d="M 336.33,393.53 L 337.823,394.644 C 338.186,392.069 339.673,389.427 341.642,386.757 C 338.624,388.133 337.223,390.651 336.33,393.53 Z" fill="#7f0000" marker-start="none" marker-end="none"/>
     <path d="M 340.685,394.262 C 340.459,396.606 341.009,398.579 341.909,398.666 C 342.81,398.752 343.726,396.919 343.952,394.576 C 344.178,392.233 343.628,390.26 342.727,390.172 C 341.826,390.086 340.911,391.919 340.685,394.262 Z" fill="#ff7f7f" marker-start="none" marker-end="none"/>
     <path d="M 350.326,384.681 C 350.012,385.082 351.531,385.954 353.717,386.627 C 355.902,387.3 357.934,387.52 358.248,387.119 C 358.562,386.718 357.043,385.845 354.856,385.173 C 352.671,384.5 350.64,384.28 350.326,384.681 Z" fill="#ff7f7f" marker-start="none" marker-end="none"/>
     <path d="M 350.15,390.627 C 349.836,391.028 351.354,391.901 353.541,392.574 C 355.726,393.246 357.757,393.467 358.071,393.065 C 358.385,392.664 356.867,391.792 354.68,391.119 C 352.495,390.446 350.464,390.226 350.15,390.627 Z" fill="#ff7f7f" marker-start="none" marker-end="none"/>
     <path d="M 348.432,397.19 C 348.118,397.591 349.637,398.463 351.823,399.136 C 354.008,399.809 356.04,400.029 356.354,399.628 C 356.668,399.226 355.149,398.354 352.963,397.681 C 350.777,397.009 348.746,396.788 348.432,397.19 Z" fill="#ff7f7f" marker-start="none" marker-end="none"/>
     <path d="M 351.004,378.33 C 350.69,378.731 352.209,379.603 354.395,380.276 C 356.58,380.949 358.612,381.169 358.926,380.768 C 359.24,380.367 357.721,379.495 355.535,378.822 C 353.349,378.149 351.318,377.929 351.004,378.33 Z" fill="#ff7f7f" marker-start="none" marker-end="none"/>
     <path d="M 331.6,380.458 L 330.817,380.462 C 330.994,381.341 331.298,382.234 331.657,383.131 C 330.845,384.295 330.605,385.426 330.794,386.532 C 330.81,386.532 330.827,386.531 330.845,386.531 L 335.742,390.6 C 337.446,389.559 338.983,388.372 337.486,384.487 C 339.342,382.676 341.069,380.852 340.305,378.761 C 337.19,378.174 334.26,378.597 331.6,380.458 Z" fill="#ff7f7f" marker-start="none" marker-end="none"/>
    </g>
   </g>
   <g id="животик">
    <g id="Group_4" stroke="none" stroke-width="0.5" stroke-miterlimit="79.8403193612775">
     <path d="M 216.259,342.504 L 195.447,351.758 L 194.904,358.369 C 198.811,364.561 199.138,375.849 198.486,385.083 C 199.872,402.243 261.967,407.862 256.993,387.838 C 243.688,379.433 249.503,362.836 249.139,347.797 C 241.032,342.848 227.888,340.721 216.259,342.504 Z" fill="#cc5548" marker-start="none" marker-end="none"/>
     <path d="M 207.472,346.41 L 195.447,351.758 L 194.904,358.369 C 197.834,363.013 198.75,370.523 198.75,377.884 C 198.75,380.337 198.649,382.774 198.486,385.083 C 199.106,392.76 211.877,398.127 225.357,399.921 C 228.145,395.37 226.606,388.078 215.507,379.6 C 210.759,377.015 207.985,360.26 207.472,346.41 Z" fill="#7f0000" marker-start="none" marker-end="none"/>
     <path d="M 217.804,355.021 C 216.83,361.501 218.322,366.579 220.429,371.312 C 221,372.783 222.312,373.625 224.461,373.755 C 230.534,373.695 236.488,374.149 242.161,375.799 C 243.261,375.871 244.361,375.652 245.461,374.649 C 244.593,368.595 243.82,362.562 245.334,357.087 C 235.977,351.339 226.846,351.952 217.804,355.021 Z" fill="#ff7f7f" marker-start="none" marker-end="none"/>
    </g>
   </g>
   <g id="сиськи">
    <g id="Group_5" stroke="none" stroke-width="0.5" stroke-miterlimit="79.8403193612775">
     <path d="M 198.879,392.822 L 195.881,401.305 C 184.17,421.972 178.791,436.302 212.943,438.515 L 242.363,438.417 L 248.006,438.9 C 257.682,440.385 264.03,435.649 268.256,426.947 C 270.417,409.537 260.024,403.869 246.318,401.305 L 216.318,403.619 L 198.879,392.822 Z" fill="#f7e4b9" marker-start="none" marker-end="none"/>
     <path d="M 202.751,395.219 L 197.544,396.597 L 195.881,401.305 C 195.875,401.314 195.87,401.323 195.865,401.333 L 195.823,401.488 C 195.769,401.555 195.715,401.623 195.662,401.691 C 189.303,412.947 184.898,422.3 187.876,428.801 C 189.629,428.234 191.628,427.228 193.689,425.881 C 201.283,420.913 209.698,411.297 209.604,401.863 L 204.839,396.512 L 202.751,395.219 Z" fill="#af8962" marker-start="none" marker-end="none"/>
     <path d="M 215.692,379.831 C 208.937,380.604 200.546,383.673 198.342,385.083 C 197.815,392.553 196.648,398.68 196.219,399.681 C 204.293,399.259 209.071,402.505 214.137,407.833 C 211.042,417.078 212.154,427.891 206.25,437.504 C 204.721,437.242 204.831,438.204 205.461,439.024 C 206.953,440.261 209.317,439.128 209.811,438.716 C 213.627,433.904 213.07,422.256 217.264,408.902 C 231.625,404.929 247.485,406.016 258.557,412.552 C 256.068,421.266 256.673,430.085 251.204,439.092 C 251.081,439.294 250.053,439.014 249.924,439.216 C 249.535,439.56 250.331,440.353 250.41,440.46 C 251.86,440.872 253.31,440.682 254.76,440.152 C 258.374,435.595 258.045,426.388 261.559,414.085 C 264.016,412.758 263.055,413.523 265.229,412.071 C 269.945,401.527 267.388,392.17 258.115,388.581 C 257.674,388.341 257.253,388.093 256.849,387.838 C 240.79,381.901 234.221,375.021 215.692,379.831 Z" fill="#cc5548" marker-start="none" marker-end="none"/>
     <path d="M 198.342,385.083 C 197.815,392.553 196.648,398.68 196.219,399.681 C 201.122,399.424 204.81,400.521 208.085,402.615 L 208.613,402.475 C 202.433,391.715 207.132,385.229 214.866,379.935 C 208.269,380.849 200.457,383.73 198.342,385.083 Z" fill="#7f0000" marker-start="none" marker-end="none"/>
     <path d="M 213.224,410.641 C 212.412,413.798 211.809,417.052 211.221,420.322 C 210.45,424.599 209.719,428.924 208.405,432.895 C 208.054,433.954 207.644,434.957 207.197,435.952 L 206.796,436.822 L 206.775,436.83 C 206.633,436.897 206.484,437.003 206.361,437.07 C 205.931,437.296 205.5,437.523 205.074,437.753 L 205.32,438.331 C 205.732,438.153 206.147,437.977 206.56,437.802 C 206.791,437.704 207.11,437.634 207.299,437.452 C 207.401,437.352 207.459,437.252 207.529,437.135 C 208.601,435.322 209.415,433.377 210.062,431.335 C 211.702,426.156 212.437,420.462 213.34,414.865 C 213.712,412.556 214.059,410.264 214.584,408.044 L 213.998,407.877 C 213.737,408.799 213.464,409.706 213.224,410.641 Z" fill="#7f0000" marker-start="none" marker-end="none"/>
     <path d="M 257.917,413.768 C 257.105,416.749 256.502,419.822 255.914,422.91 C 255.143,426.949 254.412,431.033 253.098,434.783 C 252.747,435.783 252.337,436.73 251.89,437.67 L 251.489,438.491 L 251.468,438.499 C 251.326,438.562 251.177,438.662 251.054,438.725 C 250.624,438.939 250.193,439.153 249.767,439.37 L 250.013,439.916 C 250.425,439.748 250.84,439.582 251.253,439.417 C 251.484,439.324 251.803,439.258 251.992,439.086 C 252.094,438.992 252.152,438.897 252.222,438.787 C 253.294,437.075 254.108,435.238 254.755,433.31 C 256.395,428.419 257.13,423.042 258.033,417.757 C 258.32,416.074 258.593,414.399 258.944,412.759 L 258.311,412.411 C 258.175,412.86 258.041,413.31 257.917,413.768 Z" fill="#7f0000" marker-start="none" marker-end="none"/>
     <path d="M 215.692,379.831 C 215.175,379.89 214.649,379.962 214.952,379.932 L 214.8,379.975 C 224.575,378.573 234.166,378.671 242.363,389.912 C 245.85,388.337 249.482,386.906 255.675,388.037 C 254.726,387.418 253.785,386.83 252.854,386.273 C 239.554,380.79 232.606,375.44 215.692,379.831 Z" fill="#7f0000" marker-start="none" marker-end="none"/>
     <path d="M 241.988,390.662 C 237.133,400.339 228.864,404.446 217.613,403.787 C 222.774,404.589 227.71,405.842 234.113,404.162 C 238.948,400.397 241.588,395.902 241.988,390.662 Z" fill="#ff7f7f" marker-start="none" marker-end="none"/>
     <path d="M 251.149,407.393 C 256.046,407.656 259.124,412.731 263.712,408.424 C 266.843,403.157 264.685,397.794 263.149,392.768 C 264.813,404.8 263.268,405.712 251.149,407.393 Z" fill="#ff7f7f" marker-start="none" marker-end="none"/>
    </g>
   </g>
   <g id="голова 1 часть">
    <g id="Group_6" stroke="none">
     <path d="M 273.993,486.548 C 270.73,480.729 269.218,471.969 269.563,459.536 C 268.08,452.273 265.488,452.173 247.724,439.434 C 245.229,439.402 242.745,439.296 239.887,442.273 C 236.545,445.574 232.659,447.48 228.646,449.057 C 224.331,451.447 210.945,462.794 209.54,468.174 C 215.255,485.306 226.021,498.022 238.259,509.448 C 240.194,508.767 244.064,507.406 245.591,505.992 C 247.119,504.581 264.065,503.037 264.523,499.896 C 264.982,496.754 270.988,489.948 273.993,486.548 Z" stroke-width="0.5" fill="#f7e4b9" marker-start="none" marker-end="none" stroke-miterlimit="79.8403193612775"/>
     <path d="M 257.805,467.132 C 258.843,470.607 260.278,474.082 262.305,477.556 L 270.78,479.132 L 268.98,475.006 C 264.286,473.835 260.529,471.259 257.805,467.132 Z" stroke-opacity="0.552941" fill="#af8962" stroke-width="0.5" marker-start="none" marker-end="none" stroke-miterlimit="79.8403193612775" fill-opacity="0.552941"/>
     <path d="M 263.539,465.427 C 265.729,467.476 267.12,472.172 266.134,474.542 C 265.898,475.109 264.857,473.195 264.424,473.784 C 261.419,472.156 258.66,470.349 257.694,467.248 C 257.578,466.689 258.491,465.376 258.588,465.386 L 262.341,465.743 L 263.539,465.427 Z" stroke-width="0.5" fill="#ffffff" marker-start="none" marker-end="none" stroke-miterlimit="79.8403193612775"/>
     <path d="M 257.466,466.895 C 258.915,471.114 263.793,476.716 269.195,475.997 C 267.484,473.587 265.529,468.91 265.865,469.024 C 265.842,470.517 265.99,472.087 266.436,473.789 C 263.061,473.148 260.02,471.079 257.466,466.895 Z" stroke-width="0.5" fill="#000000" marker-start="none" marker-end="none" stroke-miterlimit="79.8403193612775"/>
     <path d="M 262.166,471.992 C 262.632,470.904 263.465,470.174 264.757,469.896 C 264.442,468.341 264.045,466.8 263.123,465.368 C 261.75,464.437 260.252,464.547 258.66,465.451 C 262.02,465.17 258.894,468.862 257.741,467.526 C 259.073,469.071 260.263,470.67 262.166,471.992 Z" stroke-width="0.5" marker-start="none" marker-end="none" stroke-miterlimit="79.8403193612775" fill="url(#RadialGradient)"/>
     <path d="M 257.724,466.824 C 260.295,468.985 262.808,471.545 265.943,469.764 L 266.904,474.024 L 265.644,473.904 C 261.335,472.302 258.558,470.004 257.724,466.824 Z" fill="#000000" stroke-opacity="0.290196" stroke-width="0.5" marker-start="none" marker-end="none" stroke-miterlimit="79.8403193612775" fill-opacity="0.290196"/>
     <path d="M 260.66,466.156 C 260.839,466.234 260.921,466.447 260.842,466.627 C 260.762,466.807 260.55,466.888 260.371,466.808 C 260.191,466.729 260.109,466.518 260.187,466.338 C 260.268,466.158 260.48,466.076 260.66,466.156 Z M 261.571,466.491 C 261.751,466.571 261.833,466.782 261.754,466.962 C 261.674,467.142 261.463,467.223 261.282,467.144 C 261.102,467.065 261.02,466.853 261.1,466.673 C 261.179,466.492 261.391,466.41 261.571,466.491 Z M 263.74,466.362 C 263.875,466.542 263.487,467.064 262.873,467.525 C 262.26,467.986 261.651,468.213 261.516,468.032 C 261.379,467.851 261.768,467.329 262.38,466.869 C 262.995,466.406 263.605,466.181 263.74,466.362 Z M 261.991,469.977 C 262.305,470.116 262.446,470.481 262.307,470.794 C 262.169,471.107 261.803,471.249 261.489,471.111 C 261.177,470.972 261.036,470.606 261.174,470.294 C 261.313,469.981 261.679,469.838 261.991,469.977 Z" stroke-width="0.5" fill="#ffffff" marker-start="none" marker-end="none" stroke-miterlimit="79.8403193612775"/>
     <path d="M 271.513,478.792 C 268.854,479.969 265.977,479.996 262.814,478.539 L 261.803,476.682 C 265.032,477.987 268.268,478.781 271.513,478.792 Z" stroke-width="0.5" fill="#000000" marker-start="none" marker-end="none" stroke-miterlimit="79.8403193612775"/>
     <path d="M 248.505,468.407 C 248.56,471.241 248.425,474.17 247.23,477.631 C 240.873,477.567 235.183,476.077 230.206,473.057 C 233.335,471.837 232.498,470.189 228.331,468.182 L 235.231,466.682 L 246.03,468.407 L 248.505,468.407 Z" stroke-opacity="0.552941" fill="#af8962" stroke-width="0.5" marker-start="none" marker-end="none" stroke-miterlimit="79.8403193612775" fill-opacity="0.552941"/>
     <path d="M 248.121,468.765 C 248.553,466.742 244.662,462.662 241.725,463.34 L 237.115,465.98 C 236.961,467.266 236.65,469.837 236.824,470.082 C 236.998,470.328 238.243,471.932 238.865,472.733 C 243.157,473.067 245.723,471.031 248.121,468.765 Z" stroke-width="0.5" fill="#ffffff" marker-start="none" marker-end="none" stroke-miterlimit="79.8403193612775"/>
     <path d="M 238.524,471.727 C 238.682,469.665 240.811,468.959 243.352,468.54 C 244.211,466.515 243.82,464.971 242.961,463.609 C 238.235,462.145 233.921,464.018 229.811,467.519 C 233.515,468.178 236.257,469.732 238.524,471.727 Z" stroke-width="0.5" marker-start="none" marker-end="none" stroke-miterlimit="79.8403193612775" fill="url(#RadialGradient_1)"/>
     <path d="M 237.804,462.997 C 238.369,463.247 238.625,463.909 238.375,464.474 C 238.124,465.039 237.463,465.295 236.897,465.045 C 236.33,464.796 236.075,464.133 236.324,463.568 C 236.576,463.002 237.238,462.746 237.804,462.997 Z M 243.447,464.31 L 243.805,465.54 L 241.213,466.62 C 240.523,466.538 240.633,466.051 240.86,465.506 L 243.447,464.31 Z M 239.82,467.718 C 240.179,467.877 240.341,468.299 240.183,468.658 C 240.024,469.017 239.603,469.179 239.244,469.021 C 238.884,468.863 238.721,468.441 238.881,468.081 C 239.04,467.722 239.46,467.558 239.82,467.718 Z" stroke-width="0.5" fill="#ffffff" marker-start="none" marker-end="none" stroke-miterlimit="79.8403193612775"/>
     <path d="M 229.649,467.328 L 229.767,467.765 C 233.42,468.415 236.121,469.945 238.358,471.914 L 238.773,471.745 C 238.914,469.9 240.818,469.211 243.393,468.786 L 243.583,468.637 C 244.479,466.523 244.066,464.892 243.172,463.474 L 243.034,463.37 C 238.189,461.869 233.786,463.804 229.649,467.328 Z M 242.795,463.822 L 243.035,464.238 C 243.603,465.335 243.811,466.559 243.262,468.084 L 243.17,468.318 L 242.385,468.464 C 240.561,468.845 238.955,469.489 238.438,470.921 L 238.344,471.251 L 237.803,470.801 C 235.832,469.256 233.5,468.04 230.547,467.407 L 230.379,467.373 L 229.974,467.708 C 233.799,464.448 237.752,462.652 242.028,463.615 L 242.795,463.822 Z" fill="#177fbd" stroke-width="0.5" fill-rule="evenodd" marker-start="none" marker-end="none" stroke-miterlimit="79.8403193612775"/>
     <ellipse rx="2.345" ry="2.211" transform="translate(241.741 467.569) rotate(90)" fill="#052031" stroke-width="0.5" stroke-miterlimit="79.8403193612775"/>
     <path d="M 237.178,463.41 C 237.171,463.504 237.169,463.599 237.169,463.695 C 237.169,465.658 238.672,467.253 240.525,467.253 C 241.929,467.252 243.133,466.335 243.632,465.034 C 243.479,464.532 243.246,464.06 242.961,463.609 C 240.966,462.99 239.043,462.967 237.178,463.41 Z" stroke-width="0.5" stroke-opacity="0.325490" fill="#ffffff" marker-start="none" marker-end="none" stroke-miterlimit="79.8403193612775" fill-opacity="0.325490"/>
     <path d="M 240.092,462.082 L 239.476,462.106 L 238.857,462.175 L 238.241,462.288 L 237.627,462.449 L 237.079,462.634 L 234.73,462.192 L 236.951,463.541 L 237.203,463.563 L 237.805,463.539 L 238.385,463.531 L 238.952,463.535 L 239.512,463.548 L 240.065,463.568 L 240.613,463.597 L 241.161,463.632 L 241.711,463.672 L 242.262,463.719 L 242.821,463.772 L 243.384,463.835 L 243.955,463.908 L 244.534,463.988 L 245.118,464.086 L 245.71,464.196 L 246.307,464.323 L 245.798,463.979 L 245.279,463.654 L 244.75,463.351 L 244.208,463.072 L 243.653,462.82 L 243.087,462.604 L 242.507,462.418 L 241.916,462.275 L 241.317,462.168 L 240.709,462.102 L 240.092,462.082 Z" stroke-width="0.5" fill="#000000" fill-rule="evenodd" marker-start="none" marker-end="none" stroke-miterlimit="79.8403193612775"/>
     <path d="M 247.357,477.348 C 242.28,480.606 231.497,475.92 230.085,472.922 C 236.018,475.202 241.878,477.141 247.357,477.348 Z" stroke-width="0.5" fill="#000000" marker-start="none" marker-end="none" stroke-miterlimit="79.8403193612775"/>
     <path d="M 255.45,462.905 C 255.787,461.914 256.431,460.952 258.182,460.097 C 258.021,459.575 257.713,458.584 257.484,458.615 C 256.694,458.727 255.06,461.55 255.45,462.905 Z" fill="#af8962" stroke-width="0.5" marker-start="none" marker-end="none" stroke-miterlimit="79.8403193612775"/>
     <path d="M 246.739,449.894 C 245.943,449.905 245.15,449.975 244.407,450.166 L 244.707,451.634 C 245.86,451.408 247.114,451.467 248.36,451.516 C 249.158,451.546 249.964,451.614 250.774,451.668 C 251.896,451.74 253.041,451.831 254.174,452.01 C 254.931,452.128 255.682,452.284 256.37,452.519 C 256.673,452.622 257.156,452.801 257.29,453.076 L 257.749,452.905 C 257.55,452.392 256.911,452.141 256.407,451.922 C 255.706,451.617 254.975,451.363 254.236,451.125 C 251.872,450.364 249.136,449.858 246.739,449.894 Z" stroke-width="0.5" fill="#af8962" marker-start="none" marker-end="none" stroke-miterlimit="79.8403193612775"/>
     <path d="M 248.81,447.637 C 248.409,447.641 248.009,447.678 247.634,447.774 L 247.786,448.515 C 248.367,448.401 249,448.431 249.628,448.455 C 250.031,448.47 250.437,448.504 250.845,448.531 C 251.411,448.568 251.989,448.614 252.561,448.705 C 252.942,448.764 253.319,448.842 253.667,448.96 C 253.821,449.012 254.065,449.104 254.132,449.241 L 254.363,449.154 C 254.263,448.897 253.94,448.77 253.686,448.66 C 253.333,448.505 252.964,448.377 252.592,448.258 C 251.399,447.875 250.018,447.619 248.81,447.637 Z" stroke-width="0.5" fill="#af8962" marker-start="none" marker-end="none" stroke-miterlimit="79.8403193612775"/>
     <path d="M 218.036,457.174 C 217.805,464.34 218.355,472.151 220.561,475.809 C 222.018,475.496 223.561,474.813 225.304,473.256 C 224.948,474.924 224.234,476.157 223.368,477.202 C 224.447,476.986 225.535,476.363 226.632,475.228 C 226.401,477.01 225.809,478.79 223.983,480.571 C 225.896,480.102 227.607,479.126 229.03,477.435 C 226.837,480.548 226.254,486.33 220.747,486.773 C 225.751,493.161 238.501,487.961 239.262,483.591 C 242.142,489.253 241.263,494.68 234.34,499.73 C 242.739,498.749 248.737,494.117 247.667,478.712 C 250.396,486.061 248.957,493.584 244.472,501.239 C 244.848,503.064 249.232,502.444 251.853,498.569 C 256.965,491.525 255.058,477.436 251.209,477.552 C 257.101,479.947 258.359,484.841 257.877,490.673 C 258.995,485.369 260.014,480.058 257.719,474.416 C 260.519,479.296 262.662,484.671 260.758,493.113 C 263.42,488.884 265.913,481.567 261.76,472.79 C 265.18,476.882 266.4,482.265 266.227,488.466 C 268.898,486.326 270.69,479.923 265.502,472.926 C 269.075,475.308 271.542,479.552 272.62,486.136 C 272.324,481.574 271.021,477.193 267.449,473.217 C 272.034,475.044 275.204,479.254 276.963,485.845 L 274.336,495.452 C 272.728,497.658 271.312,505.922 269.536,506.851 C 267.757,507.779 252.913,517.236 251.836,517.351 C 250.757,517.468 229.634,515.466 226.841,513.493 C 224.046,511.518 210.195,506.214 209.731,505.054 C 209.265,503.892 215.549,491.717 215.173,491.02 C 214.796,490.325 207.167,476.275 207.172,476.042 C 208.038,470.315 209.769,458.857 210.275,458.044 C 210.78,457.231 218.231,451.128 218.036,457.174 Z" fill="#310a06" stroke-linejoin="miter" marker-start="none" marker-end="none"/>
     <path d="M 264.318,497.102 C 265.092,492.96 265.221,488.606 264.74,484.051 C 265.005,489.567 262.205,496.893 259.064,499.859 C 259.924,495.565 260.086,491.043 259.585,486.301 C 259.741,489.57 258.821,493.474 257.392,496.731 C 257.61,492.932 257.298,489.013 256.478,484.98 C 257.448,491.713 254.049,501.622 250.255,502.742 C 250.227,502.75 250.337,502.766 250.546,502.791 C 246.898,505.348 244.149,506.249 241.475,504.905 C 244.779,500.18 247.011,494.69 248.244,488.483 C 246.654,494.614 240.511,501.822 236.497,502.437 L 236.304,502.344 C 236.118,502.389 235.932,502.432 235.748,502.473 C 235.713,502.47 235.679,502.467 235.644,502.464 C 235.632,502.462 235.641,502.472 235.669,502.49 C 232.172,503.255 229.022,503.157 226.083,502.532 C 226.126,501.661 226.542,500.789 227.193,499.92 C 233.126,498.075 237.433,493.733 238.446,487.712 C 232.389,495.368 226.144,497.088 219.701,492.709 C 217.907,491.024 216.939,489.262 216.942,487.414 L 221.864,484.015 C 220.77,484.172 218.582,484.486 218.934,484.133 C 219.286,483.782 220.38,482.141 220.927,481.321 L 206.513,485.187 C 204.149,493.696 203.22,501.12 208.596,504.216 C 210.745,504.217 213.077,504.409 215.416,504.608 C 219.528,504.987 223.551,505.818 227.466,507.167 C 222.886,506.798 218.968,507.21 215.208,507.8 C 219.861,508.121 224.538,508.844 229.265,510.617 C 226.382,510.061 219.267,509.679 214.851,510.021 C 214.919,510.142 214.986,510.263 215.054,510.381 C 217.375,511.139 219.42,512.002 221.335,512.914 C 220.145,512.675 218.459,512.536 216.518,512.496 C 218.99,515.43 222.599,516.87 228.544,515.892 C 231.693,518.494 235.398,521.216 242.385,520.339 C 243.502,519.267 244.706,518.194 245.916,517.122 C 249.027,514.406 252.403,512.066 256.079,510.16 C 252.873,513.026 250.562,515.943 248.504,518.872 C 248.637,518.828 248.77,518.781 248.904,518.736 C 252.121,515.875 255.632,513.264 259.818,511.237 C 258.281,512.332 255.589,514.747 253.119,517.242 C 260.275,516.518 270.46,514.874 274.163,504.766 C 272.717,507.125 271.056,509.406 269.056,511.568 C 270.678,509.08 273.77,502.516 275.096,498.304 C 275.082,498.205 275.067,498.107 275.049,498.008 C 273.334,500.09 271.627,501.807 269.922,503.358 C 271.099,501.588 272.568,498.283 273.833,494.659 C 273.197,493.747 272.257,493.016 270.849,492.57 L 270.717,492.732 C 271.154,488.561 270.938,484.23 270.103,479.748 C 270.91,486.067 267.84,495.106 264.318,497.102 Z M 258.756,501.531 L 258.671,501.603 C 258.679,501.575 258.686,501.547 258.693,501.52 C 258.714,501.522 258.736,501.526 258.756,501.531 Z M 268.398,504.711 C 268.906,504.272 269.414,503.822 269.922,503.358 C 269.314,504.274 268.783,504.782 268.398,504.711 Z M 230.54,511.121 C 230.114,510.943 229.69,510.775 229.265,510.617 C 230.084,510.774 230.562,510.946 230.54,511.121 Z M 261.061,510.66 C 260.64,510.846 260.226,511.038 259.818,511.237 C 260.498,510.752 260.951,510.523 261.061,510.66 Z M 268.109,512.56 C 268.433,512.231 268.747,511.902 269.056,511.568 C 268.6,512.269 268.26,512.645 268.109,512.56 Z M 223.164,513.817 C 222.565,513.512 221.957,513.212 221.335,512.914 C 222.414,513.132 223.084,513.434 223.164,513.817 Z" stroke-width="0.5" fill="#7f0000" marker-start="none" marker-end="none" stroke-miterlimit="79.8403193612775"/>
     <path d="M 208.627,485.172 C 206.434,478.277 206.984,461.645 209.015,461.322 C 207.517,463.939 206.077,466.736 204.844,470.172 C 204.542,464.672 205.875,453.672 206.687,453.821 C 204.291,458.872 203.212,463.922 202.614,468.972 C 202.208,465.186 201.992,461.253 202.585,456.698 C 201.044,460.54 200.016,464.516 199.433,468.604 C 198.672,474.253 197.951,479.87 200.039,483.042 C 201.636,489.531 203.916,494.729 206.949,498.511 L 208.627,485.172 Z" fill="#7f0000" stroke-width="0.5" marker-start="none" marker-end="none" stroke-miterlimit="79.8403193612775"/>
     <path d="M 222.133,468.479 C 222.432,475.869 219.547,489.621 208.264,483.943 C 206.113,481.316 211.031,464.151 217.952,462.675 C 220.53,463.174 220.578,465.409 222.343,464.359 L 222.133,468.479 Z" stroke-width="0.5" fill="#f7e4b9" marker-start="none" marker-end="none" stroke-miterlimit="79.8403193612775"/>
     <path d="M 216.765,465.533 C 217.043,465.599 214.889,470.265 213.265,472.598 C 209.692,485.696 218.539,486.122 218.613,472.004 C 217.31,471.134 216.679,469.005 216.765,465.533 Z" stroke-width="0.5" fill="#af8962" marker-start="none" marker-end="none" stroke-miterlimit="79.8403193612775"/>
     <path d="M 254.243,462.563 C 254.62,460.905 255.242,459.352 256.764,458.184 C 255.084,458.123 251.724,458.004 251.963,458.003 C 252.204,458.004 254.303,462.504 254.243,462.563 Z" fill="#af8962" stroke-width="0.5" marker-start="none" marker-end="none" stroke-miterlimit="79.8403193612775"/>
     <path d="M 234.13,467.865 C 234.43,468.031 234.702,468.224 234.96,468.438 C 235.277,468.702 235.56,469.008 235.817,469.336 C 235.808,469.323 235.77,469.292 235.768,469.276 L 235.778,469.285 C 235.788,469.294 235.798,469.304 235.807,469.314 C 235.838,469.346 235.872,469.377 235.904,469.41 C 236.001,469.507 236.102,469.603 236.204,469.699 C 236.488,469.965 236.777,470.229 237.089,470.459 C 237.373,470.668 237.658,470.877 237.963,471.07 C 238.462,471.382 239.034,471.652 239.608,471.816 C 240.438,472.054 241.265,472.095 242.133,471.937 C 243.103,471.762 244.102,471.284 244.916,470.779 C 246.076,470.062 247.073,469.176 248.016,468.253 L 248.457,468.638 C 247.508,469.919 246.469,471.13 245.138,472.061 C 244.678,472.382 244.195,472.664 243.656,472.918 C 243.32,473.075 242.943,473.207 242.595,473.304 C 241.073,473.725 239.596,473.58 238.176,472.952 C 237.891,472.825 237.624,472.686 237.362,472.531 C 236.962,472.296 236.583,472.028 236.227,471.742 C 235.826,471.419 235.439,471.068 235.088,470.692 C 234.935,470.528 234.766,470.372 234.637,470.189 C 234.171,469.53 233.598,468.978 232.825,468.658 C 232.68,468.599 232.541,468.551 232.399,468.508 C 232.106,468.421 231.803,468.372 231.502,468.353 C 231.082,468.327 230.661,468.342 230.233,468.392 C 229.811,468.442 229.381,468.527 228.954,468.642 C 228.758,468.693 228.56,468.74 228.361,468.815 L 228.146,468.261 C 228.304,468.196 228.449,468.119 228.603,468.049 C 228.841,467.941 229.088,467.841 229.339,467.747 C 230.978,467.136 232.649,467.049 234.13,467.865 Z" stroke-width="0.5" fill="#000000" fill-rule="evenodd" marker-start="none" marker-end="none" stroke-miterlimit="79.8403193612775"/>
     <path d="M 229.926,467.374 C 238.755,463.816 237.941,473.635 248.264,468.462 L 244.326,472.024 C 243.388,472.248 241.513,472.699 241.326,472.699 C 241.139,472.699 238.713,472.324 237.5,472.136 C 236.787,471.387 235.362,469.886 235.326,469.812 C 235.289,469.736 234.163,468.462 233.976,468.462 C 233.789,468.462 231.213,467.735 229.926,467.374 Z" stroke-opacity="0.290196" fill="#000000" stroke-width="0.5" marker-start="none" marker-end="none" stroke-miterlimit="79.8403193612775" fill-opacity="0.290196"/>
     <ellipse rx="0.733" ry="4.075" transform="translate(242.545 459.894) rotate(106.31)" fill="#af8962" stroke-width="0.5" stroke-miterlimit="79.8403193612775"/>
     <ellipse rx="1.749" ry="1.372" transform="translate(263.476 469.589) rotate(90)" stroke-width="0.5" fill="#052031" stroke-miterlimit="79.8403193612775"/>
     <path d="M 258.599,465.63 C 258.592,465.724 258.589,465.819 258.588,465.914 C 258.588,467.877 260.093,469.473 261.944,469.473 C 263.348,469.473 264.552,468.555 265.053,467.255 C 264.898,466.751 264.666,466.28 264.382,465.828 C 262.386,465.21 260.462,465.186 258.599,465.63 Z" stroke-width="0.5" stroke-opacity="0.325490" fill="#ffffff" marker-start="none" marker-end="none" stroke-miterlimit="79.8403193612775" fill-opacity="0.325490"/>
     <path d="M 258.443,465.215 L 258.626,465.784 C 260.431,465.616 262.34,465.644 264.038,465.974 L 264.368,466.043 L 264.481,466.105 C 264.583,466.159 264.691,466.202 264.812,466.226 C 265.231,466.303 265.68,466.263 266.034,466.094 C 266.196,466.015 266.349,465.91 266.512,465.832 L 266.309,465.256 C 265.806,465.327 265.333,465.296 265.047,464.932 C 264.985,464.853 264.85,464.804 264.761,464.76 C 264.363,464.555 263.943,464.397 263.499,464.284 C 263.222,464.212 262.935,464.166 262.635,464.137 C 261.063,463.982 259.615,464.452 258.443,465.215 Z" stroke-width="0.5" fill="#000000" fill-rule="evenodd" marker-start="none" marker-end="none" stroke-miterlimit="79.8403193612775"/>
     <ellipse rx="0.452" ry="2.511" transform="translate(263.753 463.058) rotate(91.5208)" fill="#af8962" stroke-width="0.5" stroke-miterlimit="79.8403193612775"/>
    </g>
   </g>
   <g id="нога дальная 1 часть">
    <path d="M 266.146,223.777 L 266.146,223.777 C 266.292,224.37 266.454,224.94 266.637,225.485 C 267.484,228.939 261.115,242.247 259.115,245.586 C 248.214,263.788 233.909,281.75 224.119,298.756 L 224.119,298.756 C 207.232,332.04 244.197,346.72 264.029,314.618 C 275.826,288.628 284.992,264.687 290.327,240.949 C 296.175,225.561 271.928,200.98 266.146,223.777 Z" fill="#f7e4b9" stroke="none" stroke-width="0.5" marker-start="none" marker-end="none" stroke-miterlimit="79.8403193612775"/>
   </g>
   <g id="нога дальная 2 часть">
    <g id="Group_7" stroke="none" stroke-width="0.5" stroke-miterlimit="79.8403193612775">
     <path d="M 267.611,194.392 C 265.343,193.515 261.808,209.862 263.876,220.187 C 263.998,220.784 264.135,221.361 264.294,221.915 C 269.142,237.187 285.645,247.472 292.12,237.548 C 296.136,232.129 295.772,223.337 297.579,215.564 C 294.012,200.159 271.868,192.809 267.611,194.392 Z" fill="#f7e4b9" marker-start="none" marker-end="none"/>
     <g id="Group_8">
      <path d="M 304.153,150.507 C 309.249,140.222 284.528,135.166 285.208,147.957 C 285.019,151.48 284.29,154.522 283.082,157.141 C 273.214,171.915 263.609,186.663 264.453,200.463 C 270.471,187.677 294.173,211.42 296.477,222.675 L 296.004,226.192 C 298.915,225.995 300.544,222.975 300.644,217.829 C 295.311,191.421 293.974,170.146 304.153,150.507 Z" fill="#674843" marker-start="none" marker-end="none"/>
      <g id="Group_9">
       <path d="M 285.413,145.551 C 285.33,146.323 285.263,147.127 285.215,147.963 C 285.168,148.843 285.087,149.694 285.181,148.329 C 285.071,149.68 285.023,150.099 285.01,150.127 C 284.86,151.337 284.714,152.129 284.904,150.894 C 284.698,152.116 284.616,152.505 284.606,152.507 C 284.357,153.657 284.146,154.393 284.429,153.263 C 284.131,154.38 284.017,154.741 284.011,154.73 C 283.664,155.81 283.392,156.492 283.764,155.455 C 283.376,156.479 283.232,156.813 283.23,156.794 L 283.09,157.146 C 275.776,168.096 268.606,179.032 265.77,189.44 L 265.723,189.6 L 265.178,191.886 L 265.091,192.261 L 264.743,194.363 L 264.66,194.901 L 264.488,196.855 L 264.439,197.52 L 264.435,199.983 L 264.71,199.978 L 264.79,199.861 C 264.641,200.062 264.846,199.699 265.58,198.729 C 264.988,199.471 265.296,199.03 265.661,198.627 C 265.51,198.709 266.017,198.187 266.708,197.715 C 265.972,198.273 266.337,197.956 266.798,197.664 C 266.861,197.59 267.154,197.422 267.861,197.148 C 267.12,197.439 267.536,197.239 268.095,197.067 C 267.769,197.146 268.088,197.037 269.34,196.816 C 268.414,196.946 268.876,196.854 269.36,196.813 C 269.082,196.797 269.788,196.749 270.768,196.835 C 269.836,196.772 270.335,196.779 271.032,196.869 C 270.903,196.828 271.282,196.879 272.258,197.102 C 271.366,196.891 271.899,196.993 272.574,197.181 C 273.224,197.258 274.899,197.939 275.682,198.413 C 274.682,197.923 275.26,198.188 275.845,198.488 C 273.07,189.839 281.004,173.587 291.516,155.507 C 292.051,154.236 292.364,152.925 292.52,151.615 C 293.241,146.89 293.473,143.166 293.366,140.354 C 289.667,140.451 286.29,142.017 285.413,145.551 Z" fill="#3b2523" marker-start="none" marker-end="none"/>
       <path d="M 299.644,141.547 C 299.613,141.611 299.581,141.673 299.549,141.738 C 294.553,156.239 279.625,183.261 281.629,199.375 L 296.519,214.253 L 293.647,184.361 C 293.438,170.903 299.091,152.242 303.401,144.142 C 302.468,143.068 301.15,142.188 299.644,141.547 Z" fill="#9c7069" marker-start="none" marker-end="none"/>
      </g>
      <path d="M 283.564,146.602 L 283.751,146.641 C 283.669,146.559 283.588,146.476 283.506,146.392 C 283.524,146.462 283.544,146.531 283.564,146.602 Z" fill="#3b2523" marker-start="none" marker-end="none"/>
      <path d="M 268.536,181.85 C 268.349,182.82 268.192,183.803 268.062,184.798 C 277.72,184.433 287.562,190.371 297.173,198.275 C 297.092,196.392 297.031,194.526 296.991,192.682 C 287.772,185.786 278.286,182.178 268.536,181.85 Z" fill="#3b2523" marker-start="none" marker-end="none"/>
      <path d="M 268.93,179.994 C 268.711,180.941 268.515,181.9 268.35,182.871 C 277.989,181.703 287.969,188.223 297.083,195.941 C 297.02,194.06 296.975,192.197 296.954,190.355 C 283.687,181.645 273.069,177.561 268.93,179.994 Z" marker-start="none" marker-end="none" fill="url(#LinearGradient)"/>
     </g>
    </g>
   </g>
   <g id="нога дальная 3 часть">
    <g id="Group_10" stroke="none" stroke-width="0.5" stroke-miterlimit="79.8403193612775">
     <path d="M 284.978,97.728 L 282.798,127.321 C 282.581,127.321 288.248,127.545 289.993,127.545 C 291.737,127.545 316.157,119.698 317.029,119.249 C 317.901,118.801 329.965,111.627 335.998,108.041 L 345.281,103.818 C 337.63,88.175 308.471,95.096 284.978,97.728 Z" fill="#27100d" marker-start="none" marker-end="none"/>
     <path d="M 313.563,115.147 C 303.499,122.81 294.53,123.539 286.876,123.755 C 280.129,123.962 279.082,134.539 284.085,143.663 C 284.217,144.703 284.333,145.835 284.358,147.096 L 284.428,147.099 C 287.305,154.348 296.473,155.062 304.667,149.064 C 308.839,139.662 320.691,140.257 329.96,118.554 C 333.271,113.197 337.785,108.94 345.309,107.434 C 346.992,104.288 344.835,101.986 340.076,100.26 C 330.907,101.74 333.615,103.114 313.563,115.147 Z" fill="#674843" marker-start="none" marker-end="none"/>
     <path d="M 326.978,116.433 C 327.134,118 308.361,133.177 299.378,135.933 C 296.181,140.622 295.677,144.926 295.458,149.19 C 295.27,150.491 295.068,151.777 294.853,153.05 C 296.578,152.902 298.399,152.43 300.235,151.632 C 300.799,147.499 303.267,143.366 307.028,139.233 C 314.728,135.734 321.398,129.35 327.128,120.333 C 329.292,116.234 331.475,112.138 337.178,108.483 C 332.85,110.019 329.327,112.522 326.978,116.433 Z" fill="#9c7069" marker-start="none" marker-end="none"/>
     <path d="M 297.038,124.033 L 291.817,125.033 C 291.066,127.433 298.991,143.241 305.644,148.237 C 305.72,148.201 305.796,148.165 305.871,148.128 C 305.924,148.085 305.976,148.042 306.028,147.999 L 306.23,147.946 C 307.707,147.167 308.939,146.141 309.938,144.883 C 310.198,144.055 310.169,143.225 309.935,142.397 C 305.485,142.763 296.738,126.76 297.038,124.033 Z" fill="#3b2523" marker-start="none" marker-end="none"/>
     <path d="M 298.538,122.983 L 293.317,123.983 C 292.566,126.383 300.491,142.191 307.144,147.187 C 308.885,146.379 310.31,145.254 311.438,143.833 C 311.698,143.005 311.669,142.175 311.435,141.347 C 306.985,141.713 298.238,125.71 298.538,122.983 Z" marker-start="none" marker-end="none" fill="url(#LinearGradient_1)"/>
     <path d="M 313.563,115.147 C 303.499,122.81 294.53,123.539 286.876,123.755 C 280.129,123.962 279.082,134.539 284.085,143.663 C 284.217,144.703 284.333,145.835 284.358,147.096 L 284.428,147.099 C 285.589,150.026 287.777,151.887 290.512,152.672 C 291.138,149.747 291.107,147.459 290.118,146.066 C 283.897,138.739 285.624,133.415 292.669,130.373 C 303.043,129.796 315.94,121.653 330.637,108.107 C 335.906,105.037 341.009,103.478 345.799,104.722 C 345.389,102.904 343.347,101.446 340.076,100.26 C 330.907,101.74 333.615,103.114 313.563,115.147 Z" fill="#3b2523" marker-start="none" marker-end="none"/>
     <path d="M 327.166,104.939 L 323.705,106.91 C 323.323,108.13 327.822,115.386 331.205,117.926 C 332.427,116.835 333.151,116.263 333.725,115.54 C 333.857,115.119 333.842,114.697 333.723,114.276 C 331.461,114.462 327.014,106.326 327.166,104.939 Z" fill="#3b2523" marker-start="none" marker-end="none"/>
     <path d="M 328.291,104.114 L 324.83,106.085 C 324.448,107.305 328.947,114.561 332.33,117.101 C 333.552,116.01 334.276,115.438 334.85,114.715 C 334.982,114.294 334.967,113.872 334.848,113.451 C 332.586,113.637 328.139,105.501 328.291,104.114 Z" marker-start="none" marker-end="none" fill="url(#LinearGradient_2)"/>
     <path d="M 336.42,99.797 C 335.482,100.049 334.592,100.394 333.74,100.821 C 333.309,101.036 332.879,101.258 332.46,101.498 C 332.324,101.575 332.189,101.658 332.054,101.739 C 331.988,101.778 331.732,101.93 331.744,101.924 C 324.849,105.709 318.256,110.082 311.552,114.235 C 308.703,115.999 305.82,117.698 302.842,119.198 C 301.582,119.831 300.295,120.448 298.98,120.961 C 295.43,122.344 291.752,123.418 287.477,123.325 C 285.833,123.289 284.292,123.058 282.787,122.766 L 282.571,123.638 C 284.346,124.138 286.144,124.544 288.118,124.682 C 293.238,125.037 297.807,123.704 301.996,121.983 C 303.63,121.311 305.216,120.544 306.778,119.722 C 310.652,117.681 314.379,115.337 318.101,112.961 C 322.666,110.045 327.168,106.974 331.745,104.073 C 334.334,102.431 336.976,100.39 340.478,100.802 C 340.964,100.859 341.438,100.963 341.882,101.111 C 342.52,101.323 343.115,101.587 343.685,101.932 L 344.165,101.152 C 343.323,100.626 342.509,100.151 341.566,99.845 C 339.977,99.328 338.039,99.36 336.42,99.797 Z" marker-start="none" marker-end="none" fill="url(#LinearGradient_3)"/>
     <path d="M 283.902,143.839 C 283.63,144.818 283.86,145.798 284.303,146.777 L 285.436,146.845 C 289.15,142.309 294.179,140.021 299.587,138.39 L 298.588,136.275 C 292.785,137.586 287.948,140.187 283.902,143.839 Z" marker-start="none" marker-end="none" fill="url(#LinearGradient_4)"/>
     <path d="M 282.736,143.21 C 282.45,144.241 282.692,145.273 283.158,146.304 L 284.352,146.376 C 288.264,141.598 293.561,139.188 299.258,137.47 L 298.205,135.242 C 292.093,136.623 286.998,139.363 282.736,143.21 Z" fill="#3b2523" marker-start="none" marker-end="none"/>
    </g>
   </g>
   <g id="нога ближняя 1 часть">
    <path d="M 168.789,215.623 L 168.789,215.623 C 169.282,216.074 169.778,216.495 170.277,216.882 C 173.152,219.518 175.442,235.537 175.65,239.8 C 176.784,263.044 174.668,288.14 176.087,309.615 L 176.087,309.615 C 180.942,350.264 223.605,341.155 222.157,299.792 C 217.098,268.899 210.887,241.475 201.303,216.569 C 197.273,198.969 160.187,191.302 168.789,215.623 Z" fill="#f7e4b9" stroke="none" stroke-width="0.5" marker-start="none" marker-end="none" stroke-miterlimit="79.8403193612775"/>
   </g>
   <g id="нога ближняя 2 часть">
    <g id="Group_11" stroke="none" stroke-width="0.5" stroke-miterlimit="79.8403193612775">
     <path d="M 155.025,185.609 C 152.366,185.801 156.513,203.67 163.399,212.942 C 163.799,213.478 164.206,213.985 164.622,214.46 C 176.582,227.338 197.766,229.812 199.542,216.937 C 200.988,209.681 196.51,201.131 194.662,192.575 C 183.911,178.967 158.506,182.045 155.025,185.609 Z" fill="#f7e4b9" marker-start="none" marker-end="none"/>
     <g id="Group_12">
      <path d="M 170.72,124.971 C 170.958,112.384 144.072,118.945 150.736,131.313 C 152.198,134.895 152.899,138.254 152.927,141.417 C 150.057,160.691 147.437,179.816 154.735,193.109 C 154.717,177.609 189.344,190.06 196.899,200.145 L 198.077,203.855 C 200.872,202.296 201.074,198.538 198.763,193.387 C 181.108,169.692 169.819,149.216 170.72,124.971 Z" fill="#674843" marker-start="none" marker-end="none"/>
      <g id="Group_13">
       <path d="M 149.813,128.83 C 150.092,129.635 150.402,130.464 150.746,131.316 C 151.111,132.211 151.429,133.092 150.883,131.695 C 151.407,133.086 151.555,133.524 151.556,133.558 C 151.973,134.828 152.199,135.682 151.809,134.368 C 152.177,135.677 152.278,136.101 152.269,136.107 C 152.56,137.365 152.696,138.193 152.448,136.941 C 152.675,138.188 152.732,138.599 152.72,138.591 C 152.881,139.825 152.931,140.628 152.815,139.426 C 152.909,140.623 152.923,141.021 152.912,141.004 L 152.938,141.419 C 150.811,155.704 148.82,169.909 150.881,181.559 L 150.909,181.74 L 151.438,184.263 L 151.528,184.675 L 152.166,186.923 L 152.336,187.496 L 153.081,189.514 L 153.344,190.197 L 154.493,192.641 L 154.763,192.507 L 154.788,192.354 C 154.734,192.624 154.767,192.167 155.041,190.862 C 154.801,191.874 154.901,191.293 155.074,190.723 C 154.963,190.875 155.221,190.119 155.686,189.327 C 155.216,190.225 155.431,189.74 155.75,189.235 C 155.778,189.132 155.991,188.828 156.563,188.225 C 155.965,188.861 156.284,188.467 156.758,188.036 C 156.471,188.266 156.737,188.009 157.875,187.203 C 157.018,187.766 157.432,187.459 157.893,187.191 C 157.609,187.305 158.288,186.927 159.3,186.553 C 158.346,186.927 158.845,186.701 159.578,186.464 C 159.431,186.484 159.832,186.357 160.903,186.121 C 159.92,186.329 160.496,186.181 161.254,186.051 C 161.934,185.823 163.915,185.714 164.913,185.818 C 163.692,185.799 164.389,185.792 165.11,185.816 C 158.308,178.537 158.567,158.702 160.528,135.848 C 160.463,134.337 160.16,132.889 159.701,131.517 C 158.204,126.493 156.69,122.691 155.268,119.952 C 151.644,121.78 149.028,124.915 149.813,128.83 Z" fill="#3b2523" marker-start="none" marker-end="none"/>
       <path d="M 162.052,118.195 C 162.051,118.273 162.049,118.351 162.048,118.43 C 163.883,135.152 161.729,168.943 171.262,183.987 L 192.997,191.772 L 176.152,163.469 C 169.643,150.218 166.512,129.063 166.994,119.011 C 165.566,118.382 163.846,118.126 162.052,118.195 Z" fill="#9c7069" marker-start="none" marker-end="none"/>
      </g>
      <path d="M 148.471,130.739 L 148.675,130.69 C 148.555,130.647 148.435,130.602 148.315,130.557 C 148.366,130.618 148.418,130.678 148.471,130.739 Z" fill="#3b2523" marker-start="none" marker-end="none"/>
      <path d="M 150.07,172.735 C 150.338,173.785 150.643,174.835 150.981,175.882 C 160.388,170.997 172.931,172.278 186.164,175.618 C 185.202,173.788 184.269,171.966 183.365,170.155 C 170.992,167.633 159.894,168.496 150.07,172.735 Z" fill="#3b2523" marker-start="none" marker-end="none"/>
      <path d="M 149.592,170.711 C 149.818,171.752 150.073,172.795 150.364,173.835 C 159.377,168.164 172.328,169.957 184.982,173.345 C 184.038,171.509 183.122,169.682 182.239,167.865 C 165.001,165.438 152.558,166.359 149.592,170.711 Z" marker-start="none" marker-end="none" fill="url(#LinearGradient_5)"/>
     </g>
    </g>
   </g>
   <g id="нога ближняя 3 часть">
    <g id="Group_14" stroke="none" stroke-width="0.5" stroke-miterlimit="79.8403193612775">
     <g id="Group_15">
      <path d="M 147.071,80.033 L 142.953,110.514 C 144.833,108.382 148.595,104.123 148.892,103.726 C 149.188,103.33 165.238,96.684 171.185,95.563 C 177.133,94.446 185.376,79.869 189.501,72.584 L 196.752,62.423 C 180.825,56.245 164.103,65.14 147.071,80.033 Z" fill="#27100d" marker-start="none" marker-end="none"/>
      <path d="M 171.625,78.424 C 166.482,86.637 158.748,96.905 150.674,99.156 C 143.399,102.688 139.949,108.358 144.112,118.215 C 147.146,122.223 149.342,125.99 150.793,129.537 C 158.805,131.509 166.964,128.386 170.776,123.197 C 170.803,122.504 170.836,121.813 170.883,121.113 C 179.615,108.957 188.308,79.542 198.467,72.951 C 202.517,69.501 201.478,65.694 195.818,61.563 C 184.899,63.588 176.948,69.358 171.625,78.424 Z" fill="#674843" marker-start="none" marker-end="none"/>
      <path d="M 171.636,78.427 C 166.492,86.639 158.759,96.907 150.685,99.161 C 143.41,102.689 139.962,108.361 144.122,118.217 C 147.155,122.226 149.353,125.994 150.802,129.54 C 153.849,130.288 156.917,130.301 159.757,129.741 C 157.409,122.74 150.986,117.693 151.36,116.302 C 150.27,111.067 151.404,105.912 158.609,100.991 C 176.487,87.594 180.524,60.933 198.477,63.808 C 197.75,63.07 196.867,62.325 195.828,61.562 C 184.905,63.592 176.958,69.362 171.636,78.427 Z" fill="#3b2523" marker-start="none" marker-end="none"/>
      <path d="M 186.014,73.741 C 180.814,85.005 174.793,95.64 167.845,105.564 C 162.668,109.858 160.483,114.96 161.993,121.048 C 162.981,123.257 163.574,125.731 163.607,128.585 C 164.872,128.066 166.052,127.429 167.116,126.691 C 167.555,121.255 169.253,116.519 172.256,112.503 C 175.594,106.07 183.972,90.001 190.696,77.106 C 191.728,74.511 193.884,72.135 197.243,69.989 C 192.478,68.807 188.715,70.01 186.014,73.741 Z" fill="#9c7069" marker-start="none" marker-end="none"/>
      <path d="M 148.521,125.367 C 148.548,126.661 149.185,127.77 150.08,128.802 L 151.488,128.473 C 154.361,121.59 159.658,116.97 165.657,113.009 L 163.669,110.796 C 157.068,114.509 152.125,119.442 148.521,125.367 Z" marker-start="none" marker-end="none" fill="url(#LinearGradient_6)"/>
      <path d="M 146.858,125.311 C 146.886,126.61 147.498,127.736 148.37,128.783 C 148.49,128.826 148.612,128.872 148.729,128.912 L 150.024,128.611 C 153.069,121.274 158.696,116.342 165.074,112.114 L 162.95,109.762 C 155.937,113.731 150.681,118.993 146.858,125.311 Z" fill="#3b2523" marker-start="none" marker-end="none"/>
      <path d="M 156.839,101.062 L 152.141,103.69 C 152.221,106.155 164.65,118.126 172.766,121.053 L 174.034,120.445 C 175.044,119.311 175.791,118.049 176.283,116.665 C 176.257,115.798 175.95,115.021 175.446,114.311 C 171.279,116.093 157.465,103.744 156.839,101.062 Z" fill="#3b2523" marker-start="none" marker-end="none"/>
      <path d="M 158.146,100.003 L 153.536,102.648 C 153.608,105.163 166.246,117.529 174.164,120.088 C 175.547,118.755 176.53,117.228 177.132,115.517 C 177.109,114.651 176.811,113.875 176.32,113.168 C 172.231,114.964 158.751,102.677 158.146,100.003 Z" marker-start="none" marker-end="none" fill="url(#LinearGradient_7)"/>
      <path d="M 181.171,71.958 L 178.016,75.54 C 178.059,77.071 185.986,83.538 190.812,85.1 C 191.77,83.383 192.367,82.455 192.735,81.412 C 192.724,80.883 192.539,80.41 192.242,79.978 C 189.75,81.073 181.536,73.587 181.171,71.958 Z" fill="#3b2523" marker-start="none" marker-end="none"/>
      <path d="M 182.077,70.698 L 178.925,74.285 C 178.972,75.816 186.901,82.284 191.723,83.842 C 192.683,82.125 193.278,81.198 193.646,80.157 C 193.632,79.627 193.452,79.153 193.154,78.721 C 190.66,79.817 182.45,72.333 182.077,70.698 Z" marker-start="none" marker-end="none" fill="url(#LinearGradient_8)"/>
      <path d="M 182.349,62.961 C 181.614,63.537 180.957,64.181 180.365,64.884 C 180.066,65.239 179.768,65.597 179.49,65.97 C 179.399,66.089 179.311,66.215 179.225,66.339 C 179.179,66.396 179.01,66.627 179.019,66.622 C 174.361,72.601 170.195,78.991 165.846,85.226 C 163.998,87.876 162.094,90.481 160.031,92.94 C 159.157,93.982 158.255,95.017 157.285,95.97 C 154.666,98.542 151.817,100.882 147.99,102.401 C 146.518,102.984 145.065,103.355 143.616,103.658 L 143.763,104.519 C 145.525,104.303 147.277,103.993 149.082,103.376 C 153.758,101.777 157.299,98.87 160.354,95.757 C 161.543,94.54 162.654,93.259 163.72,91.937 C 166.376,88.655 168.776,85.157 171.165,81.632 C 174.091,77.306 176.902,72.865 179.847,68.545 C 181.51,66.104 183.068,63.284 186.333,62.343 C 186.786,62.21 187.246,62.127 187.696,62.092 C 188.344,62.043 188.973,62.058 189.613,62.154 L 189.738,61.273 C 188.788,61.115 187.884,60.998 186.93,61.077 C 185.323,61.207 183.617,61.963 182.349,62.961 Z" marker-start="none" marker-end="none" fill="url(#LinearGradient_9)"/>
     </g>
    </g>
   </g>
   <g id="юбка">
    <g id="Group_16" stroke="none" stroke-width="0.5" stroke-miterlimit="79.8403193612775">
     <path d="M 234.721,300.923 C 234.372,302 231.93,327.467 231.93,327.826 C 234.837,329.5 240.651,332.848 242.047,332.848 C 243.442,332.848 253.21,328.902 255.303,327.467 C 256.124,326.904 257.445,325.653 258.907,324.161 C 261.195,318.162 263.779,312.224 266.115,306.236 L 260.678,300.26 L 253.553,312.405 L 252.803,294.668 C 248.151,291.236 243.116,288.643 237.802,286.661 C 236.219,294.181 234.896,300.382 234.721,300.923 Z" fill="#af8962" marker-start="none" marker-end="none"/>
     <path d="M 202.553,280.209 L 197.865,298.524 L 192.053,280.401 C 185.809,282.455 180.113,285.284 175.672,289.886 C 175.837,295.269 176.08,300.541 176.42,305.678 C 180.572,307.967 188.876,312.544 189.776,314.102 C 190.676,315.659 199.588,317.44 200.021,317.44 C 200.454,317.44 211.724,311.654 217.361,308.761 L 222.49,295.855 C 221.729,291.209 220.942,286.643 220.122,282.151 C 214.397,281.216 208.507,280.642 202.553,280.209 Z" fill="#af8962" marker-start="none" marker-end="none"/>
     <path d="M 190.028,345.974 C 182.598,331.905 177.47,316.142 173.528,299.51 C 178.187,290.932 185.826,286.565 194.528,283.701 L 200.34,301.824 L 205.028,283.509 C 223.372,284.845 241.107,287.513 255.278,297.968 L 256.028,315.705 L 263.153,303.56 L 268.59,309.536 C 263.365,322.932 256.9,336.078 255.278,350.215 L 240.09,343.661 C 221.663,339.797 193.484,348.282 196.028,352.336 L 190.028,345.974 Z" fill="#674843" marker-start="none" marker-end="none"/>
     <path d="M 235.751,335.141 L 250.517,344.985 L 256.009,315.264 L 255.278,297.968 C 250.798,294.663 245.963,292.136 240.865,290.184 C 239.755,301.26 237.22,322.701 235.751,335.141 Z" fill="#9c7069" marker-start="none" marker-end="none"/>
     <path d="M 173.528,299.51 C 175.499,307.826 177.766,315.924 180.47,323.703 C 182.497,329.536 184.77,335.19 187.347,340.62 C 188.206,342.43 189.099,344.215 190.028,345.974 L 194.013,350.199 L 198.251,339.829 L 182.548,301.391 L 198.157,295.017 L 194.528,283.701 C 185.826,286.565 178.187,290.932 173.528,299.51 Z" fill="#27100d" marker-start="none" marker-end="none"/>
    </g>
   </g>
   <g id="между ног накидка">
    <g id="Group_17" stroke="none" stroke-width="0.5" stroke-miterlimit="79.8403193612775">
     <path d="M 207.603,347.461 C 217.788,278.766 200.007,240.263 207.955,214.281 C 209.818,182.882 206.81,154.328 196.619,127.125 C 204.059,133.754 206.354,145.298 218.499,139.382 C 229.236,136.157 237.71,131.91 244.485,140.629 C 247.072,146.561 251.194,149.691 256.935,149.863 C 257.233,168.314 256.67,186.766 254.478,205.217 C 254.65,221.172 246.014,237.269 248.115,254.928 C 247.976,272.211 251.415,288.722 249.315,313.079 C 246.103,325.279 243.875,335.002 244.165,348.245 C 233.22,342.322 220.088,348.025 207.603,347.461 Z" fill="#27100d" marker-start="none" marker-end="none"/>
     <path d="M 210.927,347.462 C 221.112,278.767 203.331,240.263 211.279,214.282 C 213.142,182.882 206.47,154.454 196.279,127.25 C 203.719,133.88 210.014,143.57 222.159,137.655 C 232.293,128.932 240.827,130.022 247.809,140.629 C 250.396,146.561 254.518,149.69 260.259,149.863 C 260.557,168.315 259.994,186.767 257.802,205.217 C 257.974,221.172 249.339,237.269 251.439,254.928 C 251.3,272.212 254.739,288.723 252.639,313.079 C 249.428,325.279 247.199,335.001 247.489,348.246 C 236.544,342.322 223.412,348.026 210.927,347.462 Z" fill="#674843" marker-start="none" marker-end="none"/>
     <g id="Group_18">
      <path d="M 222.159,137.655 C 220.416,138.504 218.793,139.031 217.271,139.292 C 218.031,146.552 218.75,153.827 219.314,161.184 C 219.556,164.35 219.746,167.546 219.909,170.749 C 220.31,178.633 220.385,187.031 219.814,194.954 C 219.491,199.424 219.007,203.773 218.3,208.019 C 217.972,209.993 217.57,211.921 217.17,213.848 C 217.179,213.813 217.188,213.774 217.2,213.739 C 216.814,215.233 216.508,216.762 216.237,218.318 C 214.833,226.427 214.836,235.772 215.405,244.311 C 216.178,255.925 217.777,267.163 219.612,278.305 C 220.293,282.455 221.005,286.613 221.741,290.739 C 221.966,292.01 222.216,293.264 222.443,294.522 C 222.769,296.317 223.035,298.172 223.235,300.029 C 223.92,306.401 223.962,313.476 223.321,319.971 C 222.978,323.429 222.411,326.736 221.742,329.991 L 224.669,330.745 C 225.214,328.123 225.719,325.458 226.079,322.725 C 226.73,317.781 227.086,312.653 227.082,307.355 C 227.082,305.998 227.056,304.636 227.005,303.299 C 226.894,300.522 226.681,297.798 226.383,295.131 C 226.312,294.492 226.219,293.856 226.131,293.221 C 226.087,292.903 226.036,292.595 225.989,292.281 C 225.978,292.215 225.969,292.152 225.959,292.087 C 225.956,292.071 225.954,292.053 225.951,292.038 C 225.936,291.941 225.946,292.013 225.953,292.042 C 224.868,283.65 223.924,275.196 223.319,266.571 C 223.099,263.464 222.904,260.32 222.792,257.17 C 222.442,247.288 222.497,236.819 224.019,227.526 C 224.355,225.468 224.739,223.45 225.233,221.487 C 225.713,219.575 226.323,217.77 226.902,215.922 C 227.85,212.873 228.707,209.741 229.388,206.547 C 230.082,203.288 230.718,199.989 231.238,196.616 C 232.213,190.272 232.773,183.696 233.045,176.965 C 233.125,174.981 233.188,172.967 233.207,170.952 C 233.251,166.327 233.199,161.766 233.052,157.26 C 232.773,148.812 232.167,140.515 231.436,132.275 C 228.508,133.06 225.416,134.85 222.159,137.655 Z M 241.291,175.378 C 241.209,180.321 241.054,185.397 240.714,190.464 C 240.565,192.656 240.391,194.824 240.216,196.97 C 240.122,198.117 240.004,199.26 239.88,200.39 C 239.568,203.21 239.23,205.979 238.816,208.705 C 238.427,211.273 237.983,213.775 237.502,216.259 C 237.51,216.22 237.519,216.186 237.529,216.15 C 237.195,217.632 236.916,219.151 236.662,220.698 C 235.325,228.773 234.937,238.076 234.921,246.619 C 234.91,252.465 235.085,258.212 235.338,263.908 C 235.583,269.525 235.918,275.09 236.296,280.629 C 236.58,284.786 236.885,288.949 237.205,293.082 C 237.306,294.356 237.419,295.613 237.522,296.872 C 237.667,298.671 237.765,300.528 237.82,302.386 C 238.004,308.76 237.716,315.817 236.985,322.287 C 236.594,325.729 236.055,329.022 235.452,332.251 L 237.431,333.066 C 237.926,330.459 238.393,327.816 238.762,325.091 C 239.432,320.172 239.908,315.064 240.141,309.777 C 240.202,308.423 240.246,307.063 240.27,305.727 C 240.319,302.953 240.294,300.233 240.207,297.565 C 240.189,296.923 240.153,296.289 240.119,295.652 C 240.103,295.335 240.082,295.025 240.064,294.711 C 240.059,294.648 240.056,294.582 240.053,294.516 L 240.049,294.469 L 240.048,294.457 L 240.049,294.462 C 240.044,294.371 240.046,294.442 240.048,294.457 C 239.542,282.971 239.23,271.321 239.441,259.351 C 239.532,254.071 239.737,248.548 240.152,243.193 C 240.512,238.526 240.966,233.975 241.675,229.626 C 242.014,227.536 242.378,225.499 242.835,223.517 C 243.282,221.579 243.817,219.739 244.295,217.833 C 245.07,214.735 245.788,211.581 246.421,208.351 C 248.262,198.958 249.444,188.999 250.174,178.619 C 250.741,170.548 250.987,162.438 251.068,154.599 C 251.097,151.658 251.104,148.733 251.093,145.82 C 249.807,144.438 248.714,142.705 247.809,140.629 C 245.587,137.254 243.208,134.841 240.671,133.403 C 241.076,147.277 241.529,161.113 241.291,175.378 Z" fill="#27100d" marker-start="none" marker-end="none"/>
      <path d="M 225.36,135.189 C 225.93,142.611 226.462,150.049 226.837,157.573 C 226.999,160.836 227.108,164.132 227.191,167.432 C 227.392,175.561 227.255,184.22 226.483,192.389 C 226.047,196.998 225.451,201.481 224.637,205.86 C 224.258,207.895 223.808,209.883 223.358,211.871 C 223.368,211.833 223.379,211.795 223.392,211.758 C 222.965,213.3 222.621,214.875 222.313,216.48 C 220.701,224.843 220.468,234.477 220.82,243.279 C 221.3,255.252 222.616,266.836 224.17,278.323 C 224.749,282.6 225.354,286.885 225.987,291.138 C 226.181,292.449 226.399,293.743 226.595,295.037 C 226.876,296.89 227.094,298.8 227.248,300.715 C 227.772,307.284 227.634,314.577 226.828,321.276 C 226.398,324.84 225.746,328.251 224.996,331.609 L 227.904,332.381 C 228.518,329.675 229.09,326.93 229.521,324.112 C 230.296,319.012 230.782,313.728 230.913,308.264 C 230.947,306.864 230.957,305.459 230.938,304.082 C 230.899,301.217 230.753,298.411 230.522,295.663 C 230.468,295.002 230.39,294.347 230.318,293.692 C 230.283,293.366 230.24,293.046 230.199,292.727 C 230.191,292.659 230.182,292.591 230.174,292.524 C 230.171,292.505 230.171,292.489 230.169,292.473 C 230.156,292.375 230.165,292.448 230.171,292.479 C 229.298,283.826 228.568,275.113 228.177,266.219 C 228.037,263.018 227.922,259.776 227.89,256.53 C 227.789,246.341 228.109,235.547 229.867,225.965 C 230.256,223.842 230.692,221.762 231.235,219.739 C 231.765,217.767 232.422,215.906 233.045,214 C 234.072,210.855 235.008,207.625 235.772,204.332 C 236.549,200.97 237.268,197.568 237.873,194.09 C 239.011,187.549 239.737,180.769 240.181,173.827 C 240.311,171.781 240.425,169.706 240.495,167.629 C 240.657,162.86 240.721,158.158 240.687,153.513 C 240.635,146.612 240.375,139.807 240.01,133.052 C 235.599,130.868 230.718,131.564 225.36,135.189 Z M 248.474,172.185 C 248.268,177.278 247.983,182.513 247.514,187.736 C 247.308,189.997 247.081,192.234 246.85,194.446 C 246.727,195.627 246.581,196.807 246.428,197.973 C 246.045,200.879 245.637,203.736 245.154,206.544 C 244.698,209.193 244.191,211.775 243.647,214.336 C 243.656,214.295 243.665,214.259 243.675,214.222 C 243.305,215.752 242.987,217.318 242.693,218.913 C 241.153,227.24 240.526,236.829 240.296,245.637 C 240.136,251.665 240.167,257.59 240.274,263.464 C 240.378,269.253 240.572,274.991 240.812,280.7 C 240.992,284.986 241.189,289.277 241.407,293.538 C 241.474,294.85 241.557,296.147 241.628,297.446 C 241.725,299.3 241.777,301.214 241.785,303.129 C 241.809,309.702 241.342,316.979 240.446,323.648 C 239.968,327.197 239.345,330.592 238.659,333.923 L 240.62,334.76 C 241.181,332.071 241.714,329.349 242.154,326.537 C 242.948,321.463 243.555,316.2 243.922,310.748 C 244.017,309.35 244.096,307.948 244.153,306.571 C 244.273,303.712 244.316,300.907 244.297,298.157 C 244.294,297.494 244.275,296.841 244.258,296.184 C 244.248,295.859 244.236,295.538 244.225,295.215 C 244.222,295.149 244.22,295.082 244.22,295.014 L 244.216,294.964 L 244.217,294.958 L 244.217,294.952 C 244.215,294.938 244.213,294.864 244.217,294.957 L 244.217,294.952 C 244.001,283.11 243.983,271.101 244.496,258.762 C 244.721,253.315 245.066,247.623 245.618,242.101 C 246.096,237.288 246.665,232.596 247.484,228.11 C 247.877,225.956 248.292,223.855 248.801,221.812 C 249.297,219.814 249.88,217.915 250.406,215.951 C 251.261,212.756 252.059,209.503 252.774,206.173 C 254.854,196.489 256.291,186.218 257.284,175.517 C 258.054,167.195 258.506,158.833 258.785,150.749 C 258.796,150.417 258.807,150.085 258.818,149.753 C 254.57,149.225 251.296,146.919 248.957,142.905 C 248.961,152.562 248.877,162.272 248.474,172.185 Z" fill="#9c7069" marker-start="none" marker-end="none"/>
     </g>
    </g>
   </g>
   <g id="пояс">
    <g id="Group_19" stroke="none" stroke-width="0.5" stroke-miterlimit="79.8403193612775">
     <path d="M 239.239,348.731 L 238.169,338.039 L 239.763,336.914 C 245.639,338.535 250.921,342.88 255.528,347.767 L 255.645,357.166 C 254.397,359.074 252.227,360.509 248.497,361.142 C 249.747,355.467 246.924,351.236 239.239,348.731 Z" marker-start="none" marker-end="none" fill="url(#LinearGradient_10)"/>
     <path d="M 239.239,350.492 L 238.169,339.8 L 239.763,338.675 C 245.639,340.296 250.921,344.641 255.528,349.528 L 255.645,358.927 C 254.397,360.835 252.227,362.27 248.497,362.903 C 249.747,357.228 246.924,352.997 239.239,350.492 Z" marker-start="none" marker-end="none" fill="url(#LinearGradient_11)"/>
     <path d="M 239.156,349.673 L 239.239,350.492 C 245.331,352.477 248.368,355.548 248.742,359.563 C 248.697,360.076 248.615,360.602 248.497,361.142 C 248.585,361.126 248.673,361.111 248.759,361.095 C 248.721,361.68 248.633,362.283 248.497,362.903 C 250.828,362.507 252.55,361.798 253.819,360.856 C 253.824,360.834 253.829,360.812 253.835,360.79 C 251.362,354.964 241.185,348.954 239.156,349.673 Z" fill="#fff2e6" marker-start="none" marker-end="none"/>
     <path d="M 192.377,356.418 C 192.045,357.153 194.779,357.822 196.876,356.166 C 198.895,352.499 211.805,347.478 224.137,345.782 L 225.127,332.701 L 224.137,330.745 C 210.255,332.24 187.577,341.132 189.894,343.087 L 192.377,356.418 Z" fill="#27100d" marker-start="none" marker-end="none"/>
     <path d="M 192.377,359.772 C 192.045,360.507 194.779,361.176 196.876,359.52 C 198.895,355.853 211.805,350.832 224.137,349.136 L 225.127,336.055 L 224.137,334.099 C 210.255,335.594 187.577,344.486 189.894,346.441 L 192.377,359.772 Z" marker-start="none" marker-end="none" fill="url(#LinearGradient_12)"/>
     <path d="M 189.894,346.441 L 192.377,359.772 C 192.045,360.507 194.779,361.176 196.876,359.52 C 197.62,358.164 199.853,356.625 202.994,355.137 C 203.285,349.942 203.559,343.405 203.187,339.285 C 194.934,342.177 188.616,345.363 189.894,346.441 Z" fill="#503b34" marker-start="none" marker-end="none"/>
     <path d="M 192.52,360.176 C 193.1,360.678 195.202,360.853 196.891,359.519 C 198.823,356.011 210.726,351.262 222.552,349.372 C 209.798,350.761 198.925,353.668 192.52,360.176 Z" fill="#fff2e6" marker-start="none" marker-end="none"/>
     <g id="Group_20" fill="#3b2523">
      <path d="M 225.916,326.022 C 222.671,326.718 220.165,329.014 219.077,332.221 C 218.085,332.535 217.149,332.894 217.449,332.801 C 216.744,333.077 216.199,333.321 216.981,332.999 C 215.83,333.498 215.404,333.71 215.916,333.473 C 215.149,333.841 214.646,334.117 215.418,333.721 C 214.581,334.156 214.183,334.39 214.453,334.251 C 213.68,334.701 213.218,335.009 214.022,334.504 C 213.03,335.123 212.316,335.655 213.565,334.808 C 212.335,335.658 211.913,335.998 211.831,336.098 C 210.996,336.801 210.388,337.416 211.6,336.283 C 210.71,337.066 209.989,337.841 210.015,337.889 C 209.278,338.727 208.777,339.424 209.684,338.278 C 208.703,339.513 208.139,340.41 208.377,340.09 C 207.875,340.896 207.475,341.672 208.219,340.369 C 207.407,341.846 207.183,342.339 207.255,342.238 C 206.777,343.302 206.476,344.156 207.075,342.629 C 206.564,343.862 206.228,344.936 206.3,344.835 C 205.973,345.938 205.773,346.868 206.158,345.354 C 205.7,347.198 205.508,348.386 205.621,347.817 L 205.618,347.835 L 205.619,347.83 C 205.268,350.871 205.219,352.168 205.238,353.52 C 205.24,353.51 205.242,353.502 205.243,353.492 C 205.245,353.539 205.245,353.586 205.245,353.634 C 207.538,342.754 213.429,342.631 220.029,343.55 C 221.831,348.773 225.938,352.49 231.197,353.129 C 236.162,353.732 240.193,350.971 241.576,346.561 C 247.429,348.085 251.387,350.307 252.25,359.685 L 252.382,361.66 C 252.871,358.931 253.042,356.472 252.868,354.204 L 252.864,354.173 C 252.918,354.693 252.845,353.5 252.574,351.641 C 252.811,353.231 252.703,352.276 252.449,350.894 C 252.615,351.756 252.518,351.182 252.339,350.365 C 252.458,350.873 252.363,350.411 252.065,349.254 C 252.283,350.048 252.145,349.489 251.944,348.807 C 252.146,349.496 252.022,349.044 251.456,347.329 C 251.827,348.385 251.647,347.841 251.445,347.3 C 251.612,347.7 251.284,346.825 250.822,345.817 C 251.246,346.767 251.023,346.238 250.635,345.433 C 250.704,345.543 250.498,345.121 250.093,344.386 C 250.537,345.195 250.272,344.682 249.824,343.917 C 250.054,344.287 249.818,343.875 249.236,342.969 C 249.699,343.671 249.389,343.173 248.936,342.515 C 249.316,343.063 249.051,342.661 248.188,341.494 C 248.728,342.194 248.377,341.712 247.951,341.179 C 248.21,341.474 247.591,340.703 246.852,339.892 C 247.627,340.764 247.23,340.3 246.587,339.617 C 246.572,339.58 246.217,339.211 245.633,338.648 C 246.389,339.385 245.947,338.936 245.182,338.231 C 245.476,338.484 245.092,338.126 244.28,337.432 C 245.016,338.054 244.528,337.622 243.771,337.008 C 244.291,337.423 243.874,337.075 242.753,336.218 C 243.504,336.775 242.969,336.359 242.27,335.856 C 242.579,336.052 241.653,335.393 240.664,334.757 C 240.425,334.219 240.156,333.694 239.792,333.087 C 240.406,334.175 240.112,333.608 239.693,332.937 C 238.966,331.662 237.822,330.29 236.503,329.156 C 236.652,330.227 236.763,331.299 236.511,329.252 L 235.51,328.377 C 235.514,328.667 235.513,328.52 235.51,328.372 L 235.446,328.33 C 235.544,328.385 235.281,328.196 234.327,327.603 L 234.335,327.609 C 234.854,327.92 234.741,327.845 234.335,327.609 C 234.481,327.696 234.402,327.649 234.304,327.59 C 234.494,327.703 234.67,327.811 234.327,327.603 C 234.361,327.622 234.227,327.544 234.086,327.465 C 234.047,327.432 233.891,327.343 232.943,326.887 L 232.964,326.897 C 233.497,327.145 233.394,327.09 232.964,326.897 C 233.059,326.941 232.965,326.898 232.853,326.845 C 233.157,326.978 233.445,327.116 232.943,326.887 C 233.032,326.925 232.904,326.868 232.772,326.813 C 232.618,326.739 232.333,326.625 231.541,326.36 C 232.365,326.632 231.886,326.455 231.32,326.29 C 231.471,326.315 230.882,326.149 230.044,325.99 C 230.912,326.161 230.417,326.045 229.915,325.961 C 229.789,325.939 229.664,325.92 229.537,325.902 L 229.548,325.905 C 229.493,325.897 229.438,325.89 229.382,325.884 C 228.771,325.809 228.175,325.785 227.597,325.809 C 227.018,325.833 226.457,325.906 225.916,326.022 Z M 235.51,328.377 C 235.517,329.14 235.511,329.239 235.51,328.377 C 236.138,328.872 236.71,329.373 235.51,328.377 Z" marker-start="none" marker-end="none"/>
     </g>
     <g id="Group_21">
      <path d="M 220.438,337.165 C 210.283,339.987 205.466,344.483 204.888,354.341 C 207.963,344.418 213.974,344.305 220.638,345.144 C 222.12,349.907 226.054,353.297 231.37,353.88 C 236.39,354.43 240.684,351.912 242.393,347.89 C 248.647,349.373 252.647,351.579 252.382,361.661 C 255.155,351.572 252.301,345.512 242.266,339.478 C 240.478,335.231 236.271,331.922 231.37,331.385 C 226.436,330.843 222.205,333.265 220.438,337.165 Z" fill="#fff2e6" marker-start="none" marker-end="none"/>
      <path d="M 220.438,334.811 C 210.283,337.633 205.466,344.379 204.888,354.237 C 207.963,344.314 213.409,341.498 220.073,342.337 C 221.555,347.1 226.054,350.943 231.37,351.526 C 236.39,352.076 240.684,349.558 242.393,345.536 C 248.647,347.019 252.647,351.475 252.382,361.557 C 255.155,351.468 252.301,343.158 242.266,337.124 C 240.478,332.877 236.271,329.568 231.37,329.031 C 226.436,328.489 222.205,330.911 220.438,334.811 Z" fill="#c1a891" marker-start="none" marker-end="none"/>
      <path d="M 231.91,329.101 C 229.865,330.792 230.327,336.935 232.908,337.165 C 235.868,337.923 237.21,335.649 237.447,331.3 C 235.815,330.187 233.929,329.41 231.91,329.101 Z" fill="#503b34" marker-start="none" marker-end="none"/>
      <path d="M 220.438,334.811 C 212.175,337.106 207.447,342 205.66,349.052 C 207.504,345.628 212.601,340.454 217.62,338.772 C 218.425,340.71 218.378,342.699 217.46,344.74 L 220.685,345.04 C 221.77,342.831 222.09,340.579 221.619,338.28 C 222.239,338.358 222.841,338.521 223.42,338.78 C 222.62,346.015 234.686,341.185 228.82,336.38 C 227.929,332.662 228.943,330.372 231.22,329.03 L 231.537,329.05 C 231.482,329.043 231.426,329.037 231.37,329.031 C 226.436,328.489 222.205,330.911 220.438,334.811 Z M 238.27,337.88 C 236.614,340.45 237.03,343.975 241.12,341.63 C 248.974,341.685 254.057,346.229 252.803,359.839 C 254.804,350.522 251.725,342.811 242.266,337.124 C 241.439,335.16 240.095,333.396 238.404,332.015 C 238.564,333.97 238.569,335.925 238.27,337.88 Z" marker-start="none" marker-end="none" fill="url(#LinearGradient_13)"/>
      <path d="M 225.7,344.187 C 229.947,347.168 234.679,346.699 239.669,343.999 L 240.232,346.249 C 235.542,349.363 230.498,350.908 224.013,346.062 L 225.7,344.187 Z" fill="#fff2e6" marker-start="none" marker-end="none"/>
      <path d="M 220.631,335.21 L 219.247,336.032 C 219.983,337.273 220.253,338.597 220.198,340.006 C 220.143,341.429 219.76,342.938 219.182,344.524 L 220.697,345.074 C 221.301,343.409 221.743,341.725 221.806,340.067 C 221.871,338.399 221.549,336.759 220.631,335.21 Z" fill="#3b2523" marker-start="none" marker-end="none"/>
      <path d="M 215.128,337.249 L 214.132,337.959 C 214.768,338.853 215.057,339.837 215.106,340.908 C 215.155,341.989 214.961,343.156 214.626,344.395 L 215.808,344.714 C 216.159,343.414 216.385,342.111 216.328,340.852 C 216.27,339.584 215.921,338.363 215.128,337.249 Z" fill="#3b2523" marker-start="none" marker-end="none"/>
      <path d="M 243.751,337.158 L 242.208,338.098 C 243.05,339.483 243.37,340.963 243.328,342.546 C 243.284,344.144 242.873,345.843 242.247,347.633 L 243.954,348.229 C 244.61,346.351 245.083,344.456 245.134,342.596 C 245.184,340.721 244.801,338.885 243.751,337.158 Z" fill="#3b2523" marker-start="none" marker-end="none"/>
      <path d="M 247.446,340.532 L 246.243,341.265 C 246.9,342.345 247.149,343.5 247.116,344.734 C 247.082,345.981 246.762,347.306 246.273,348.702 L 247.605,349.167 C 248.116,347.702 248.485,346.224 248.525,344.773 C 248.564,343.311 248.265,341.879 247.446,340.532 Z" fill="#3b2523" marker-start="none" marker-end="none"/>
     </g>
    </g>
   </g>
   <g id="рука ближняя 1 часть">
    <path d="M 168.344,364.925 C 165.661,357.489 149.642,354.939 148.609,371.615 C 148.656,382.269 165.341,403.409 177.856,420.287 C 183.684,438.082 195.487,436.1 203.393,435.942 C 210.841,432.113 207.946,417.648 202.551,409.43 L 193.509,401.432 L 193.387,401.196 C 188.917,398.773 167.079,375.013 168.344,364.925 Z" fill="#f7e4b9" stroke="none" stroke-width="0.5" marker-start="none" marker-end="none" stroke-miterlimit="79.8403193612775"/>
   </g>
   <g id="рука ближняя 2 часть">
    <g id="Group_22" stroke="none" stroke-width="0.5" stroke-miterlimit="79.8403193612775">
     <path d="M 205.365,318.245 C 174.162,341.576 146.027,359.115 145.277,367.065 L 142.277,377.565 C 157.066,378.53 169.372,383.818 179.872,370.287 C 188.207,357.248 204.302,335.351 212.278,331.963 C 218.282,328.206 216.803,317.188 208.106,316.822 L 208.03,316.714 C 207.083,317.349 206.192,317.87 205.365,318.245 Z" fill="#cc5548" marker-start="none" marker-end="none"/>
     <path d="M 205.365,318.245 C 202.87,320.11 200.395,321.938 198.488,323.33 L 196.539,324.754 L 191.615,328.334 C 164.574,347.816 145.886,360.605 145.277,367.065 L 142.62,376.363 C 157.544,361.386 188.731,334.647 205.183,324.503 C 211.361,321.765 216.653,317.803 208.03,316.714 C 207.083,317.349 206.192,317.87 205.365,318.245 Z" fill="#7f0000" marker-start="none" marker-end="none"/>
     <path d="M 152.061,374.547 C 158.784,377.247 169.305,375.899 175.856,371.115 C 175.47,371.247 189.596,343.379 209.127,331.844 C 218.925,325.853 215.169,323.072 205.388,327.442 C 194.688,330.797 165.18,358.922 152.061,374.547 Z" fill="#ff7f7f" marker-start="none" marker-end="none"/>
    </g>
   </g>
   <g id="рука ближняя 3 часть">
    <g id="Group_23" stroke="none" stroke-width="0.5" stroke-miterlimit="79.8403193612775">
     <path d="M 219.891,306.905 C 215.418,310.555 211.369,314.218 208.025,316.46 L 208.101,316.568 C 203.859,321.39 203.364,333.088 212.273,331.709 C 212.824,331.475 213.336,331.331 213.805,331.282 C 222.211,331.327 229.899,330.908 230.322,325.823 C 234.969,327.53 239.618,326.747 244.266,322.088 C 246.908,315.628 245.95,309.864 243.563,304.375 C 241.372,302.421 235.896,302.046 231.246,301.746 C 225.875,302.782 224.661,304.016 219.891,306.905 Z" fill="#cc5548" marker-start="none" marker-end="none"/>
     <path d="M 228.124,324.641 L 230.096,325.629 C 233.213,324.282 236.151,322.883 237.486,321.008 C 237.054,319.907 234.367,320.744 228.124,324.641 Z" fill="#7f0000" marker-start="none" marker-end="none"/>
     <path d="M 219.891,306.905 C 215.418,310.555 211.369,314.218 208.025,316.46 L 208.101,316.568 C 206.429,318.468 205.34,321.435 205.178,324.249 C 213.015,321.113 222.037,318.839 231.702,317.824 C 230.701,316.364 230.247,314.982 231.468,313.84 C 230.394,312.05 230.227,310.561 230.999,309.387 C 230.292,308.098 230.28,306.808 231.116,305.519 C 230.994,304.944 230.928,304.342 231.233,301.661 C 226.091,302.676 222.531,304.403 219.891,306.905 Z" fill="#7f0000" marker-start="none" marker-end="none"/>
     <path d="M 231.105,313.943 L 245.542,316.006 L 245.542,314.412 L 231.105,313.943 Z" fill="#7f0000" marker-start="none" marker-end="none"/>
     <path d="M 230.823,309.63 L 245.26,311.694 L 245.26,310.1 L 230.823,309.63 Z" fill="#7f0000" marker-start="none" marker-end="none"/>
     <path d="M 230.823,305.505 L 244.501,307.568 L 244.5,305.974 L 230.823,305.505 Z" fill="#7f0000" marker-start="none" marker-end="none"/>
     <path d="M 205.384,327.188 C 205.843,329.294 207.024,330.992 209.122,331.59 C 210.286,330.903 211.469,330.273 212.668,329.712 C 219.255,329.97 224.351,328.947 227.481,326.243 C 225.362,326.664 223.354,326.752 221.481,326.432 C 221.759,323.767 225.397,321.631 230.446,319.718 C 221.277,321.274 212.946,323.794 205.384,327.188 Z" fill="#ff7f7f" marker-start="none" marker-end="none"/>
    </g>
   </g>
  </g>
 </g>
</svg>
